<?xml version="1.0" encoding="UTF-8"?><svg id="Layer_2" xmlns="http://www.w3.org/2000/svg" viewBox="0 0 56.69 56.69"><defs><style>.cls-1{fill:#231f20;}</style></defs><g id="Layer_1-2"><path class="cls-1" d="m42.23,41.94c-8.9,8.9-8.9-8.55,0,.35-8.9-8.9,8.55-8.9-.35,0,8.97-8.97,8.97,8.55.07-.35,8.9,8.9-8.62,8.9.28,0m-27.48.28c-8.9-8.9,8.55-8.9-.35,0,8.9-8.9,8.9,8.62,0-.28,8.9,8.9-8.55,8.9.35,0-8.9,8.9-8.9-8.62,0,.28m-.35-27.48c8.9-8.9,8.9,8.55,0-.35,8.9,8.9-8.55,8.9.35,0-8.9,8.9-8.9-8.55,0,.35-8.9-8.9,8.55-8.9-.35,0m27.91,8.83c-8.9,8.9-8.9-8.55,0,.35-8.9-8.9,8.55-8.9-.35,0,8.9-8.9,8.9,8.55,0-.35,8.9,8.9-8.55,8.9.35,0m0,9.54c-8.9-8.9,8.55-8.9-.35,0,8.9-8.9,8.9,8.55,0-.35,8.9,8.9-8.55,8.9.35,0-8.9,8.9-8.9-8.55,0,.35m-9.18-.35c-8.9,8.9-8.9-8.55,0,.35-8.9-8.9,8.55-8.9-.35,0,8.9-8.9,8.9,8.55,0-.35,8.9,8.9-8.55,8.9.35,0m0,9.54c-8.9-8.9,8.55-8.9-.35,0,8.9-8.97,8.9,8.55,0-.35,8.9,8.9-8.55,8.9.35,0-8.9,8.9-8.9-8.55,0,.35m-9.54,0c8.9-8.97,8.9,8.55,0-.35,8.9,8.9-8.55,8.9.35,0-8.9,8.9-8.9-8.55,0,.35-8.9-8.97,8.55-8.97-.35,0m.35-9.18c-8.9-8.9,8.55-8.9-.35,0,8.9-8.9,8.9,8.55,0-.35,8.9,8.9-8.55,8.9.35,0-8.9,8.9-8.9-8.55,0,.35m-9.54,0c8.9-8.9,8.9,8.55,0-.35,8.9,8.9-8.55,8.9.35,0-8.9,8.9-8.9-8.55,0,.35-8.9-8.9,8.55-8.9-.35,0m0-9.54c8.9,8.9-8.55,8.9.35,0-8.9,8.9-8.9-8.55,0,.35-8.9-8.9,8.55-8.9-.35,0,8.9-8.9,8.9,8.55,0-.35m9.18.35c8.9-8.9,8.9,8.55,0-.35,8.9,8.9-8.55,8.9.35,0-8.9,8.9-8.9-8.55,0,.35-8.9-8.9,8.55-8.9-.35,0m0-9.54c8.9,8.9-8.55,8.9.35,0-8.9,8.9-8.9-8.55,0,.35-8.9-8.9,8.55-8.9-.35,0,8.9-8.9,8.9,8.55,0-.35m9.18,9.54c8.9-8.9,8.9,8.55,0-.35,8.9,8.9-8.55,8.9.35,0-8.9,8.9-8.9-8.55,0,.35-8.97-8.9,8.55-8.9-.35,0m.35-9.54c-8.9,8.9-8.9-8.55,0,.35-8.97-8.9,8.55-8.9-.35,0,8.9-8.9,8.9,8.55,0-.35,8.9,8.9-8.55,8.9.35,0m8.83,0c8.9,8.9-8.62,8.9.28,0-8.9,8.9-8.9-8.55,0,.35-8.9-8.9,8.62-8.9-.28,0,8.9-8.9,8.9,8.55,0-.35m-12.86,14.69c-38.78-38.78-38.78,37.3,0-1.48-38.78,38.78,37.3,38.78-1.48,0,38.78,38.78,38.78-37.3,0,1.48,38.78-38.78-37.3-38.78,1.48,0"/></g></svg>