<?xml version="1.0" encoding="UTF-8"?><svg id="Layer_2" xmlns="http://www.w3.org/2000/svg" viewBox="0 0 10.38 31.48"><defs><style>.cls-1{fill:#30161b;}</style></defs><g id="Layer_1-2"><path class="cls-1" d="m8.57,4.85c2.74,2.81.96,7.44,1.8,11.05-.77.23-1.49.44-2.25.67.35,3.41-.8,6.12-.24,9.19.22,3.02,1.54,4.52-2.56,3.95-.03.7-.13,1.42-.72,1.66-1.54-.06-3.2.45-4.61-.28.05-.42.1-.8.15-1.19.16.13.31.26.47.38.74-.97,1.49-1.95,2.33-3.05-.06-3.44-.08-7.13.8-10.58-.2-.15-.43-.32-.63-.47.34-1.82.67-3.62.98-5.26-.91-1.05-1.71-1.98-2.52-2.91.07-.1.14-.2.21-.3.91.51,2.12-.27,2.94.9.63-1.28,1.24-2.51,1.9-3.85-1.43.09-1.67-.86-2.27-1.74C1.99.72,7.74-1.67,8.16,1.6c.35.26.64.48,1.08.81-.55.27-.93.46-1.27.63.25.6.48,1.14.71,1.67-.03.05-.07.1-.1.14Z"/></g></svg>