<?xml version="1.0" encoding="UTF-8"?><svg id="Layer_2" xmlns="http://www.w3.org/2000/svg" viewBox="0 0 70.2 94.83"><defs><style>.cls-1{fill:#ec1b68;}.cls-2{fill:#30161c;}.cls-3{fill:#bed964;}</style></defs><g id="Layer_1-2"><path class="cls-2" d="m69.79,10.32c.42.55-.13.98-.42,1.47-1.28,2.18-2.14,4.57-3.16,6.87-2.52,5.69-4.98,11.41-7.52,17.09-.35.79-.42,1.11.56,1.27,1.09.17,2.19.6,2.86,1.45.55.7,2.06-.25,1.91,1.18-.1.92.24,1.69.41,2.54,1.01,5.09-.1,9.76-4.51,13-2.27,1.67-4.76,2.88-7.39,3.82-.58.21-.97.33-.81,1.15.97,5.04,1.9,10.1,2.8,15.16.12.7.38,1.01,1.12,1.15,5.9,1.13,8.74,5.76,7.45,11.75-.63,2.91-2.5,4.42-5.03,5.49-2.82,1.2-5.66,1.18-8.39-.06-3.26-1.48-4.54-4.42-4.98-7.76-.33-2.55-.53-5.12.67-7.55.88-1.8,2.33-2.82,4.31-2.92.82-.04.8-.31.67-.94-.9-4.39-1.78-8.79-2.62-13.19-.16-.81-.39-1.21-1.26-.85-.16.06-.34.06-.52.07-1.91.12-3.58.56-5.22,1.83-2.63,2.04-5.78,1.93-8.85.9-1.23-.41-2.37-1.07-3.55-1.61-.11-.11-.23-.26-.38-.07-.15.19.03.28.15.38,1.11,2.19,1.41,4.54,1.34,6.96-.05,1.62-.76,2.93-1.9,4.02-2.42,2.33-5.35,3.37-8.6,2.65-1.88-.41-3.38-1.81-4.24-3.61-1.61-3.4-2.12-6.96-1.18-10.66.39-1.54,1.26-2.77,2.66-3.55.51-.29.79-.61.8-1.21.02-.66.13-1.4.57-1.84,1.09-1.12.39-1.69-.46-2.43-1.29-1.11-2.31-2.48-3.18-3.95-.38-.65-.57-.82-1.13-.1-1.72,2.23-4,3.71-6.62,4.67-.41.15-.79.39-1.2-.01-.38-.39-.25-.77-.05-1.19.65-1.43,1.22-2.88,1.91-4.28.36-.73.4-.99-.55-1.14-2.02-.3-4.01-.77-6.01-1.17v-1.31c1.94-1.24,3.87-2.49,5.83-3.7.59-.36.39-.61.05-1-.98-1.11-1.93-2.24-2.89-3.37-.26-.3-.52-.62-.29-1.05.25-.46.66-.47,1.13-.4,1.98.28,3.97.5,5.94.84.74.13,1.12.09,1.24-.77.18-1.29.54-2.56,1.08-3.75.33-.72.09-.82-.57-.99-3.49-.9-5.81-3.38-7.9-6.11-.69-.9.15-1.22.88-1.36,1.66-.33,3.34-.62,5.01-.89.7-.11.95-.24.63-1.06-1.08-2.77-.84-5.55.26-8.28.18-.45.36-.96.87-1.07.6-.13.78.45,1.03.83.93,1.41,1.83,2.84,2.85,4.43.56-1.63,1.05-3.13,1.57-4.62.26-.74.54-1.47.83-2.2.18-.44.34-1.02.91-.97.6.05.6.66.67,1.13.34,2.54.68,5.09,1.02,7.63.04.29.09.58.13.87.13.1.25.19.38.29.62-.74,1.18-1.55,1.88-2.21,6.07-5.74,12.95-10.39,20.08-14.7.19-.11.4-.19.56-.33.41-.33.69-1.06,1.36-.61.54.36.38,1.01.34,1.57-.41,6.26-.83,12.52-1.25,18.78-.02.25-.12.51.11.82,2.49-1.16,5-2.32,7.51-3.49,5.56-2.59,11.12-5.18,16.67-7.79.6-.28,1.21-.52,1.65.04Zm-2.04,1.7c-.87.4-1.44.66-2.01.92-4.3,1.99-8.6,3.99-12.91,5.95-1.01.46-.52,1.25-.54,1.91-.03.77.74.56,1.08.61.37.05.55-.07.66-.27l.64.13c-.22.6.31.9.77,1.2.42.27.73.19.96-.04l.61.23c-.38.44-.35.78,0,1.25,1.67,2.23,1.73,4.7.96,7.26-.12.4-.47.82.15,1.06.54.21.78-.17.96-.61.1-.24.24-.46.35-.7,1.56-3.55,3.11-7.09,4.67-10.63,1.17-2.66,2.35-5.32,3.65-8.27Zm-9.58,42.76c3.45-2.32,5.6-5.37,5.33-9.9-.6.87-.58,1.83-.9,2.67-1.03,2.7-2.55,4.9-5.69,5.26-.84.1-1.65-.23-1.33,1.22.17.79-.66,1.24-1.44,1.4-.57.12-1.13-.02-1.67-.16-.3-.08-.66-.22-.79.16-.37,1.06-1.17,1.86-1.99,3.03,3.17-1.01,5.99-1.98,8.49-3.66Zm4.51-13.33c.1-.71-.1-.86-.77-.5-1.88,1.01-3.77,1.98-5.67,2.92-.64.31-.75.67-.58,1.34.45,1.81.85,3.63,1.22,5.46.15.73.46.84,1.08.5,1.35-.76,2.43-1.76,3.1-3.17.99-2.07,1.28-4.32,1.62-6.55Zm-1.27,47.72c1.53-4.96.48-10.1-6.07-11.21-1.57-.27-1.93-.97-2.16-2.32-.88-5.1-1.84-10.19-2.78-15.27-.08-.44-.04-1.03-.81-.87-.66.14-.78.5-.65,1.14,1.01,4.86,1.96,9.72,2.97,14.57.34,1.62.26,1.78-1.33,1.67-2.35-.17-3.92,1-4.47,3.27-.64,2.67-.32,5.32.43,7.86.58,1.95,1.93,3.48,3.86,4.37.77.36,1.2.39,1.19-.67-.01-1.04.09-2.09.15-3.13.03-.49.09-1.09.69-1.08.7.02.67.66.65,1.19-.02.42-.05.85-.08,1.27-.01.14-.02.28-.03.42-.07,1.19-.12,1.89.03,2.27.01.03.02.06.04.09.03.05.06.1.1.14.29.3.92.2,2.17.02,1.07-.15,1.49-.67,1.59-1.67.1-1.04.29-2.07.43-3.1.07-.54.33-1.2.81-1.11.58.1.7.77.55,1.41-.22.97-.39,1.95-.59,2.92-.1.5.09.72.55.45,1.13-.65,2.34-1.29,2.76-2.64Zm-1.09-48.9c.32-.16.58-.29.58-.73,0-.47-.35-.57-.65-.71-.84-.38-1.72-.59-2.65-.61-.95-.02-1.26-.47-.83-1.36.13-.27.26-.55.38-.83.24-.52.47-1.03.7-1.55.13-.29.54-.61.09-.89-.35-.21-.78-.54-1.2-.32-.41.2-.09.62-.09.95,0,.17.01.35.02.52,0,.34.07.76-.06,1.04-.08.17-.24.29-.54.3-.66.03-.63-.7-.65-1.22-.02-.48-.03-.96-.04-1.44-.03-1.18-1.08-1.06-1.74-1.14-.75-.09-.38.7-.42,1.1-.06.56.01,1.13.03,1.7.01.39-.11.73-.52.79-.51.09-.7-.32-.74-.71-.05-.61-.1-1.23,0-1.82.25-1.42-.54-1.81-1.71-1.99-.61-.09-.79.06-.74.66.08.95.12,1.91.17,2.87.02.41-.04.87-.51.93-.58.08-.69-.42-.74-.86-.13-1.11-.29-2.22-.36-3.34-.09-1.37-1.25-.86-1.9-1-.77-.16-.47.61-.44,1.03.07,1.26.17,2.52.27,3.77.04.5.06,1.08-.52,1.17-.69.1-.65-.55-.7-1.01-.1-1.13-.19-2.26-.26-3.38-.13-1.97-.13-1.94-2.05-2.07-.69-.04-.95.03-.79.82.32,1.58.54,3.17.8,4.77.07.45.06.95-.47,1.07-.59.13-.68-.38-.75-.82-.14-.82-.28-1.63-.41-2.45q-.61-3.77-4.46-3.35s-.09.01-.13.01c-.75-.02-1.01.24-.75,1.03.35,1.07.58,2.19.87,3.28.13.49.06.93-.46,1.04-.51.12-.63-.36-.73-.73-.32-1.18-.63-2.36-.94-3.53-.39-1.48-1.23-.31-1.85-.27-.74.04-.77.47-.43,1.09.5.91.92,1.88,1.35,2.83.18.4.1.8-.33,1-.42.19-.63-.16-.8-.47-.21-.38-.38-.78-.56-1.18-1.39-2.91-1.38-2.9-3.93-.77-.49.41-.65.73-.24,1.29.38.52.67,1.12,1.01,1.68.26.43.53.9.01,1.27-.61.42-.82-.17-1.06-.57-.3-.48-.58-.97-.85-1.47-.3-.58-.6-.56-.91-.03-.47.78-1.01,1.54-1.37,2.37-2.39,5.46-1.91,11.05-.69,16.67.1.47.44.73.84.93,6.66,3.37,13.72,4.29,21.07,3.55.62-.06.63-.31.34-.76-.14-.22-.33-.45-.34-.69-.07-1.53-.72-1.59-2.01-1.08-2.31.93-4.33-.65-4.03-3.19-.33.07-.54.09-.74.15-2.66.81-4.93.07-6.74-1.93-3-3.31-4.05-7.43-4.55-11.73-.12-1.02.5-1.1,1.36-.75,5.67,2.36,11.36,4.68,17.03,7.02.8.33,1.56.69,2.45.23,4-2.07,8.01-4.13,12.03-6.18Zm-2.63-11.62c0-.69.05-1.09,0-1.47-.26-1.9-1.16-3.41-2.84-4.39-.56-.33-.75-.21-.71.28.12,1.75-.33,3.4-.82,5.05-.18.63-1.19,1.06-.82,1.59.32.46,1.24.5,1.89.73.08.03.16.07.24.09,2.88.66,2.96,1.58,3.07-1.88Zm-3.24,24.44c.31-.9-.46-.66-.78-.81-2.11-1.01-4.36-1.79-5.9-3.7-.57-.71-.99-.35-1.48.11-1.93,1.83-3.94,3.55-6.82,4.66.88.16,1.09.58,1.3,1.03.5,1.04,1.3,1.32,2.37.9,1.36-.54,2.54-1.35,3.55-2.39.63-.65,1.19-.8,2.06-.42,1.43.62,2.89,1.2,4.44,1.5.8.16,1.04-.19,1.27-.87Zm-3.47-31.85c.7-.13.71-.89.62-1.23-.19-.68-.71-.14-1.03,0-2.18.99-4.34,2.01-6.51,3.01-.41.19-.8.65-1.31.3-.52-.37-.33-.92-.3-1.44.4-6.13.8-12.26,1.18-18.39.02-.28.23-.64-.1-.83-.32-.19-.55.16-.79.31-1.88,1.18-3.78,2.33-5.63,3.56-7.35,4.9-14.34,10.21-19.64,17.4-3.45,4.7-5.88,9.83-5.2,15.86.72,6.42,4.11,11.11,9.73,14.24-.73-4.31-.94-8.55-.05-12.78,1.22-5.78,4.5-9.81,10.23-11.63,2.34-.74,4.75-1.07,7.21-1.03.41,0,.92.24,1.47-.46l.29-.13c.24.38.68.65,1.18.8.56-.18,1.27-.7,1.13-1.05-.17-.42-.52-.84-.93-1.14l.56-.34c1.13,1.33,2.43.97,3.21-.7.97-2.07,2.21-3.86,4.68-4.33Zm-.97,6.33c.51-.65,1.2-.96,2.14-1.09-.9-.86-1.3-1.76-1.11-2.89-.57.98-2.71,1.33-1.15,3.08.17.2-.17.57.13.9Zm-2.56,30.29c.45.19,2.47-1.61,2.31-2.04-.27-.69-.75-1.37-1.57-1.34-.78.03-1.53.34-1.55,1.22.16.87-.05,1.78.82,2.16Zm1.38-28.33c.09-.54-.19-.63-.42-.73-.53-.26-1.23-.37-1.57-.78-.67-.81-1.3-.55-2.06-.29-.33.12-.56.3-.59.6-.06.47.43.5.68.58,1.15.35,2.39.24,3.52.71.23.1.42,0,.43-.09Zm-3.69,18.49c.52-.47.16-.61-.25-.78-1.72-.7-3.44-1.43-5.17-2.12-1.81-.72-1.82-.71-1.8,1.17,0,.65,0,1.3,0,1.95h.03c.04,1.04.15,2.08.12,3.11-.02.92.29,1.02,1.08.72,2.32-.89,4.18-2.43,5.99-4.05Zm-4.8,12.77c-1.02-.25-1.47.14-1.96,1.13.88-.32,1.48-.47,1.96-1.13Zm-6.91-.76c1.1,1.52,3.1,1.76,3.92.53-1.31-.02-2.56-.25-3.92-.53Zm-2.4,1.01c.4-.09.7-.12.64-.64-.04-.39.03-.75-.58-.77-.49-.01-.98-.23-1.47-.32-1.2-.21-2.11-1.3-3.77-1.13,1.42.92,2.51,1.68,3.66,2.34.45.26.88.65,1.52.5Zm-5.7,11.66c1.96-1.22,3.03-2.83,2.77-5.27-.32-3.05-.96-5.86-3.97-7.46-.57-.31-.58-.8-.37-1.35.34-.86.05-1.56-.66-2.05-.85-.59-1.74-1.15-2.64-1.67-.49-.28-1.07-.52-1.52.09-.38.52-.75,1.18-.59,1.77.16.6.9.31,1.39.36.26.02.52.02.78.02.52,0,1.02.12,1.03.74.01.61-.42.76-.98.75-.78-.02-1.56.03-2.34.06-1.54.06-2.97,1.29-3.42,2.76-.87,2.86-.33,5.65.4,8.41.35,1.31,1.19,2.41,2.27,3.28.16.13.38.32.54.29.34-.07.22-.4.23-.65,0-1,.02-2,.01-3,0-.52.09-1.06.66-1.1.64-.05.69.54.7,1.03.01.61,0,1.22,0,1.83h-.05c0,.43.02.87,0,1.3-.05.71-.22,1.5.91,1.39.92-.09,2.2.52,2.39-1.18.13-1.12.4-2.22.61-3.34.09-.48.19-1.07.8-.98.7.1.61.73.51,1.26-.13.73-.3,1.45-.41,2.18-.05.3-.39.69.04.92.37.19.61-.17.9-.35Zm-6.62-52.38c.28-.32.66-.63.6-1.11-.31-2.38-.63-4.76-.96-7.21-.43.27-.55.6-.62.93-.32,1.55-1.03,2.99-1.15,4.59-.03.47-.09,1.04-.63,1.2-.68.19-.85-.47-1.12-.87-.55-.83-1.02-1.73-1.6-2.54-.51-.71-.79-1.6-1.65-2.16-.74,2.75-.8,5.34.61,7.8.55.96.07,1.35-.82,1.51-1.83.33-3.67.66-5.76,1.03,1.93,2.21,3.85,3.98,6.55,4.68.73.19,1.21.07,1.59-.67,1.36-2.59,3.03-4.98,4.96-7.18Zm-6.94,26.98c.67-.78.76-1.53.42-2.45-.87-2.35-1.42-4.75-1.27-7.28.03-.48-.03-.85-.63-.93-1.58-.2-3.15-.43-5.05-.69,1.03,1.17,1.87,2.14,2.73,3.09.58.63.52,1.13-.21,1.58-.85.54-1.7,1.06-2.49,1.67-.76.57-1.73.89-2.37,1.78,1.7.32,3.26.66,4.84.9,1.17.18,1.34.68.85,1.7-.66,1.36-1.22,2.76-1.96,4.47,2.17-1.07,3.78-2.28,5.14-3.85Z"/><path class="cls-1" d="m65.74,12.95c.57-.26,1.15-.53,2.01-.92-1.3,2.95-2.48,5.61-3.65,8.27-1.56,3.54-3.11,7.09-4.67,10.63-.1.24-.25.46-.35.7-.18.44-.42.82-.96.61-.62-.24-.27-.66-.15-1.06.78-2.56.71-5.03-.96-7.26-.36-.48-.39-.82,0-1.25.25-.3.45-.64.67-.96.16-.24.49-.55.17-.78-.43-.3-.55.22-.75.46-.14.17-.27.35-.36.54s-.21.38-.35.51c-.24.24-.54.31-.96.04-.46-.29-.98-.6-.77-1.2.03-.1.09-.2.17-.31.12-.18.18-.4.24-.61.08-.25.16-.59-.12-.7-.38-.15-.47.22-.62.5-.15.28-.16.71-.31.99-.11.2-.3.33-.66.27-.35-.05-1.11.16-1.08-.61.02-.66-.47-1.45.54-1.91,4.31-1.96,8.61-3.96,12.91-5.95Z"/><path class="cls-1" d="m63.5,44.88c.27,4.53-1.88,7.58-5.33,9.9-2.5,1.69-5.32,2.65-8.49,3.66.83-1.16,1.62-1.96,1.99-3.03.13-.37.49-.23.79-.16.55.14,1.1.28,1.67.16.78-.16,1.61-.61,1.44-1.4-.31-1.45.5-1.12,1.33-1.22,3.14-.37,4.66-2.56,5.69-5.26.32-.84.3-1.79.9-2.67Z"/><path class="cls-1" d="m61.92,40.95c.67-.36.87-.21.77.5-.34,2.23-.63,4.48-1.62,6.55-.68,1.41-1.76,2.42-3.1,3.17-.61.35-.93.23-1.08-.5-.37-1.83-.76-3.66-1.22-5.46-.17-.67-.05-1.03.58-1.34,1.91-.94,3.8-1.92,5.67-2.92Z"/><path class="cls-1" d="m55.34,77.97c6.55,1.11,7.6,6.25,6.07,11.21-.42,1.36-1.63,1.99-2.76,2.64-.46.26-.65.04-.55-.45.19-.97.37-1.95.59-2.92.15-.63.03-1.3-.55-1.41-.48-.08-.73.58-.81,1.11-.14,1.03-.33,2.06-.43,3.1-.09,1.01-.52,1.52-1.59,1.67-1.25.18-1.88.28-2.17-.02-.04-.04-.07-.09-.1-.14-.01-.03-.03-.05-.04-.09-.14-.38-.1-1.08-.03-2.27,0-.14.02-.28.03-.42.03-.42.06-.85.08-1.27.02-.53.05-1.18-.65-1.19-.59-.02-.66.59-.69,1.08-.06,1.04-.16,2.09-.15,3.13.01,1.06-.42,1.03-1.19.67-1.93-.9-3.29-2.43-3.86-4.37-.75-2.54-1.07-5.2-.43-7.86.55-2.28,2.12-3.44,4.47-3.27,1.58.11,1.67-.05,1.33-1.67-1.01-4.85-1.97-9.72-2.97-14.57-.13-.64-.01-1,.65-1.14.77-.17.73.43.81.87.94,5.09,1.91,10.17,2.78,15.27.23,1.34.59,2.05,2.16,2.32Z"/><path class="cls-1" d="m60.9,39.55c0,.44-.26.57-.58.73-4.01,2.05-8.02,4.1-12.03,6.18-.89.46-1.65.1-2.45-.23-5.68-2.34-11.36-4.66-17.03-7.02-.86-.36-1.47-.28-1.36.75.49,4.3,1.55,8.42,4.55,11.73,1.81,2,4.08,2.73,6.74,1.93.2-.06.41-.09.74-.15-.29,2.54,1.73,4.11,4.03,3.19,1.29-.52,1.94-.45,2.01,1.08.01.24.2.48.34.69.29.45.28.7-.34.76-7.35.73-14.41-.18-21.07-3.55-.4-.2-.74-.46-.84-.93-1.22-5.62-1.7-11.21.69-16.67.37-.83.91-1.58,1.37-2.37.31-.53.61-.56.91.03.26.5.55.99.85,1.47.24.39.45.99,1.06.57.52-.36.25-.84-.01-1.27-.34-.56-.62-1.16-1.01-1.68-.42-.56-.26-.88.24-1.29,2.55-2.12,2.54-2.14,3.93.77.19.39.36.8.56,1.18.16.31.37.66.8.47.43-.19.51-.59.33-1-.43-.95-.84-1.92-1.35-2.83-.34-.62-.31-1.04.43-1.09.61-.03,1.45-1.21,1.85.27.31,1.18.61,2.36.94,3.53.1.37.22.85.73.73.52-.12.59-.56.46-1.04-.29-1.09-.52-2.21-.87-3.28-.26-.79,0-1.05.75-1.03.04,0,.09,0,.13-.01q3.84-.42,4.46,3.35c.13.82.27,1.63.41,2.45.08.44.16.95.75.82.53-.11.54-.61.47-1.07-.26-1.59-.48-3.19-.8-4.77-.16-.79.1-.87.79-.82,1.92.13,1.92.1,2.05,2.07.08,1.13.16,2.26.26,3.38.04.45,0,1.11.7,1.01.58-.09.57-.66.52-1.17-.1-1.26-.2-2.52-.27-3.77-.02-.41-.33-1.19.44-1.03.65.14,1.8-.37,1.9,1,.07,1.11.23,2.23.36,3.34.05.45.17.94.74.86.47-.06.53-.52.51-.93-.05-.96-.09-1.91-.17-2.87-.05-.6.12-.75.74-.66,1.17.18,1.97.57,1.71,1.99-.1.59-.06,1.22,0,1.82.03.4.23.8.74.71.4-.07.53-.4.52-.79-.02-.57-.09-1.14-.03-1.7.04-.4-.33-1.19.42-1.1.65.08,1.7-.04,1.74,1.14.02.48.02.96.04,1.44.03.52,0,1.25.65,1.22.3-.01.45-.13.54-.3l.55.25c-.12.28-.25.55-.38.83-.43.9-.12,1.35.83,1.36.93.02,1.81.23,2.65.61.3.14.64.24.65.71Z"/><path class="cls-1" d="m57.93,33.6c.46.28.04.6-.09.89-.23.52-.46,1.04-.7,1.55l-.55-.25c.13-.28.06-.7.06-1.04,0-.17-.01-.35-.02-.52,0-.33-.32-.75.09-.95.42-.21.85.11,1.2.32Z"/><path class="cls-2" d="m57.86,20.92c.32.23,0,.54-.17.78-.22.32-.42.67-.67.96l-.61-.23c.13-.13.25-.31.35-.51s.23-.37.36-.54c.2-.24.32-.76.75-.46Z"/><path class="cls-1" d="m57.69,27.19c.05.38,0,.78,0,1.47-.11,3.47-.19,2.55-3.07,1.88-.08-.02-.16-.05-.24-.09-.65-.23-1.57-.27-1.89-.73-.36-.53.64-.96.82-1.59.49-1.65.94-3.3.82-5.05-.03-.5.16-.61.71-.28,1.68.97,2.58,2.48,2.84,4.39Z"/><path class="cls-2" d="m54.96,19.66c.27.11.2.45.12.7-.07.21-.12.43-.24.61-.08.11-.13.21-.17.31l-.64-.13c.16-.28.16-.71.31-.99.14-.27.24-.64.62-.5Z"/><path class="cls-1" d="m53.67,52.3c.32.16,1.09-.09.78.81-.23.67-.47,1.02-1.27.87-1.55-.3-3.01-.88-4.44-1.5-.87-.37-1.43-.23-2.06.42-1.01,1.04-2.19,1.84-3.55,2.39-1.07.43-1.87.15-2.37-.9-.21-.45-.42-.87-1.3-1.03,2.87-1.11,4.89-2.83,6.82-4.66.49-.47.91-.82,1.48-.11,1.54,1.91,3.79,2.7,5.9,3.7Z"/><path class="cls-1" d="m53.04,92.77c.03.05.06.1.1.14-.04-.04-.07-.08-.1-.14Z"/><path class="cls-1" d="m53,89.99c0,.14-.02.28-.03.42-.07,1.19-.12,1.89.03,2.27-.14-.38-.1-1.08-.03-2.27,0-.14.02-.28.03-.42Z"/><path class="cls-1" d="m51.6,20.03c.1.34.08,1.1-.62,1.23-2.47.46-3.71,2.25-4.68,4.33-.78,1.67-2.08,2.03-3.21.7-.03-.04-.06-.07-.09-.11-.94-1.2-1.43-.94-2.14.12-.05.07-.1.14-.15.2-.4.49-.95.76-1.68.04,1.35.06,1.32-1,1.39-1.7.25-2.41-.1-4.74-2.12-6.35-.7-.56-.96-1.06-.85-1.67.05-.26.17-.53.35-.84.22-.37.58-.82.25-1.32-.05-.07-.28-.11-.35-.06-.42.29-.47.74-.63,1.19-.08.24-.04.63-.13.92-.09.28-.3.47-.85.37-.9-.16-1.25-.63-1.16-1.3.02-.18.08-.37.16-.58.18-.44.13-.8-.03-1.43-.47.62-.66,1.12-.62,1.66,0,.1,0,.19,0,.28-.08.78-.77.85-1.35.83-.77-.03-.46-.74-.51-1.22-.07-.65.34-1.86-.25-1.84-.92.04-.43,1.2-.45,1.84-.03.8-.33,1.18-1.02,1.43-2.78.99-4,3.33-5,5.84-.32.81.4.95.9,1.15,3.29,1.32,6.7,2.18,10.23,2.52.64.06,1.13.17,1.54.74.5.7,1.18,1.22,2.31,1.15-.55.7-1.06.47-1.47.46-2.46-.05-4.87.29-7.21,1.03-5.73,1.81-9.01,5.84-10.23,11.63-.89,4.23-.68,8.47.05,12.78-5.62-3.13-9-7.83-9.73-14.24-.68-6.04,1.74-11.17,5.2-15.86,5.29-7.2,12.29-12.51,19.64-17.4,1.85-1.23,3.75-2.38,5.63-3.56.25-.15.47-.5.79-.31.33.19.11.55.1.83-.39,6.13-.78,12.26-1.18,18.39-.03.52-.22,1.07.3,1.44.51.36.9-.11,1.31-.3,2.17-.99,4.33-2.02,6.51-3.01.33-.15.84-.69,1.03,0Z"/><path class="cls-3" d="m52.15,26.49c-.94.13-1.63.44-2.14,1.09-.3-.33.05-.71-.13-.9-1.55-1.75.58-2.09,1.15-3.08-.2,1.13.21,2.03,1.11,2.89Z"/><path class="cls-3" d="m49.77,55.85c.16.42-1.86,2.23-2.31,2.04-.87-.38-.65-1.29-.82-2.16.03-.88.77-1.19,1.55-1.22.82-.03,1.3.65,1.57,1.34Z"/><path class="cls-1" d="m48.42,28.82c.23.11.5.19.42.73-.02.08-.2.18-.43.09-1.13-.47-2.38-.36-3.52-.71-.26-.08-.74-.12-.68-.58.04-.3.26-.48.59-.6.75-.26,1.39-.52,2.06.29.34.41,1.04.53,1.57.78Z"/><path class="cls-1" d="m44.9,47.26c.41.17.77.32.25.78-1.82,1.62-3.67,3.17-5.99,4.05-.78.3-1.1.21-1.08-.72.03-1.04-.08-2.08-.12-3.11h-.03c0-.65,0-1.3,0-1.95-.02-1.88-.02-1.9,1.8-1.17,1.73.69,3.44,1.42,5.17,2.12Z"/><path class="cls-1" d="m43.46,27.76c.14.35-.57.88-1.13,1.05-.51-.15-.95-.42-1.18-.8-.11-.17-.17-.38-.19-.6-.01-.27.15-.6.37-.84.2-.22.44-.35.64-.28.19.07.39.18.57.32.4.3.76.72.93,1.14Z"/><path class="cls-2" d="m43,26.17s.06.08.09.11l-.56.34c-.18-.14-.38-.24-.57-.32-.2-.07-.44.06-.64.28l-.61-.1c.05-.06.1-.13.15-.2.71-1.06,1.19-1.32,2.14-.12Z"/><path class="cls-2" d="m40.72,26.48l.61.1c-.22.23-.38.56-.37.84.01.22.08.42.19.6l-.29.13c-1.13.06-1.82-.45-2.31-1.15-.4-.57-.89-.68-1.54-.74-3.53-.34-6.94-1.2-10.23-2.52-.49-.2-1.22-.34-.9-1.15,1-2.51,2.22-4.85,5-5.84.69-.25.99-.63,1.02-1.43.02-.64-.46-1.81.45-1.84.59-.02.18,1.18.25,1.84.05.48-.26,1.18.51,1.22.58.02,1.27-.05,1.35-.83l.5.07c-.09.67.25,1.14,1.16,1.3.56.1.76-.09.85-.37l.5.12c-.12.6.14,1.1.85,1.67,2.02,1.62,2.37,3.94,2.12,6.35-.07.69-.04,1.75-1.39,1.7.73.72,1.28.45,1.68-.04Zm-1.01-1.67c.49-3.18-.64-5.43-3.32-6.87-.79-.42-1.03-.31-1.09.61-.15,2.22-.51,4.4-1.93,6.48,1.92.22,3.68.43,5.44.62.58.06.81-.27.9-.84Zm-9.04-2.23c.81-.81,1.55-1.38,2.71-1.52-1.08-.99-1.45-2.08-1.32-3.36-.53,1.06-1.2,1.88-2.59,2.02.94.78,1.51,1.57,1.2,2.87Z"/><path class="cls-1" d="m38.39,61.94c.49-.99.94-1.38,1.96-1.13-.48.66-1.08.81-1.96,1.13Z"/><path class="cls-1" d="m36.39,17.95c2.69,1.44,3.81,3.69,3.32,6.87-.09.57-.32.9-.9.84-1.76-.19-3.52-.4-5.44-.62,1.43-2.08,1.78-4.26,1.93-6.48.06-.92.3-1.03,1.09-.61Z"/><path class="cls-2" d="m38.07,14.64c.32.5-.04.96-.25,1.32-.18.31-.3.58-.35.84l-.5-.12c.09-.29.05-.67.13-.92.15-.45.21-.9.63-1.19.07-.05.3-.01.35.06Z"/><path class="cls-1" d="m37.35,60.57c-.82,1.23-2.82.99-3.92-.53,1.36.28,2.61.5,3.92.53Z"/><path class="cls-2" d="m35.09,13.75c.17.63.21.99.03,1.43-.08.21-.14.4-.16.58l-.5-.07c0-.09,0-.18,0-.28-.04-.53.15-1.04.62-1.66Z"/><path class="cls-3" d="m33.37,21.07c-1.16.14-1.89.71-2.71,1.52.31-1.3-.27-2.09-1.2-2.87,1.39-.14,2.06-.96,2.59-2.02-.13,1.28.24,2.37,1.32,3.36Z"/><path class="cls-1" d="m31.68,60.42c.05.52-.25.55-.64.64-.64.15-1.08-.24-1.52-.5-1.15-.66-2.24-1.42-3.66-2.34,1.67-.17,2.57.91,3.77,1.13.49.09.98.31,1.47.32.61.01.54.37.58.77Z"/><path class="cls-1" d="m28.11,67.45c.26,2.44-.82,4.05-2.77,5.27-.29.18-.54.55-.9.35-.43-.23-.09-.62-.04-.92.11-.73.27-1.45.41-2.18.1-.53.18-1.16-.51-1.26-.61-.09-.71.5-.8.98-.21,1.11-.48,2.22-.61,3.34-.19,1.7-1.47,1.09-2.39,1.18-1.13.11-.96-.68-.91-1.39.03-.43,0-.87,0-1.3h.05c0-.61,0-1.22,0-1.83,0-.49-.06-1.08-.7-1.03-.57.04-.67.58-.66,1.1.01,1,0,2-.01,3,0,.24.12.58-.23.65-.16.03-.38-.16-.54-.29-1.08-.87-1.92-1.97-2.27-3.28-.73-2.76-1.26-5.55-.4-8.41.45-1.47,1.88-2.7,3.42-2.76.78-.03,1.56-.07,2.34-.06.56.01.99-.14.98-.75-.01-.62-.5-.74-1.03-.74-.26,0-.52,0-.78-.02-.5-.04-1.23.24-1.39-.36-.16-.59.2-1.25.59-1.77.45-.61,1.03-.37,1.52-.09.9.52,1.79,1.08,2.64,1.67.72.5,1.01,1.19.66,2.05-.22.55-.21,1.04.37,1.35,3,1.6,3.64,4.41,3.97,7.46Z"/><path class="cls-1" d="m19.32,19.22c.06.49-.31.79-.6,1.11-1.93,2.2-3.6,4.59-4.96,7.18-.38.74-.86.86-1.59.67-2.7-.7-4.61-2.47-6.55-4.68,2.09-.37,3.92-.7,5.76-1.03.89-.16,1.37-.55.82-1.51-1.41-2.47-1.35-5.05-.61-7.8.85.56,1.14,1.46,1.65,2.16.58.81,1.05,1.7,1.6,2.54.27.41.44,1.07,1.12.87.54-.16.59-.73.63-1.2.12-1.6.83-3.05,1.15-4.59.07-.33.19-.66.62-.93.33,2.45.65,4.83.96,7.21Z"/><path class="cls-1" d="m12.2,44.87c.34.92.25,1.67-.42,2.45-1.36,1.57-2.97,2.77-5.14,3.85.75-1.71,1.3-3.12,1.96-4.47.49-1.02.32-1.52-.85-1.7-1.58-.24-3.14-.58-4.84-.9.64-.89,1.62-1.2,2.37-1.78.79-.61,1.65-1.13,2.49-1.67.73-.46.78-.95.21-1.58-.87-.95-1.7-1.92-2.73-3.09,1.9.26,3.47.49,5.05.69.6.07.66.45.63.93-.15,2.52.4,4.93,1.27,7.28Z"/></g></svg>