<?xml version="1.0" encoding="UTF-8"?><svg id="Layer_2" xmlns="http://www.w3.org/2000/svg" viewBox="0 0 10.41 32.79"><defs><style>.cls-1{fill:#30161b;}</style></defs><g id="Layer_1-2"><path class="cls-1" d="m1.77,11.69c-3.95.81-.3-6.67,1.32-7.51.25-.05.5-.09.89-.16C1.68-.65,8.21-1.83,7.15,3.61c.76.49,1.68,1.08,2.75,1.77.28,2.25,1.15,4.95-.32,7.04h-1.04c.05,2.27.54,4.48.3,6.71-.76-1.68-.2-3.54-.92-5.27-.24,2.69-.89,5.31-1.33,7.97.15,2.98,1.61,8.65-2.38,9.58-.94,1.51-1.28,1.66-2.39,1.01-.08-4.92-.17-10.04-.65-15.03-.61-2.01-.09-3.77.61-5.7Z"/></g></svg>