<?xml version="1.0" encoding="UTF-8"?><svg id="Layer_2" xmlns="http://www.w3.org/2000/svg" viewBox="0 0 10.67 31.77"><defs><style>.cls-1{fill:#30161b;}</style></defs><g id="Layer_1-2"><path class="cls-1" d="m8.71,31.12c-1.33.41-2.67.75-4.2.62-.04-2.17,1.73-4.59-1.57-4.74-.87.97-.07,2.1-.32,3.4-1.36-.65-1.76-1.88-2.62-2.98,1.98-.51,2.28-2.4,3.44-3.55-.22-2.62-.17-5.27-1.84-7.71,1.48-3.32-1.16-3.97-.05-6.59C2.78,6.55,4.22,3.66,5.59.72c.69-1.63,2.28-.07,3.15.64-.12.36-.23.68-.36,1.1.82,1.41-.23,2.12-1.36,2.78.3.28.48.45.61.57v2.65s.09.02.14.03c-.16.27-.32.54-.48.82.21.18.42.37.69.6.21-.75.41-1.47.64-2.3.71,1.93,1.37,3.73,2.07,5.64-.06.11-.19.32-.33.56.05.24.11.49.17.74-.05,0-.11-.01-.16-.02-.18.9-.36,1.79-.56,2.76-.46.16-1,.34-1.67.57.31,3.49-.42,6.64-.76,10.05-.31.15-.57.27-.95.45-.08.43-.17.93-.28,1.53.94.3,1.78.57,2.62.84-.02.14-.03.28-.05.41Z"/></g></svg>