<?xml version="1.0" encoding="UTF-8"?><svg id="Layer_2" xmlns="http://www.w3.org/2000/svg" viewBox="0 0 13.24 31.83"><defs><style>.cls-1{fill:#30161b;}</style></defs><g id="Layer_1-2"><path class="cls-1" d="m8.91,29.11c.23.74.47,1.49.75,2.38-1.68.17-3.11.65-4.68.04,1.02-1,2.6-1.62,1.73-3.42-.62.49-.62.76-.03,1.26-.99,1.25-2.59,1.47-3.91.56-.4.03-.78.07-1.32.11.44-.94.81-1.72,1.21-2.56C-1.34,24.15.08,17.83,1.1,13.36c.59-1.07-.2-1.83-.15-2.92,0-1.45-.36-2.71.9-3.74C.12,4.46.82,2.66,3.84,1.54c1.54-3.46,5.46-.4,3.48,2.57,6.38,3.52,1.91,11.71,2.48,17.43-.45-.16-.7-.24-1.13-.39.71,2.12,2.43,3.53,3.47,5.57.06-.02.24-.08.45-.16,1.37,1.09.44,4.08-1.36,4.59-.52-1.32.13-2.71-.3-3.77-.87-.67-1.6-1.23-2.41-1.86.1,1.28.2,2.46.29,3.64l.11-.04Z"/></g></svg>