<?xml version="1.0" encoding="UTF-8"?><svg id="Layer_2" xmlns="http://www.w3.org/2000/svg" viewBox="0 0 11.24 32.05"><defs><style>.cls-1{fill:#30161b;}</style></defs><g id="Layer_1-2"><path class="cls-1" d="m7.93,6.37c-.12.35-.21.62-.32.93h1.72c.42.46.69.76.95,1.06.07-.04.15-.07.22-.11.24,1.25.47,2.5.73,3.89-3.87,3.49-2.7,9.96-4.06,14.74-.86,1.51-1.27,3.16-.12,4.65-.81.63-1.86.72-2.62.11.46-.12.82-.21,1.19-.31,0-.06,0-.12,0-.17-.31-.09-.62-.18-1-.28.26-.84.51-1.66.73-2.4-.32-.35-.5-.54-.77-.83.49-1.84.33-3.72-.46-5.66-1.21.05-4.13,1.32-4.15-.71.32-1.98,0-4.13.76-5.99,1.37-2.12-1.52-4.58,1.65-5.55.05-.86.1-1.61.14-2.3,1.8-.35,3.56-.7,5.39-1.05Z"/><path class="cls-1" d="m4.59,3.42c-1.3-.93.35-2.01.68-3.12,2.18-1.24,4.44,1.69,2.45,3.36-1.01-.08-1.98-.15-3.14-.24Z"/></g></svg>