<?xml version="1.0" encoding="UTF-8"?><svg id="Layer_2" xmlns="http://www.w3.org/2000/svg" viewBox="0 0 11.72 18.51"><defs><style>.cls-1{fill:#30161b;}</style></defs><g id="Layer_1-2"><path class="cls-1" d="m10.03,8.16c-2.99,3.6,1.19,4.7-6.59,3,0-.07.01-.14.02-.21-.3.16-.59.33-1,.56C.83,7.15-2.79,6.75,3.84,4.5c.18.26.36.52.67.97C5.57,3.45,4.64-.31,7.94.02c2.73,1.02,2.18,5.66,2.09,8.14Z"/><path class="cls-1" d="m11.07,14.98c1.62,2.2,0,3.55-2.3,2.57-1.27,1.3-2.75,1.28-4.92-.03,2.01-1.99,4.76-1.7,7.21-2.53Z"/></g></svg>