<?xml version="1.0" encoding="UTF-8"?><svg id="Layer_2" xmlns="http://www.w3.org/2000/svg" viewBox="0 0 18.99 18.39"><defs><style>.cls-1{fill:#30161b;}</style></defs><g id="Layer_1-2"><path class="cls-1" d="m2.6,12.35c-.41-.13-.76-.24-1.1-.35-.33-.66.11-1.05.54-1.21,1.94-.69,2.9-2.47,4.24-3.81,1.7-1.29.43-3.75,1.21-5.49,1.52-3.66,4.94.33,6.01,2.38.4-.05.92-.11,1.53-.19,4.8,1.98,3.3,5.89,3.96,10.18-1.78,1.03-3.69.99-5.56,1.16-.16-.4-.26-.66-.39-.99-3.42.77-1.93-3.04-1.22-4.97-.77-.45-1.36-.79-1.94-1.13.02-.06.05-.11.07-.17-.26-.02-.51-.04-.57-.05-.57.4-.99.69-1.39.98-.37-.3-.59-.47-.85-.68-1.42,1.56-3.91,1.91-4.54,4.33Z"/><path class="cls-1" d="m3.28,17.69c-3.3,2.68-5.06-3.29-.63-1.93.66-.47.23-1.22.38-1.86.37.43.49,2.39.25,3.79Z"/></g></svg>