<?xml version="1.0" encoding="UTF-8"?><svg id="Layer_2" xmlns="http://www.w3.org/2000/svg" viewBox="0 0 20.26 33.54"><defs><style>.cls-1{fill:#30161b;}</style></defs><g id="Layer_1-2"><path class="cls-1" d="m6.26,31.74c-.83.62-1.63.91-2.69.44,1.2-1.23.74-2.31.12-3.63-.64-4.2-.22-8.78-1.76-12.74C-2.12,11.53.89,6.12,4.71,3.03c-.63-2.76.84-3.87,3.3-2.35-.08.77-.16,1.57-.27,2.69,4.28,2.51,4.51,7.96,4.93,12.33-1.88,2.54-.33,6.11-.53,9,.33.44.62.84.94,1.27.64.08,1.33.16,2.01.25-.01-.07-.03-.13-.04-.2,3.11-.77,3.02-1.12,5.22,1.18-.03.06-.06.12-.09.18-.39-.13-.78-.26-1.4-.47.31,1.79.61,3.48.9,5.16-.11.02-.22.05-.34.07-.7-.56-.13-1.54-.57-2.18-.45-.64-.91-1.27-1.37-1.9-1.87.84.1,3.07-.98,4.56-.62.32-1.22.62-1.82.92-.05-.08-.11-.15-.16-.23.22-.14.45-.29.64-.41.21-2.19.01-3.43-2.52-3.28-.39.81-.79,1.63-1.2,2.48.07-1,.14-2,.23-3.26-.81.2-1.38.33-1.87.45-.62,1.51-1.04,1.76-2.15,1.25,1.41-4.06-.25-7.73-1.45-11.72-1,4.45.23,8.71.15,12.92Zm4.46-15.61c-.28.03-.53.07-.79.1-.27,3.4-.26,6.49.26,9.8.22-.04.43-.07.6-.1.21-.43.42-.87.7-1.44.04.33.06.51.08.68.07,0,.15-.02.22-.03-.29-2.98.03-6.02-1.08-9.01Z"/></g></svg>