<?xml version="1.0" encoding="UTF-8"?><svg id="Layer_2" xmlns="http://www.w3.org/2000/svg" viewBox="0 0 6.67 33.21"><defs><style>.cls-1{fill:#30161b;}</style></defs><g id="Layer_1-2"><path class="cls-1" d="m5.6,1.1c-.19,1.08-.37,2.06-.53,2.95-.47.27-.82.46-1.18.67q.93.99.29,1.99c4.46,10.71-.69,13.86-.27,23.35.86.52,1.74,1.05,2.77,1.66-1.17.67-2.36.1-3.46.46.12.29.22.54.32.79-.88.54-2.63.1-3.3-.66-.29-7.86,2.66-11.49-.23-19.43.28-2.66-.62-5.88,1.16-8.1.94-1.07,1.03-1.22.39-2.46C.6,0,4.6-.9,5.6,1.1Z"/></g></svg>