<?xml version="1.0" encoding="UTF-8"?><svg id="Layer_2" xmlns="http://www.w3.org/2000/svg" viewBox="0 0 11.84 30.18"><defs><style>.cls-1{fill:#30161b;}</style></defs><g id="Layer_1-2"><path class="cls-1" d="m7.46,13.6c.31.46.67.99,1.02,1.51-.16.3-.29.53-.44.8.19.3.39.61.58.89-.1.46-.18.89-.3,1.45-1.96,1.28.36,5.28.2,7.38-.11,2.2,1.48,2.28,3.33,2.41-1.2,1.27-2.76,1.06-4.13,1.6-.74-3.42-1.48-6.48-3.05-9.61-1,2.93-2.4,5.59-2.6,8.51.77.36,1.34.62,1.91.89,0,.1,0,.2,0,.29-1.26.14-2.53.29-3.97.45.4-4.1,2.18-7.74,1.76-11.92-.41-.19-.79-.37-1.31-.62-.1-2.31,1-4.49.98-6.72C.85,8.42.81,2.55,3.23,1.11c.05-.25.09-.5.17-.9.91-.51,1.62,0,2.31.6-.16.46-.25.7-.34.96.89,1.31,1.11,2.67.17,4.12,1.46,2.33,1.61,4.96,1.93,7.7Z"/></g></svg>