<?xml version="1.0" encoding="UTF-8"?><svg id="Layer_2" xmlns="http://www.w3.org/2000/svg" viewBox="0 0 14.97 33.9"><defs><style>.cls-1{fill:#30161b;}</style></defs><g id="Layer_1-2"><path class="cls-1" d="m6.08,3.39c-.54-1.19-.89-2.26.03-3.39.37.32.7.62,1.11.99.83-.53,1.66-.27,2.64.33-.15.69-.31,1.44-.48,2.26-.09.06-.25.17-.48.34.27.62.52,1.21.77,1.78.57-.06.97-.11,1.43-.16,1.48,4.16,3.2,8.7,3.87,12.95-2.32,1.45-3.19,2.96-2.17,4.43-.35.28-.69.55-1.13.9-.34-.59-.63-1.1-.93-1.62-.07.03-.14.05-.2.08-.22,2.3-.75,4.85-1.49,6.95.21.61.37,1.06.56,1.62-.37.49-.69.93-1.02,1.37-.1-.1-.21-.21-.31-.31-.05.66.36,1.51-.21,1.99-1.31.04-1.72-.3-1.75-1.52-.07-2.43-.99-4.52-1.62-6.86-1.38,1.51-2.88,1.29-4.46.62-.86-2.3.69-4.23.94-6.54.09-.06.34-.22.67-.42-.94-4.62.73-9.55,1.37-14.09,1.05-.63,1.91-1.14,2.84-1.69Z"/></g></svg>