<?xml version="1.0" encoding="UTF-8"?><svg id="Layer_2" xmlns="http://www.w3.org/2000/svg" viewBox="0 0 10.02 29.69"><defs><style>.cls-1{fill:#30161b;}</style></defs><g id="Layer_1-2"><path class="cls-1" d="m.85,23.85c.26-3.54.53-7.08.79-10.65-3.71.94-.22-6.95,1.51-7.65-1.62-1.45-.87-3.02-.35-4.48,1.98-3.31,4.69,1.99,3.7,3.99,1.94.25,1.84,2.46,1.57,3.94,1.54,5.45,2.07,11.08,1.92,16.92-.7.22-1.42.43-2.24.68-.18.94-.37,1.9-.57,2.94-.23-.05-.43-.1-.63-.15-.11-.83-.22-1.6-.33-2.42h-1.32c-.08.77-.16,1.53-.26,2.46-.06.03-.27.15-.47.26-.26-1.05-.51-2.03-.71-2.85-.78-.31-1.38-.55-1.95-.77-.15-.76-.29-1.46-.42-2.16-.08-.02-.15-.05-.23-.07Z"/></g></svg>