<?xml version="1.0" encoding="UTF-8"?><svg id="Layer_2" xmlns="http://www.w3.org/2000/svg" viewBox="0 0 20.77 31.12"><defs><style>.cls-1{fill:#30161b;}</style></defs><g id="Layer_1-2"><path class="cls-1" d="m15.45,8.41c-.28-.16-.59-.32-.97-.53.05-.88.09-1.77.16-2.98-.19-.68-1.05-1.54-.8-2.74.81.25.52,1.54,1.59,1.59-.22-1.3-1.34-2.3-1.19-3.75.87.19.92.77,1,1.25.16,2.15,2.2,3.14,3.38,4.57.1,2.01-.03,3.24-.86,5.43.27.59,1.31,1.41,3,2.16-1.63,3.33.58,3.96-2.73,6.77-.8,2.58-1.85,5.08-1.91,7.81-.15,1.05.72,2.22-.12,3.13-2-4.37-.58-9-1.61-13.73-2.64-.28-5.27.74-7.52-.8-2.02-1.8-5.15-2.13-6.88-4.31.57-.19,1.06-.04,1.71.64,1.14,1.21,2.72,1.64,4.13,2.36,1.25.93,2.49,1.01,3.95.7,1.22-.06,2.21.08,3.47-.23-.25-.59-.44-1.04-.67-1.59,1.46-.54,2.88-1.08,4.41-1.65.03-1.4-.98-2.65-1.55-4.09Z"/></g></svg>