<?xml version="1.0" encoding="UTF-8"?><svg id="Layer_2" xmlns="http://www.w3.org/2000/svg" viewBox="0 0 7.46 19.67"><defs><style>.cls-1{fill:#30161b;}</style></defs><g id="Layer_1-2"><path class="cls-1" d="m4.79,19.34c-.54.12-.96.22-1.41.33-.13-2.03-.54-3.79-1.32-5.44-.57.02-.94,0-1.43-.13-.76-2.4,1.56-4.43,1.08-7.09-.8,1-.45,2.44-1.67,3.3-.14-2.23.04-4.19,1.25-5.57C1.78,2.94.96.4,3.08.02c1.31-.21,1.99,1.04,2.07,2.17.28,1.86-1.84,1.2-3.07,1.65.39.41.63.66.93.98.73.13,1.58.28,2.49.43.05,1.11.05,2.16.69,2.61.39,1.23.68,2.14.98,3.05.1,0,.2,0,.3,0-.23.42-.47.83-.78,1.39.02.11.06.4.11.74h-.88c.18,1.78-.64,3.55.85,4.94-.6.25-1.13.47-1.68.7-.21-1.55-.39-2.88-.57-4.21l-.36.04c-.26,1.56-.2,3.1.64,4.82Z"/></g></svg>