<?xml version="1.0" encoding="UTF-8"?><svg id="Layer_2" xmlns="http://www.w3.org/2000/svg" viewBox="0 0 14.94 14.99"><defs><style>.cls-1{fill:#30161b;}</style></defs><g id="Layer_1-2"><path class="cls-1" d="m9.17,4.25c2.36.97,1.84,3.81,2.92,5.97,5.3.77,2.16,2.69-.97,3.77-.53,1.66-2.13,1.16-3.1-.9-3.37,4.21-3.09-1.02-8.01-.05-.18-2.11,2.09-1.65,3.45-1.67,0-.06.01-.13.02-.19.22.12.43.23.8.43-.64-2.86.05-5.37-.19-8.17-.1-.04-.21-.08-.31-.12.64-.95,1.16-2.02,1.93-2.84,1.03-1.08,3.63-.2,3.92,1.26.03.83-.31,1.65-.46,2.51Z"/></g></svg>