<?xml version="1.0" encoding="UTF-8"?><svg id="Layer_2" xmlns="http://www.w3.org/2000/svg" viewBox="0 0 16.96 31.56"><defs><style>.cls-1{fill:#30161b;}</style></defs><g id="Layer_1-2"><path class="cls-1" d="m16.96,16.94c-.51.33-.85.54-1.27.81-.08,2.01,1.44,3.98.24,6.25-.22.11-.62.32-1.2.62-.17,2.41-1.63,5.28,1.9,5.77-.25.96-2.36,1.46-4.1,1v-5.59c-2.03,1.54-1.77,3.43-1.09,5.38-1.15.23-1.84-.27-2.49-.87-1.53.18-3.03.35-4.72.54.07-.69.12-1.16.16-1.64-.03,0-.06.01-.09.02-.74-3.18.46-6.5-.28-9.7-1.64-1.17-.68-3.75-1.14-5.53-4.2-.07-3.13-5.57-1.13-7.83.22-.03.48-.06.52-.06,1.03-1.19,1.95-2.24,2.87-3.3.08.06.15.11.23.17C5.88,1.48,6.22-.35,8.13.06c1.41.01,1.61,1.29,1.78,2.51.81-3.94,4.75-1.67,4.09,1.5-.42,1.77,1.49,2.99.72,4.66-.62,2.96,1.23,5.5,2.23,8.21Zm-8.45,3.95c-.27-1.1-.72-1.56-1.56-1.43-.43,2.24-.68,4.52-.46,6.83.65-1.74,1.3-3.48,2.02-5.4Z"/></g></svg>