<?xml version="1.0" encoding="UTF-8"?><svg id="Layer_2" xmlns="http://www.w3.org/2000/svg" viewBox="0 0 11.64 33.94"><defs><style>.cls-1{fill:#30161b;}</style></defs><g id="Layer_1-2"><path class="cls-1" d="m4.19,22.27c2.13,2.3,4.23,4.08,7,5.63-.39.67-.76,1.3-1.15,1.98.7.32,1.11.02,1.41-.63.07.07.13.14.2.21-.76,1.15-1.51,2.3-2.27,3.45-.07-.02-.15-.04-.22-.07,1.23-4.22-2.98-5.36-5.71-7.59.02,2.61-.24,4.98.52,7.53-.77-.1-1.5-.2-2.41-.33.32.48.56.84.84,1.26-.49.08-.93.16-1.33.23-.36-.29-.67-.54-1.05-.84,2.73-1.35.9-5.32.78-7.67-.73-1.99.53-3.83-.13-5.75-.06-2.23,1.4-4.37.67-6.74-.23-1.05.3-2.33.17-3.38-1.33-1.82,1.69-3.22.24-4.89H.51C-1.01-1.14,6.54-1.6,4.23,3.69c1.25,1.74,3.54,3.63,3.09,5.98-1.3,2.86.64,5.98-1.46,8.63-.78,1.07-1.08,2.49-1.68,3.96Z"/></g></svg>