<?xml version="1.0" encoding="UTF-8"?><svg id="Layer_2" xmlns="http://www.w3.org/2000/svg" viewBox="0 0 17.09 33.75"><defs><style>.cls-1{fill:#30161b;}</style></defs><g id="Layer_1-2"><path class="cls-1" d="m9.37,33.44c.37-.69.71-1.32,1.01-1.87-.79.14-1.51.26-2.22.39-.08-.12-.15-.23-.23-.35.5-.78,1-1.56,1.34-2.1-.7-5.41-1.36-10.57-2.03-15.74-.1-.01-.21-.02-.31-.04-.57,1.31-2,2.17-1.81,4.13,3.68,1.25,2.36,2.24,1.8,5.48-.09.1-.28.31-.42.46-.25,2.75.78,5.82-.99,8.12-1.3-.85-2.55-.77-3.89-.16-3.34-1.54-.35-10.21-1.09-13.66.59-.08,1.09-.15,1.72-.24v-1.81c4.64-2.09,2.63-8.04,6.01-10.99-.12-.62-.23-1.19-.32-1.67-.47-.26-.82-.47-1.41-.79.54-.34.88-.56,1.27-.81C8.66-.07,8.99-.24,11.05.21c.17.44.38.94.58,1.45.34.05.67.1,1,.15.02.07.04.13.06.2-.32.19-.64.37-1.03.59.29,1.04.57,2.07.88,3.19.93.12,1.81.23,2.95.37.5,1.67,1.04,3.48,1.59,5.31-.4.23-.67.39-1,.59.03.26.07.53.12.99-2.13,1.93-1.45,4.94-2.46,7.37-.08-.02-.16-.05-.24-.07-.78,2.75.74,15.55-4.14,13.09Z"/></g></svg>