<?xml version="1.0" encoding="UTF-8"?><svg id="Layer_2" xmlns="http://www.w3.org/2000/svg" viewBox="0 0 11.25 33.41"><defs><style>.cls-1{fill:#30161b;}</style></defs><g id="Layer_1-2"><path class="cls-1" d="m8.92,11.6c-.15-.17-.27-.31-.52-.6.28,1.28.52,2.36.76,3.43.09,0,.17-.01.26-.02.17-.22.33-.44.57-.76.09.46.16.85.23,1.21.36.18.7.35,1.02.52-.37.65-.67,1.19-1.02,1.81.33.17.64.34.95.5l-.02.16h-1.78c-.1,1.23-.04,2.2-.57,3.34-.34,3,1.04,6.16.14,9.25.28.23.51.41.9.72-.2.71-.42,1.49-.63,2.24h-2.27c2.2-3.85-.25-7.94-1-11.88h-1.47c-.13,3.19-2.44,6.3-1.7,9.35-.23.54-.42.99-.63,1.47-.07-.16-.14-.33-.22-.53-.64.25-1.29.68-1.93-.09,2.32-3.74,2.21-10.62,1.42-14.84-.14-4.48.22-9.15,1.07-13.6.56-5.35,4.63-3.5,5.09.8.2.66.42,1.25,1.12,1.58,1.15,1.52.6,4.11.22,5.93Z"/></g></svg>