<?xml version="1.0" encoding="UTF-8"?><svg id="Layer_2" xmlns="http://www.w3.org/2000/svg" viewBox="0 0 10.4 31.02"><defs><style>.cls-1{fill:#30161b;}</style></defs><g id="Layer_1-2"><path class="cls-1" d="m6.82.85c.88,1.2-.83,2.91.88,3.61-.05.39-.09.75-.15,1.19h1.39c3.47,4.69-.35,10.41-.26,15.65-.67,2.15,1.75,10.31-2.28,8.84-.56.31-1.11.62-1.56.87-1.16-.73-.15-1.54-.45-2.31-.61-.17-1.27-.35-1.98-.55,1.8-4.49-1.37-9.45-.94-14.28-.27-.13-.52-.26-.94-.47C-1.92,5.49,5.04,5.34,2.97,1.14c.28-.38.55-.75.84-1.14.97.27,1.93.55,3,.85Z"/></g></svg>