<?xml version="1.0" encoding="UTF-8"?><svg id="Layer_2" xmlns="http://www.w3.org/2000/svg" viewBox="0 0 10.78 31.42"><defs><style>.cls-1{fill:#30161b;}</style></defs><g id="Layer_1-2"><path class="cls-1" d="m8.03,4.15c-.42.18-.68.29-1.1.46.39.74.75,1.44,1.19,2.29.56-.37,1.06-.7,1.61-1.06.86,1.32-.06,2.02-1.18,2.45-.48,4.66,1.09,9.27.36,13.94-.39,3-2.84,7.58,1.88,8.01-.48.97-2.81,1.34-4.75.85-.45-.47-.21-.96,0-1.45.34-.82.28-3.36-.12-4.28-2.41,1.32-3.35,3.33-2.85,5.98-1.98.57-2.08-2.66-3.05-3.85.47-.3.75-.62,1.04-.64,2.22-.53,3.17-2.94,4.87-4.29,1.03-1.94-1.19-4.57-2.03-6.38-.48-.12-.87-.21-1.46-.36.66-3.38-.57-7.24,1.53-10.16,1.01-1.18-.12-2.47.06-3.81-.01-1.74,2.16-2.37,3.43-1.43.79.94.33,2.51.59,3.72Z"/></g></svg>