<?xml version="1.0" encoding="UTF-8"?><svg id="Layer_2" xmlns="http://www.w3.org/2000/svg" viewBox="0 0 16.68 34.3"><defs><style>.cls-1{fill:#30161b;}</style></defs><g id="Layer_1-2"><path class="cls-1" d="m16.4,30.17c-1.92.95-3.65.44-5.47.34-.45,1.61-.18,3.92-2.7,3.04-.05-3.03.76-6.11.61-9.21-.12-.03-.24-.06-.36-.09-.95,1.31-.97,13.75-3.76,8.95.18-1.26,1.2-2.32.27-3.62-7.32,3.78-4.4-3.64-4.6-7.94,1.1-.3,2.01-.55,2.91-.8.03-.07.07-.13.1-.2-2.62-2.65-.71-10.58.6-13.85,1.23.11,1.27.09,1.63-.6.49-.13.92-.24,1.46-.39.13.07.35.19.73.41.19-.32.38-.65.57-.98.07.04.15.08.22.13.02.23.04.46.08.87,1,.22,2.03.45,3.28.73.39,1.35.93,2.71,1.6,4.04-.13.09-.33.23-.66.46.29.33.56.65.87,1-.19.1-.34.18-.48.25.38,1.21,1.01,2.4,1.48,3.6.06-.02.12-.04.18-.07.05.34.09.69.14,1.03h-.2c-1.21,4.8,2.82,7.87,1.49,12.88Z"/><path class="cls-1" d="m10.13,3.71c-.3.2-.59.41-.89.61.02.06.04.11.07.17h-2.58c.74-.54.48-1.12.27-1.75-.89-3.87,4.51-3.72,3.39.98-.08,0-.17,0-.25-.01Z"/></g></svg>