<?xml version="1.0" encoding="UTF-8"?><svg id="Layer_2" xmlns="http://www.w3.org/2000/svg" viewBox="0 0 11.51 31.17"><defs><style>.cls-1{fill:#30161b;}</style></defs><g id="Layer_1-2"><path class="cls-1" d="m7.35,28.59c.01.1.04.32.09.75-.54-.18-.95-.32-1.41-.47v2.1c-.43.06-.86.12-1.46.2-.76-3.01-1.32-6.43-1.52-9.49-.65-.41-1.13-.72-1.58-1,.09-2.54.17-4.96.25-7.3-2.98-1.66-1.35-4.94-.56-7.48,1.35-.44,2.5-.99,2.96-2.35-2.07-5.1,4.98-4.55,2.67.7,1.09.84,2.62.88,3.01,2.23.91,3.22,1.96,6.5,1.66,9.88h-1.46c-.35-1.98-.71-4.01-1.07-6.04-.09.01-.17.02-.26.03.93,6.07,1.89,12.64-1.33,18.24Zm-1.43-1.5c.88-2.47,1.21-4.77,0-7.06-.02,2.31-.42,4.61,0,7.06Z"/></g></svg>