<?xml version="1.0" encoding="UTF-8"?><svg id="Layer_2" xmlns="http://www.w3.org/2000/svg" viewBox="0 0 11 33.3"><defs><style>.cls-1{fill:#30161b;}</style></defs><g id="Layer_1-2"><path class="cls-1" d="m11,16.53c-.16.17-.33.37-.48.54.05,1.31,0,1.4-.93,1.9-.27-.07-.57-.15-1-.26-1.29,3.56.29,6.89.99,10.33-.36.27-.61.45-.89.67.16.67.31,1.32.47,2.01-.41.17-.7.29-1.04.42-.05.29-.1.6-.15.9-.99.47-2.76.31-3.49-.36.95-.7,1.87-.91,1.33-2.29-1.28-3.98-2.28-8.11-3.66-12.02-.08.02-.16.04-.24.07-.11.61-.23,1.22-.34,1.83-.07.04-.14.08-.22.12-2.73-3.73-.48-9.41-.23-13.73.33-1.14,2.09-1.26,2.52-2.2C3.14,2.89,1.65.51,4.02.03c1.96-.32,1.88,1.92,1.97,3.29-.64.16-1.09.27-1.55.38,1.75-.12,2.91,1.3,4.46,1.6,2.02,3.35,1.43,7.45,2.11,11.23Z"/></g></svg>