<?xml version="1.0" encoding="UTF-8"?><svg id="Layer_2" xmlns="http://www.w3.org/2000/svg" viewBox="0 0 7.68 26.18"><defs><style>.cls-1{fill:#30161b;}</style></defs><g id="Layer_1-2"><path class="cls-1" d="m3.77,24.4c.31.19.7.43,1.23.76.28-.03.7-.08,1.25-.15.09.11.26.29.58.65-3,1.13-5.47.49-6.58-2.62.3-.21.54-.39.8-.57.7.49,1.32.93,1.98,1.38-1.28-3.37,3.49-7.67-3.02-7.36.34-1.59.63-2.97.96-4.5,3.79.69,7.02,2.19,6.7,6.61-1.86,1.55-3.18,3.41-3.89,5.81Z"/><path class="cls-1" d="m5.11,9.18c-1.46-.81.06-3.99-.14-5.75-.79.12-1.38.21-2.18.34-.66-.68-.08-1.75-.4-2.58C3.51-.94,6.19.05,5.98,2.15c-.35,2.34-.58,4.7-.87,7.04Z"/><path class="cls-1" d="m1.01,6.82c.52-.03.98-.06,1.54-.1.04.33.09.66.12.92-.68.99-1.3,1.9-1.91,2.81-1.02-.64-.82-2.43.25-3.64Z"/></g></svg>