<?xml version="1.0" encoding="UTF-8"?><svg id="Layer_2" xmlns="http://www.w3.org/2000/svg" viewBox="0 0 11.76 32.33"><defs><style>.cls-1{fill:#30161b;}</style></defs><g id="Layer_1-2"><path class="cls-1" d="m5.61,5.81c.25.02.53.05,1.07.1-.42-1.57-.27-3.13-1.1-4.53C5.63-.07,7.2-.06,8.3.04c1.47.26,1.71,1.02.89,2.43-.02,1.29-.15,1.99-.59,3.26.74.82,2.39,1.01,2.39,2.33-.18,4.06,2.11,8.99-.44,12.5.58,2.88-.77,5.5-1.23,8.2.24,1.05,1.35,1.96.51,2.76-1.58-.25-1.45-1.94-2.53-2.64.19,1.05.37,2.07.58,3.25-.76.09-1.34.15-1.92.22l-.08-.27c.3-.12.6-.24,1.11-.45.06-.11.23-.4.4-.7-.07-.05-.14-.1-.21-.16-.24.08-.47.15-.74.24-.27-1.16-.54-2.3-.8-3.44-.08,0-.17,0-.25,0-.2.65-.4,1.31-.6,1.96-.1,0-.19,0-.29.01-.2-.42-.4-.84-.59-1.22-1.04-.21-2.06-.42-3.13-.65v-1.5c-.63-.45-1.19-1-.42-1.6,1.17-1.17,1.71-2.89,2.25-4.41,1.36-4.49-1.4-11.41,2.98-14.36Z"/></g></svg>