<?xml version="1.0" encoding="UTF-8"?><svg id="Layer_2" xmlns="http://www.w3.org/2000/svg" viewBox="0 0 14.43 32.46"><defs><style>.cls-1{fill:#30161b;}</style></defs><g id="Layer_1-2"><path class="cls-1" d="m9.64,32.46h-1.8c.27-1.6.71-3.04.35-4.45-.78-.1-1.46-.19-2.38-.31-.51,1.38-.44,2.99-.63,4.5h-1.87c.53-1.42,1.47-2.6.75-4.17-.62-.27-1.37-.61-2.23-.99.51-1.12.97-2.14,1.44-3.16.04.02.08.03.11.05,1.44-4.77-.09-3.18-3.39-4.84.24-1.53.46-2.9.69-4.33.26-.11.54-.24.83-.36.47-1.28-1.3-1.17-1.27-2.26.34-.04.72-.08,1.1-.12.27-.47.55-.94.84-1.44.48-.06,1.05-.13,1.73-.21-.08-3.13-.45-4.12,3.03-4.66C5.62,3.5,4.26.09,8.06,0c3.21-.14,3.75,4.06.87,5.02-.11.81.47.99.92,1.29,3.26,1.06.92,4.46,1.41,6.81.84-.07,1.76-.1,2.59-.08q.38.61-.06,1.73c.17.23.38.5.64.86-.32.88-.08,2.04-1.31,2.85-.22-.51-.41-.95-.62-1.43-.42-.06-.9-.14-1.37-.21-.51,5.26-2.1,10.33-1.48,15.62Z"/></g></svg>