<?xml version="1.0" encoding="UTF-8"?><svg id="Layer_2" xmlns="http://www.w3.org/2000/svg" viewBox="0 0 22.67 33.5"><defs><style>.cls-1{fill:#30161b;}</style></defs><g id="Layer_1-2"><path class="cls-1" d="m11.46,3.25c1.86-1.01,2.6-2.87,4.67-.99,1.29,1.11,3.2,2.11,3.37,4-.96-.75-1.86-1.21-3.07-.11.54.27.94.48,1.37.7-.09.16-.22.37-.39.67.63.94.18,2.28,1.09,3.2.32-.06.57-.11.79-.16,1.26.63.39,2.04,1.13,3.06.34-1.86-.03-3.48-.41-5.11,1.4.95,2.29,3.29,2.61,5.09.25,1.86-1.77,2.64-2.78,3.83.1.44.17.75.27,1.21-.53.18-1.04.35-1.69.57.19.31.34.56.48.78-.81,2.74.65,5.45.74,8.21,0,1.28-.32,2.63.42,3.77-1.33,1.32-4.03,1.95-5.08,1.2.07-.22.15-.45.19-.59-.22-.3-.4-.56-.6-.83.95-.39,1.72-.71,2.68-1.11-.84-3.49-3.71-6.19-2.89-9.74-.28-.16-.54-.31-1.02-.58-1.02,4.79,2.11,17.26-6.71,10.87.45-6.12,1.93-12.91.24-18.78-.11.04-.23.08-.34.11-.39,3.85.99,8.06-.94,11.47-1.99-.2-1.78,2.3-2.46,3.69-.64,1.31-.08,2.1.69,3.22-.48.13-.9.25-1.4.39-.24-.47-.43-.84-.68-1.34-.27-.11-.64-.26-1.08-.44-.15-.49-.31-1.03-.48-1.58-.07-.02-.13-.03-.2-.05.43-1.35.86-2.71,1.33-4.16-.36-.4-.78-.87-1.06-1.18C.87,17.46.22,1.8,8.11,3.58,7.45,1.87,7.78-.03,9.92,0c1.81-.04,1.31,1.92,1.54,3.25Z"/></g></svg>