<?xml version="1.0" encoding="UTF-8"?><svg id="Layer_2" xmlns="http://www.w3.org/2000/svg" viewBox="0 0 16.55 33.32"><defs><style>.cls-1{fill:#30161b;}</style></defs><g id="Layer_1-2"><path class="cls-1" d="m4.37,17.42c-1.46,1.22.47,2.71-.97,3.87-1.82-1.84.44-4.9.01-7.18-.36-.41-.61-.7-.86-.98.03-.05.07-.11.1-.16.56.33,1.12.66,1.6.94,1.9-1.01,1.09-2.67,1.07-4.12.08,0,.15-.01.23-.02.15.35.31.7.5,1.13.36-.06.72-.13,1.03-.18.51-.72.96-1.37,1.38-1.96-.59-1.41-1.92-1.19-2.91-1.54v-3.29H0C2.84-.6,13.23-1.38,16.55,2.46c-.47.06-.88.11-1.44.17.26.34.45.6.65.87-1.92-1.32-3.89-.06-6.12.04.32,1.42.35,3,1.18,4.2-2.8-.37-3.33,4.56-4.85,6.33.47.57.99,1.19,1.6,1.92h-1.32c-.11.21-.24.46-.35.67,1.32,1.21,3.79-.12,5.36.09.12,3.9-1.04,7.44-.07,11.35,0,1.72,2.61,4.23.33,5.21-1.66-3.82-3.58-8.11-3.46-12.89-.09.01-.19.03-.28.04v11.42c-.36.08-.76.17-1.18.27-1.29-4.8-.85-9.88-2.22-14.73Z"/><path class="cls-1" d="m11.23,8.99c.09.45.18.9.3,1.46.23.12.55.3.85.46.55,1.77.37,2.34-.98,2.61-.17-1.51-.33-2.99-.5-4.48.11-.02.22-.04.32-.05Z"/></g></svg>