<?xml version="1.0" encoding="UTF-8"?><svg id="Layer_2" xmlns="http://www.w3.org/2000/svg" viewBox="0 0 13.96 30.77"><defs><style>.cls-1{fill:#30161b;}</style></defs><g id="Layer_1-2"><path class="cls-1" d="m10.44,15.1c-.08,2.06.89,3.83-.09,5.65-.3,1.02.54,2.31-.98,2.79.22,2.21-.99,4.3-.12,6.55-.94.24-1.7.43-2.69.68.32-3.28.56-4.52-1.66-7.16-1.24-.27-2.28-.5-3.42-.75.15-.95.27-1.75.41-2.59-.42-.19-.8-.37-1.36-.62.78-4.06,1.56-8.11,2.36-12.26-5.59-.21-1.65-4.35.26-6.55.42.19.81.38,1.48.69-1.41.85-2.99,1.4-2.07,3.39.62-.42,1.25-.84,1.98-1.33.15-1.29.15-2.8,1.7-3.59,1.24.66,3.31,1.65,2.36,3.56,3.2,2.62.77,6.24,5.38,8.87-.13.85-.29,1.83-.46,2.93-.13.06-.44.2-.82.37-.64-.18-1.33-.37-2.24-.63Z"/></g></svg>