<?xml version="1.0" encoding="UTF-8"?><svg id="Layer_2" xmlns="http://www.w3.org/2000/svg" viewBox="0 0 13.29 32.53"><defs><style>.cls-1{fill:#30161b;}</style></defs><g id="Layer_1-2"><path class="cls-1" d="m3.88,24.03c-1.15,1.05-2.34.1-3.48.11-.58-1.73-.82-4.21,1.43-4.91.15-.56.34-1.25.54-1.98-3.35-.7.85-12.96,3.43-13.08C5.86,2.63,5.35.09,7.42,0c.87-.04,1.74.79,1.75,1.82-.14,2.35,1.8,2.54,3.51,3.43.08,1.84,2.06,6.48-1.55,5.37.5,2.05.97,3.98,1.41,5.8-3.11,1.72-1.78,6.28-2.32,9.33-.19,2.01-.95,3.66-.56,5.76-.48.43-1.23.29-1.85.16-.57.32-1.05.58-1.52.84-.75-.71-.78-1.49-.56-2.16.57-2.25-1.32-4.23-1.86-6.35Z"/></g></svg>