<?xml version="1.0" encoding="UTF-8"?><svg id="Layer_2" xmlns="http://www.w3.org/2000/svg" viewBox="0 0 10.27 31.37"><defs><style>.cls-1{fill:#30161b;}</style></defs><g id="Layer_1-2"><path class="cls-1" d="m5.91,30.58c.34.15.54.24.96.43-1.77.73-3.33.08-5.01.21.43-3.27.17-6.14.96-9.36-.7-.44-1.38-.86-2.14-1.33,1.63-4.13-2.87-15.36.8-15.66C-.87,1.3,2.57-2.48,5.34,2.13c.24-.4.38-.65.56-.96.64.09,1.23.18,1.91.27.17.58.33,1.12.51,1.75,2-.23,2.54,3.5,1.24,4.4-.75.42-1.62.65-2.61,1.03.42,3.16-.44,6.45,1.14,9.43-.33.37-.53.58-.7.77v2.02c-.43.18-.75.51-1.18.5-.12,3.1-1.31,6.12.91,8.8-.22.08-.64.23-1.21.44Zm-1.35-25.98c1.04.48,2,.92,3.07,1.41.11-.52.18-.83.26-1.21.07.31.12.55.17.78.73-2.72-2.42-3.5-3.5-.98Z"/></g></svg>