<?xml version="1.0" encoding="UTF-8"?><svg id="Layer_2" xmlns="http://www.w3.org/2000/svg" viewBox="0 0 12.19 33.62"><defs><style>.cls-1{fill:#30161b;}</style></defs><g id="Layer_1-2"><path class="cls-1" d="m4.65,4.6c-3.83-5.56,5.98-6.64,2.03-.08,1.31,1.29,3.62.93,3.8,3.26.49,4.46,1.62,8.72,1.71,13.25-.39.18-.74.34-1.07.49-.96-1.03-1.3-2.33-.72-3.1-.33.03-.55.06-.84.09-.77,4.13-.47,8.26-1.29,12.36.35.29.66.55.95.79-.29.74-1.96,1.13-3.04.72-.11-4.01.33-8.08-.36-12.09-1.02,4.3-1.64,8.62-1.01,12.91-1.26.8-2.25.4-2.17-.81-.31-4.7-.31-9.46-1.04-14.09-.4-.2-.68-.34-.76-.37C-.19,13.66-1.38,4.92,4.65,4.6Z"/></g></svg>