<?xml version="1.0" encoding="UTF-8"?><svg id="Layer_2" xmlns="http://www.w3.org/2000/svg" viewBox="0 0 9.41 33.76"><defs><style>.cls-1{fill:#30161b;}</style></defs><g id="Layer_1-2"><path class="cls-1" d="m9.04,31.27c-.41.41-.71.7-1.05,1.03.17.21.35.42.57.68-1.25,1.76-5.36.24-4.87-1.7.34-3.36-.2-6.86-.26-10.23-.76-2.03-.86-4.02-.73-6.17-5.81.04-.23-6.51-1.62-9.78.5-.51,1.03.19,1.54.27,1.12-.87,3.73-1.36,2.07-3.44-.24-2.49,4.43-2.48,4.47-.48-.31,1.31-.57,2.39-.78,3.27-.67.41-1.16.7-1.61.98.18.94.32,1.74.5,2.66.39.06.77.12,1.28.2.2.19.51.48.87.83-.58.5-1.08.94-1.68,1.47v5.47s.06.01.09.02c-.22,4.2-1.31,8.28-1.54,12.46-.16,2.33.83,2.02,2.76,2.45Z"/></g></svg>