<?xml version="1.0" encoding="UTF-8"?><svg id="Layer_2" xmlns="http://www.w3.org/2000/svg" viewBox="0 0 166.28 8.88"><defs><style>.cls-1{fill:#bed964;}</style></defs><g id="Layer_1-2"><path class="cls-1" d="m8.86,8.63h-1.76v-3.48H1.76v3.48H0V.24h1.76v3.42h5.35V.24h1.76v8.4Z"/><path class="cls-1" d="m12.77,6.3v2.34h-1.41v-2.34L10.19.24h1.41l.46,3.77.46-3.77h1.41l-1.17,6.06Z"/><path class="cls-1" d="m15.27.24h3.98c1.41,0,2.57.4,3.5,1.18.91.79,1.38,1.8,1.38,3.02s-.46,2.23-1.38,3.01c-.93.79-2.1,1.19-3.5,1.19h-3.98V.24Zm1.76,1.5v5.4h2.22c1.9,0,3.12-1.06,3.12-2.7s-1.22-2.7-3.12-2.7h-2.22Z"/><path class="cls-1" d="m28.63.24v.96h-2.11v2.7h1.83v.96h-1.83v2.82h2.11v.96h-3.24V.24h3.24Z"/><path class="cls-1" d="m37.49,5.52v3.12h-1.27V.24h4.22c.49,0,.9.14,1.25.43.34.29.51.65.51,1.07v2.28c0,.85-.75,1.5-1.74,1.5h-2.97Zm0-4.2v3.12h2.95c.3,0,.49-.17.49-.42V1.74c0-.25-.2-.42-.49-.42h-2.95Z"/><path class="cls-1" d="m42.9,8.63l.63-8.4h.77l.63,8.4h-.56l-.1-1.44h-.73l-.08,1.44h-.56Zm.89-5.28l-.14,2.4h.55l-.15-2.4h-.25Z"/><path class="cls-1" d="m52.92,8.63l-1.84-3.08h-3.04v3.08h-1.76V.24h5.15c.93,0,1.72.25,2.35.76.63.52.94,1.14.94,1.87,0,1.05-.7,1.98-1.83,2.41l2.12,3.36h-2.1Zm-4.88-6.9v2.33h3.35c1.01,0,1.58-.48,1.58-1.16s-.56-1.16-1.58-1.16h-3.35Z"/><path class="cls-1" d="m66.48,8.63h-2.74l-2.91-4.13-1.94,1.66v2.47h-2.18V.24h2.18v3.47L62.96.24h3.02l-3.49,2.91,3.98,5.48Z"/><path class="cls-1" d="m76.05.24v8.4h-.63v-3.9h-1.13v3.9h-.63V.24h.63v3.96h1.13V.24h.63Z"/><path class="cls-1" d="m78.79.24v8.4h-1.62V.24h1.62Z"/><path class="cls-1" d="m80.2,3.74h4.32v1.26h-4.32v-1.26Z"/><path class="cls-1" d="m87.68,8.63h-1.34V.24h7.03v1.14h-5.7v2.38h5.56v1.13h-5.56v3.75Z"/><path class="cls-1" d="m97.17,8.63h-1.76V.24h1.76v8.4Z"/><path class="cls-1" d="m108.21.24v8.4h-1.06v-3.96h-.98v3.96h-1.06V.24h1.06v3.54h.98V.24h1.06Z"/><path class="cls-1" d="m111.3.24l1.13,8.4h-1.13l-.18-1.56h-1.05l-.17,1.56h-1.13l1.13-8.4h1.41Zm-.7,2.01l-.44,3.92h.86l-.42-3.92Z"/><path class="cls-1" d="m116.23.24v8.4h-1.13l-1.05-4.82v4.82h-1.06V.24h1.13l1.05,4.82V.24h1.06Z"/><path class="cls-1" d="m120.16,7.62c0,.68-.39,1.02-1.2,1.02h-1.9V.24h1.9c.8,0,1.2.34,1.2,1.02v6.36Zm-1.06-6.36c0-.08-.04-.12-.14-.12h-.84v6.6h.84c.1,0,.14-.04.14-.12V1.26Z"/><path class="cls-1" d="m121.78,8.63V.24h5.87c.94,0,1.7.23,2.28.67.58.44.87,1.03.87,1.76s-.31,1.34-.91,1.75c.6.42.91,1.01.91,1.76s-.3,1.32-.87,1.76c-.58.46-1.34.68-2.28.68h-5.87Zm2.18-5.12h3.52c.76,0,1.14-.23,1.14-.7s-.38-.72-1.14-.72h-3.52v1.42Zm0,3.26h3.5c.77,0,1.15-.24,1.15-.71s-.38-.71-1.15-.71h-3.5v1.42Z"/><path class="cls-1" d="m133.99,1.23c1-.83,2.24-1.23,3.73-1.23s2.74.41,3.74,1.23c1,.83,1.49,1.9,1.49,3.2s-.49,2.36-1.49,3.19c-1,.83-2.25,1.25-3.74,1.25s-2.76-.41-3.74-1.24c-1-.83-1.49-1.9-1.49-3.2s.51-2.38,1.51-3.2Zm5.92,1.34c-.58-.48-1.31-.72-2.2-.72s-1.6.24-2.18.73c-.58.49-.87,1.12-.87,1.85s.3,1.38.87,1.86c.58.48,1.29.72,2.18.72s1.62-.25,2.2-.74c.58-.49.86-1.1.86-1.83s-.28-1.38-.86-1.86Z"/><path class="cls-1" d="m145.86,1.23c1-.83,2.24-1.23,3.73-1.23s2.74.41,3.74,1.23c1,.83,1.49,1.9,1.49,3.2s-.49,2.36-1.49,3.19c-1,.83-2.25,1.25-3.74,1.25s-2.76-.41-3.74-1.24c-1-.83-1.49-1.9-1.49-3.2s.51-2.38,1.51-3.2Zm5.92,1.34c-.58-.48-1.31-.72-2.2-.72s-1.6.24-2.18.73c-.58.49-.87,1.12-.87,1.85s.3,1.38.87,1.86c.58.48,1.29.72,2.18.72s1.62-.25,2.2-.74c.58-.49.86-1.1.86-1.83s-.28-1.38-.86-1.86Z"/><path class="cls-1" d="m166.28,8.63h-2.74l-2.91-4.13-1.94,1.66v2.47h-2.18V.24h2.18v3.47l4.08-3.47h3.03l-3.49,2.91,3.98,5.48Z"/></g></svg>