<?xml version="1.0" encoding="UTF-8"?><svg id="Layer_2" xmlns="http://www.w3.org/2000/svg" viewBox="0 0 2077.04 1197.79"><defs><style>.cls-1{letter-spacing:-.07em;}.cls-1,.cls-2,.cls-3,.cls-4,.cls-5,.cls-6,.cls-7,.cls-8,.cls-9{font-family:HelveticaNeue-Medium, 'Helvetica Neue';font-weight:500;}.cls-1,.cls-2,.cls-4,.cls-5,.cls-6,.cls-10,.cls-9{stroke:#231f20;}.cls-1,.cls-2,.cls-4,.cls-5,.cls-6,.cls-9{stroke-linejoin:round;stroke-width:3px;}.cls-11{letter-spacing:.02em;}.cls-11,.cls-12,.cls-13,.cls-14,.cls-15,.cls-16,.cls-17{font-family:HelveticaNeue-Bold, 'Helvetica Neue';font-weight:700;}.cls-12{letter-spacing:.04em;}.cls-18,.cls-3,.cls-19,.cls-7,.cls-16,.cls-17{fill:#231f20;}.cls-20,.cls-4{letter-spacing:-.02em;}.cls-21{letter-spacing:-.02em;}.cls-22{letter-spacing:-.02em;}.cls-2{letter-spacing:-.09em;}.cls-23{letter-spacing:0em;}.cls-13{letter-spacing:-.02em;}.cls-3,.cls-19{font-size:36px;}.cls-5{letter-spacing:-.11em;}.cls-10{fill:none;stroke-miterlimit:10;stroke-width:4px;}.cls-15{letter-spacing:.72em;}.cls-7{font-size:48px;}.cls-16{font-size:57.65px;}.cls-9{letter-spacing:-.02em;}.cls-17{font-size:122.03px;}.cls-24{letter-spacing:0em;}</style></defs><g id="Layer_1-2"><path class="cls-18" d="m20.6,0c2.04,0,3.9.18,5.58.54,1.68.36,3.12.95,4.32,1.77,1.2.82,2.13,1.91,2.79,3.27.66,1.36.99,3.04.99,5.04,0,2.16-.49,3.96-1.47,5.4-.98,1.44-2.43,2.62-4.35,3.54,2.64.76,4.61,2.09,5.91,3.99,1.3,1.9,1.95,4.19,1.95,6.87,0,2.16-.42,4.03-1.26,5.61-.84,1.58-1.97,2.87-3.39,3.87-1.42,1-3.04,1.74-4.86,2.22-1.82.48-3.69.72-5.61.72H.44V0h20.16Zm-1.2,17.34c1.68,0,3.06-.4,4.14-1.2,1.08-.8,1.62-2.1,1.62-3.9,0-1-.18-1.82-.54-2.46-.36-.64-.84-1.14-1.44-1.5s-1.29-.61-2.07-.75c-.78-.14-1.59-.21-2.43-.21h-8.82v10.02h9.54Zm.54,18.18c.92,0,1.8-.09,2.64-.27.84-.18,1.58-.48,2.22-.9.64-.42,1.15-.99,1.53-1.71.38-.72.57-1.64.57-2.76,0-2.2-.62-3.77-1.86-4.71-1.24-.94-2.88-1.41-4.92-1.41h-10.26v11.76h10.08Z"/><path class="cls-18" d="m41.42,21.36c.12-2,.62-3.66,1.5-4.98.88-1.32,2-2.38,3.36-3.18,1.36-.8,2.89-1.37,4.59-1.71,1.7-.34,3.41-.51,5.13-.51,1.56,0,3.14.11,4.74.33,1.6.22,3.06.65,4.38,1.29,1.32.64,2.4,1.53,3.24,2.67.84,1.14,1.26,2.65,1.26,4.53v16.14c0,1.4.08,2.74.24,4.02.16,1.28.44,2.24.84,2.88h-8.64c-.16-.48-.29-.97-.39-1.47-.1-.5-.17-1.01-.21-1.53-1.36,1.4-2.96,2.38-4.8,2.94-1.84.56-3.72.84-5.64.84-1.48,0-2.86-.18-4.14-.54-1.28-.36-2.4-.92-3.36-1.68-.96-.76-1.71-1.72-2.25-2.88-.54-1.16-.81-2.54-.81-4.14,0-1.76.31-3.21.93-4.35.62-1.14,1.42-2.05,2.4-2.73.98-.68,2.1-1.19,3.36-1.53,1.26-.34,2.53-.61,3.81-.81,1.28-.2,2.54-.36,3.78-.48,1.24-.12,2.34-.3,3.3-.54.96-.24,1.72-.59,2.28-1.05.56-.46.82-1.13.78-2.01,0-.92-.15-1.65-.45-2.19-.3-.54-.7-.96-1.2-1.26-.5-.3-1.08-.5-1.74-.6-.66-.1-1.37-.15-2.13-.15-1.68,0-3,.36-3.96,1.08-.96.72-1.52,1.92-1.68,3.6h-8.52Zm19.68,6.3c-.36.32-.81.57-1.35.75-.54.18-1.12.33-1.74.45-.62.12-1.27.22-1.95.3-.68.08-1.36.18-2.04.3-.64.12-1.27.28-1.89.48-.62.2-1.16.47-1.62.81-.46.34-.83.77-1.11,1.29-.28.52-.42,1.18-.42,1.98s.14,1.4.42,1.92c.28.52.66.93,1.14,1.23.48.3,1.04.51,1.68.63.64.12,1.3.18,1.98.18,1.68,0,2.98-.28,3.9-.84.92-.56,1.6-1.23,2.04-2.01.44-.78.71-1.57.81-2.37.1-.8.15-1.44.15-1.92v-3.18Z"/><path class="cls-18" d="m84.98,0v42.84h-8.52V0h8.52Z"/><path class="cls-18" d="m100.46,0v42.84h-8.52V0h8.52Z"/><path class="cls-18" d="m107.36,20.61c.76-2.02,1.84-3.74,3.24-5.16,1.4-1.42,3.08-2.52,5.04-3.3,1.96-.78,4.16-1.17,6.6-1.17s4.65.39,6.63,1.17c1.98.78,3.67,1.88,5.07,3.3,1.4,1.42,2.48,3.14,3.24,5.16.76,2.02,1.14,4.27,1.14,6.75s-.38,4.72-1.14,6.72c-.76,2-1.84,3.71-3.24,5.13-1.4,1.42-3.09,2.51-5.07,3.27s-4.19,1.14-6.63,1.14-4.64-.38-6.6-1.14c-1.96-.76-3.64-1.85-5.04-3.27-1.4-1.42-2.48-3.13-3.24-5.13-.76-2-1.14-4.24-1.14-6.72s.38-4.73,1.14-6.75Zm7.74,10.38c.24,1.18.65,2.24,1.23,3.18.58.94,1.35,1.69,2.31,2.25.96.56,2.16.84,3.6.84s2.65-.28,3.63-.84c.98-.56,1.76-1.31,2.34-2.25.58-.94.99-2,1.23-3.18.24-1.18.36-2.39.36-3.63s-.12-2.46-.36-3.66c-.24-1.2-.65-2.26-1.23-3.18-.58-.92-1.36-1.67-2.34-2.25-.98-.58-2.19-.87-3.63-.87s-2.64.29-3.6.87c-.96.58-1.73,1.33-2.31,2.25-.58.92-.99,1.98-1.23,3.18-.24,1.2-.36,2.42-.36,3.66s.12,2.45.36,3.63Z"/><path class="cls-18" d="m160.88,11.82v5.7h-6.24v15.36c0,1.44.24,2.4.72,2.88.48.48,1.44.72,2.88.72.48,0,.94-.02,1.38-.06.44-.04.86-.1,1.26-.18v6.6c-.72.12-1.52.2-2.4.24-.88.04-1.74.06-2.58.06-1.32,0-2.57-.09-3.75-.27-1.18-.18-2.22-.53-3.12-1.05-.9-.52-1.61-1.26-2.13-2.22-.52-.96-.78-2.22-.78-3.78v-18.3h-5.16v-5.7h5.16V2.52h8.52v9.3h6.24Z"/><path class="cls-18" d="m195.18,0c2.68,0,4.96.39,6.84,1.17,1.88.78,3.41,1.81,4.59,3.09,1.18,1.28,2.04,2.74,2.58,4.38.54,1.64.81,3.34.81,5.1s-.27,3.41-.81,5.07c-.54,1.66-1.4,3.13-2.58,4.41-1.18,1.28-2.71,2.31-4.59,3.09-1.88.78-4.16,1.17-6.84,1.17h-9.9v15.36h-9.42V0h19.32Zm-2.58,20.16c1.08,0,2.12-.08,3.12-.24,1-.16,1.88-.47,2.64-.93.76-.46,1.37-1.11,1.83-1.95.46-.84.69-1.94.69-3.3s-.23-2.46-.69-3.3c-.46-.84-1.07-1.49-1.83-1.95-.76-.46-1.64-.77-2.64-.93-1-.16-2.04-.24-3.12-.24h-7.32v12.84h7.32Z"/><path class="cls-18" d="m214.62,21.36c.12-2,.62-3.66,1.5-4.98.88-1.32,2-2.38,3.36-3.18,1.36-.8,2.89-1.37,4.59-1.71,1.7-.34,3.41-.51,5.13-.51,1.56,0,3.14.11,4.74.33,1.6.22,3.06.65,4.38,1.29,1.32.64,2.4,1.53,3.24,2.67.84,1.14,1.26,2.65,1.26,4.53v16.14c0,1.4.08,2.74.24,4.02.16,1.28.44,2.24.84,2.88h-8.64c-.16-.48-.29-.97-.39-1.47-.1-.5-.17-1.01-.21-1.53-1.36,1.4-2.96,2.38-4.8,2.94-1.84.56-3.72.84-5.64.84-1.48,0-2.86-.18-4.14-.54-1.28-.36-2.4-.92-3.36-1.68-.96-.76-1.71-1.72-2.25-2.88-.54-1.16-.81-2.54-.81-4.14,0-1.76.31-3.21.93-4.35.62-1.14,1.42-2.05,2.4-2.73.98-.68,2.1-1.19,3.36-1.53,1.26-.34,2.53-.61,3.81-.81,1.28-.2,2.54-.36,3.78-.48,1.24-.12,2.34-.3,3.3-.54.96-.24,1.72-.59,2.28-1.05.56-.46.82-1.13.78-2.01,0-.92-.15-1.65-.45-2.19-.3-.54-.7-.96-1.2-1.26-.5-.3-1.08-.5-1.74-.6-.66-.1-1.37-.15-2.13-.15-1.68,0-3,.36-3.96,1.08-.96.72-1.52,1.92-1.68,3.6h-8.52Zm19.68,6.3c-.36.32-.81.57-1.35.75-.54.18-1.12.33-1.74.45-.62.12-1.27.22-1.95.3-.68.08-1.36.18-2.04.3-.64.12-1.27.28-1.89.48-.62.2-1.16.47-1.62.81-.46.34-.83.77-1.11,1.29-.28.52-.42,1.18-.42,1.98s.14,1.4.42,1.92c.28.52.66.93,1.14,1.23.48.3,1.04.51,1.68.63.64.12,1.3.18,1.98.18,1.68,0,2.98-.28,3.9-.84.92-.56,1.6-1.23,2.04-2.01.44-.78.71-1.57.81-2.37.1-.8.15-1.44.15-1.92v-3.18Z"/><path class="cls-18" d="m257.52,11.82v3.96h.12c1.04-1.68,2.36-2.9,3.96-3.66,1.6-.76,3.36-1.14,5.28-1.14,2.44,0,4.54.46,6.3,1.38,1.76.92,3.22,2.14,4.38,3.66,1.16,1.52,2.02,3.29,2.58,5.31.56,2.02.84,4.13.84,6.33,0,2.08-.28,4.08-.84,6-.56,1.92-1.41,3.62-2.55,5.1-1.14,1.48-2.56,2.66-4.26,3.54-1.7.88-3.69,1.32-5.97,1.32-1.92,0-3.69-.39-5.31-1.17-1.62-.78-2.95-1.93-3.99-3.45h-.12v14.7h-8.52V11.82h8.1Zm11.07,24.6c.94-.56,1.7-1.29,2.28-2.19.58-.9.99-1.95,1.23-3.15.24-1.2.36-2.42.36-3.66s-.13-2.46-.39-3.66c-.26-1.2-.69-2.27-1.29-3.21-.6-.94-1.37-1.7-2.31-2.28-.94-.58-2.09-.87-3.45-.87s-2.57.29-3.51.87c-.94.58-1.7,1.33-2.28,2.25-.58.92-.99,1.98-1.23,3.18-.24,1.2-.36,2.44-.36,3.72s.13,2.46.39,3.66c.26,1.2.68,2.25,1.26,3.15.58.9,1.35,1.63,2.31,2.19.96.56,2.12.84,3.48.84s2.57-.28,3.51-.84Z"/><path class="cls-18" d="m295.2,35.4c1.28,1.24,3.12,1.86,5.52,1.86,1.72,0,3.2-.43,4.44-1.29,1.24-.86,2-1.77,2.28-2.73h7.5c-1.2,3.72-3.04,6.38-5.52,7.98-2.48,1.6-5.48,2.4-9,2.4-2.44,0-4.64-.39-6.6-1.17-1.96-.78-3.62-1.89-4.98-3.33-1.36-1.44-2.41-3.16-3.15-5.16-.74-2-1.11-4.2-1.11-6.6s.38-4.48,1.14-6.48c.76-2,1.84-3.73,3.24-5.19,1.4-1.46,3.07-2.61,5.01-3.45,1.94-.84,4.09-1.26,6.45-1.26,2.64,0,4.94.51,6.9,1.53,1.96,1.02,3.57,2.39,4.83,4.11,1.26,1.72,2.17,3.68,2.73,5.88.56,2.2.76,4.5.6,6.9h-22.38c.12,2.76.82,4.76,2.1,6Zm9.63-16.32c-1.02-1.12-2.57-1.68-4.65-1.68-1.36,0-2.49.23-3.39.69-.9.46-1.62,1.03-2.16,1.71-.54.68-.92,1.4-1.14,2.16-.22.76-.35,1.44-.39,2.04h13.86c-.4-2.16-1.11-3.8-2.13-4.92Z"/><path class="cls-18" d="m328.62,11.82v5.76h.12c.4-.96.94-1.85,1.62-2.67.68-.82,1.46-1.52,2.34-2.1.88-.58,1.82-1.03,2.82-1.35,1-.32,2.04-.48,3.12-.48.56,0,1.18.1,1.86.3v7.92c-.4-.08-.88-.15-1.44-.21-.56-.06-1.1-.09-1.62-.09-1.56,0-2.88.26-3.96.78-1.08.52-1.95,1.23-2.61,2.13-.66.9-1.13,1.95-1.41,3.15-.28,1.2-.42,2.5-.42,3.9v13.98h-8.52V11.82h8.1Z"/><path class="cls-18" d="m912.74,0v16.44h17.34V0h9.42v42.84h-9.42v-18.48h-17.34v18.48h-9.42V0h9.42Z"/><path class="cls-18" d="m958.34,52.08c-1.64,1.08-3.92,1.62-6.84,1.62-.88,0-1.75-.03-2.61-.09-.86-.06-1.73-.13-2.61-.21v-7.02c.8.08,1.62.16,2.46.24.84.08,1.68.1,2.52.06,1.12-.12,1.95-.56,2.49-1.32.54-.76.81-1.6.81-2.52,0-.68-.12-1.32-.36-1.92l-10.86-29.1h9.06l7.02,21.24h.12l6.78-21.24h8.82l-12.96,34.86c-.92,2.52-2.2,4.32-3.84,5.4Z"/><path class="cls-18" d="m1000.04,38.88c-1,1.68-2.31,2.89-3.93,3.63s-3.45,1.11-5.49,1.11c-2.32,0-4.36-.45-6.12-1.35-1.76-.9-3.21-2.12-4.35-3.66-1.14-1.54-2-3.31-2.58-5.31-.58-2-.87-4.08-.87-6.24s.29-4.09.87-6.03c.58-1.94,1.44-3.65,2.58-5.13,1.14-1.48,2.57-2.67,4.29-3.57,1.72-.9,3.72-1.35,6-1.35,1.84,0,3.59.39,5.25,1.17,1.66.78,2.97,1.93,3.93,3.45h.12V0h8.52v42.84h-8.1v-3.96h-.12Zm-.36-15.33c-.24-1.18-.65-2.22-1.23-3.12-.58-.9-1.33-1.63-2.25-2.19-.92-.56-2.08-.84-3.48-.84s-2.58.28-3.54.84c-.96.56-1.73,1.3-2.31,2.22-.58.92-1,1.97-1.26,3.15-.26,1.18-.39,2.41-.39,3.69,0,1.2.14,2.4.42,3.6.28,1.2.73,2.27,1.35,3.21.62.94,1.4,1.7,2.34,2.28.94.58,2.07.87,3.39.87,1.4,0,2.57-.28,3.51-.84.94-.56,1.69-1.31,2.25-2.25.56-.94.96-2.01,1.2-3.21.24-1.2.36-2.44.36-3.72s-.12-2.51-.36-3.69Z"/><path class="cls-18" d="m1023.8,35.4c1.28,1.24,3.12,1.86,5.52,1.86,1.72,0,3.2-.43,4.44-1.29,1.24-.86,2-1.77,2.28-2.73h7.5c-1.2,3.72-3.04,6.38-5.52,7.98-2.48,1.6-5.48,2.4-9,2.4-2.44,0-4.64-.39-6.6-1.17-1.96-.78-3.62-1.89-4.98-3.33-1.36-1.44-2.41-3.16-3.15-5.16-.74-2-1.11-4.2-1.11-6.6s.38-4.48,1.14-6.48c.76-2,1.84-3.73,3.24-5.19,1.4-1.46,3.07-2.61,5.01-3.45,1.94-.84,4.09-1.26,6.45-1.26,2.64,0,4.94.51,6.9,1.53,1.96,1.02,3.57,2.39,4.83,4.11,1.26,1.72,2.17,3.68,2.73,5.88.56,2.2.76,4.5.6,6.9h-22.38c.12,2.76.82,4.76,2.1,6Zm9.63-16.32c-1.02-1.12-2.57-1.68-4.65-1.68-1.36,0-2.49.23-3.39.69-.9.46-1.62,1.03-2.16,1.71-.54.68-.92,1.4-1.14,2.16-.22.76-.35,1.44-.39,2.04h13.86c-.4-2.16-1.11-3.8-2.13-4.92Z"/><path class="cls-18" d="m1079.34,0c2.68,0,4.96.39,6.84,1.17,1.88.78,3.41,1.81,4.59,3.09,1.18,1.28,2.04,2.74,2.58,4.38.54,1.64.81,3.34.81,5.1s-.27,3.41-.81,5.07c-.54,1.66-1.4,3.13-2.58,4.41-1.18,1.28-2.71,2.31-4.59,3.09-1.88.78-4.16,1.17-6.84,1.17h-9.9v15.36h-9.42V0h19.32Zm-2.58,20.16c1.08,0,2.12-.08,3.12-.24,1-.16,1.88-.47,2.64-.93.76-.46,1.37-1.11,1.83-1.95.46-.84.69-1.94.69-3.3s-.23-2.46-.69-3.3c-.46-.84-1.07-1.49-1.83-1.95-.76-.46-1.64-.77-2.64-.93-1-.16-2.04-.24-3.12-.24h-7.32v12.84h7.32Z"/><path class="cls-18" d="m1098.78,21.36c.12-2,.62-3.66,1.5-4.98s2-2.38,3.36-3.18c1.36-.8,2.89-1.37,4.59-1.71,1.7-.34,3.41-.51,5.13-.51,1.56,0,3.14.11,4.74.33,1.6.22,3.06.65,4.38,1.29,1.32.64,2.4,1.53,3.24,2.67.84,1.14,1.26,2.65,1.26,4.53v16.14c0,1.4.08,2.74.24,4.02.16,1.28.44,2.24.84,2.88h-8.64c-.16-.48-.29-.97-.39-1.47-.1-.5-.17-1.01-.21-1.53-1.36,1.4-2.96,2.38-4.8,2.94-1.84.56-3.72.84-5.64.84-1.48,0-2.86-.18-4.14-.54-1.28-.36-2.4-.92-3.36-1.68-.96-.76-1.71-1.72-2.25-2.88-.54-1.16-.81-2.54-.81-4.14,0-1.76.31-3.21.93-4.35s1.42-2.05,2.4-2.73c.98-.68,2.1-1.19,3.36-1.53,1.26-.34,2.53-.61,3.81-.81,1.28-.2,2.54-.36,3.78-.48,1.24-.12,2.34-.3,3.3-.54.96-.24,1.72-.59,2.28-1.05.56-.46.82-1.13.78-2.01,0-.92-.15-1.65-.45-2.19-.3-.54-.7-.96-1.2-1.26-.5-.3-1.08-.5-1.74-.6-.66-.1-1.37-.15-2.13-.15-1.68,0-3,.36-3.96,1.08-.96.72-1.52,1.92-1.68,3.6h-8.52Zm19.68,6.3c-.36.32-.81.57-1.35.75-.54.18-1.12.33-1.74.45s-1.27.22-1.95.3c-.68.08-1.36.18-2.04.3-.64.12-1.27.28-1.89.48-.62.2-1.16.47-1.62.81-.46.34-.83.77-1.11,1.29-.28.52-.42,1.18-.42,1.98s.14,1.4.42,1.92c.28.52.66.93,1.14,1.23.48.3,1.04.51,1.68.63s1.3.18,1.98.18c1.68,0,2.98-.28,3.9-.84.92-.56,1.6-1.23,2.04-2.01.44-.78.71-1.57.81-2.37.1-.8.15-1.44.15-1.92v-3.18Z"/><path class="cls-18" d="m1141.68,11.82v5.76h.12c.4-.96.94-1.85,1.62-2.67.68-.82,1.46-1.52,2.34-2.1.88-.58,1.82-1.03,2.82-1.35,1-.32,2.04-.48,3.12-.48.56,0,1.18.1,1.86.3v7.92c-.4-.08-.88-.15-1.44-.21-.56-.06-1.1-.09-1.62-.09-1.56,0-2.88.26-3.96.78-1.08.52-1.95,1.23-2.61,2.13-.66.9-1.13,1.95-1.41,3.15-.28,1.2-.42,2.5-.42,3.9v13.98h-8.52V11.82h8.1Z"/><path class="cls-18" d="m1166.22,0v22.98l10.74-11.16h10.08l-11.7,11.4,13.02,19.62h-10.32l-8.52-13.86-3.3,3.18v10.68h-8.52V0h8.52Z"/><path class="cls-18" d="m1749.75,10.29c.64-2.06,1.6-3.86,2.88-5.4,1.28-1.54,2.89-2.74,4.83-3.6,1.94-.86,4.17-1.29,6.69-1.29,1.92,0,3.75.3,5.49.9s3.27,1.46,4.59,2.58c1.32,1.12,2.37,2.5,3.15,4.14.78,1.64,1.17,3.48,1.17,5.52s-.34,3.94-1.02,5.46c-.68,1.52-1.58,2.87-2.7,4.05-1.12,1.18-2.39,2.25-3.81,3.21-1.42.96-2.85,1.91-4.29,2.85-1.44.94-2.84,1.95-4.2,3.03-1.36,1.08-2.56,2.34-3.6,3.78h19.86v7.32h-30.84c0-2.44.35-4.56,1.05-6.36.7-1.8,1.65-3.41,2.85-4.83,1.2-1.42,2.61-2.73,4.23-3.93,1.62-1.2,3.33-2.42,5.13-3.66.92-.64,1.9-1.29,2.94-1.95,1.04-.66,1.99-1.39,2.85-2.19.86-.8,1.58-1.7,2.16-2.7.58-1,.87-2.14.87-3.42,0-2.04-.59-3.63-1.77-4.77-1.18-1.14-2.69-1.71-4.53-1.71-1.24,0-2.29.29-3.15.87-.86.58-1.55,1.34-2.07,2.28-.52.94-.89,1.98-1.11,3.12-.22,1.14-.33,2.27-.33,3.39h-8.16c-.08-2.4.2-4.63.84-6.69Z"/><path class="cls-18" d="m1807.45,0l10.02,29.46h.12l9.48-29.46h13.26v42.84h-8.82V12.48h-.12l-10.5,30.36h-7.26l-10.5-30.06h-.12v30.06h-8.82V0h13.26Z"/><path class="cls-18" d="m1856.83,35.4c1.28,1.24,3.12,1.86,5.52,1.86,1.72,0,3.2-.43,4.44-1.29,1.24-.86,2-1.77,2.28-2.73h7.5c-1.2,3.72-3.04,6.38-5.52,7.98-2.48,1.6-5.48,2.4-9,2.4-2.44,0-4.64-.39-6.6-1.17-1.96-.78-3.62-1.89-4.98-3.33-1.36-1.44-2.41-3.16-3.15-5.16-.74-2-1.11-4.2-1.11-6.6s.38-4.48,1.14-6.48c.76-2,1.84-3.73,3.24-5.19,1.4-1.46,3.07-2.61,5.01-3.45,1.94-.84,4.09-1.26,6.45-1.26,2.64,0,4.94.51,6.9,1.53,1.96,1.02,3.57,2.39,4.83,4.11,1.26,1.72,2.17,3.68,2.73,5.88.56,2.2.76,4.5.6,6.9h-22.38c.12,2.76.82,4.76,2.1,6Zm9.63-16.32c-1.02-1.12-2.57-1.68-4.65-1.68-1.36,0-2.49.23-3.39.69-.9.46-1.62,1.03-2.16,1.71-.54.68-.92,1.4-1.14,2.16-.22.76-.35,1.44-.39,2.04h13.86c-.4-2.16-1.11-3.8-2.13-4.92Z"/><path class="cls-18" d="m1890.43,11.82v4.2h.12c1.12-1.6,2.47-2.84,4.05-3.72,1.58-.88,3.39-1.32,5.43-1.32s3.75.38,5.37,1.14c1.62.76,2.85,2.1,3.69,4.02.92-1.36,2.17-2.56,3.75-3.6,1.58-1.04,3.45-1.56,5.61-1.56,1.64,0,3.16.2,4.56.6,1.4.4,2.6,1.04,3.6,1.92,1,.88,1.78,2.03,2.34,3.45.56,1.42.84,3.13.84,5.13v20.76h-8.52v-17.58c0-1.04-.04-2.02-.12-2.94-.08-.92-.3-1.72-.66-2.4-.36-.68-.89-1.22-1.59-1.62-.7-.4-1.65-.6-2.85-.6s-2.17.23-2.91.69c-.74.46-1.32,1.06-1.74,1.8-.42.74-.7,1.58-.84,2.52-.14.94-.21,1.89-.21,2.85v17.28h-8.52v-17.4c0-.92-.02-1.83-.06-2.73-.04-.9-.21-1.73-.51-2.49-.3-.76-.8-1.37-1.5-1.83-.7-.46-1.73-.69-3.09-.69-.4,0-.93.09-1.59.27-.66.18-1.3.52-1.92,1.02-.62.5-1.15,1.22-1.59,2.16-.44.94-.66,2.17-.66,3.69v18h-8.52V11.82h8.04Z"/><path class="cls-18" d="m1945.03,0v15.6h.12c1.04-1.6,2.45-2.77,4.23-3.51,1.78-.74,3.63-1.11,5.55-1.11,1.56,0,3.1.32,4.62.96,1.52.64,2.89,1.62,4.11,2.94,1.22,1.32,2.21,3.01,2.97,5.07.76,2.06,1.14,4.51,1.14,7.35s-.38,5.29-1.14,7.35c-.76,2.06-1.75,3.75-2.97,5.07-1.22,1.32-2.59,2.3-4.11,2.94-1.52.64-3.06.96-4.62.96-2.28,0-4.32-.36-6.12-1.08-1.8-.72-3.16-1.94-4.08-3.66h-.12v3.96h-8.1V0h8.52Zm13.8,23.58c-.28-1.2-.72-2.26-1.32-3.18-.6-.92-1.35-1.65-2.25-2.19-.9-.54-1.99-.81-3.27-.81s-2.32.27-3.24.81c-.92.54-1.68,1.27-2.28,2.19-.6.92-1.04,1.98-1.32,3.18-.28,1.2-.42,2.46-.42,3.78s.14,2.52.42,3.72c.28,1.2.72,2.26,1.32,3.18.6.92,1.36,1.65,2.28,2.19.92.54,2,.81,3.24.81s2.37-.27,3.27-.81c.9-.54,1.65-1.27,2.25-2.19.6-.92,1.04-1.98,1.32-3.18.28-1.2.42-2.44.42-3.72s-.14-2.58-.42-3.78Z"/><path class="cls-18" d="m1982.29,35.4c1.28,1.24,3.12,1.86,5.52,1.86,1.72,0,3.2-.43,4.44-1.29,1.24-.86,2-1.77,2.28-2.73h7.5c-1.2,3.72-3.04,6.38-5.52,7.98-2.48,1.6-5.48,2.4-9,2.4-2.44,0-4.64-.39-6.6-1.17-1.96-.78-3.62-1.89-4.98-3.33-1.36-1.44-2.41-3.16-3.15-5.16-.74-2-1.11-4.2-1.11-6.6s.38-4.48,1.14-6.48c.76-2,1.84-3.73,3.24-5.19,1.4-1.46,3.07-2.61,5.01-3.45,1.94-.84,4.09-1.26,6.45-1.26,2.64,0,4.94.51,6.9,1.53,1.96,1.02,3.57,2.39,4.83,4.11,1.26,1.72,2.17,3.68,2.73,5.88.56,2.2.76,4.5.6,6.9h-22.38c.12,2.76.82,4.76,2.1,6Zm9.63-16.32c-1.02-1.12-2.57-1.68-4.65-1.68-1.36,0-2.49.23-3.39.69-.9.46-1.62,1.03-2.16,1.71-.54.68-.92,1.4-1.14,2.16-.22.76-.35,1.44-.39,2.04h13.86c-.4-2.16-1.11-3.8-2.13-4.92Z"/><path class="cls-18" d="m2015.7,11.82v5.76h.12c.4-.96.94-1.85,1.62-2.67.68-.82,1.46-1.52,2.34-2.1.88-.58,1.82-1.03,2.82-1.35,1-.32,2.04-.48,3.12-.48.56,0,1.18.1,1.86.3v7.92c-.4-.08-.88-.15-1.44-.21-.56-.06-1.1-.09-1.62-.09-1.56,0-2.88.26-3.96.78-1.08.52-1.95,1.23-2.61,2.13-.66.9-1.13,1.95-1.41,3.15-.28,1.2-.42,2.5-.42,3.9v13.98h-8.52V11.82h8.1Z"/><path class="cls-18" d="m2038.11,35.13c.38.66.87,1.2,1.47,1.62.6.42,1.29.73,2.07.93.78.2,1.59.3,2.43.3.6,0,1.23-.07,1.89-.21.66-.14,1.26-.36,1.8-.66s.99-.7,1.35-1.2c.36-.5.54-1.13.54-1.89,0-1.28-.85-2.24-2.55-2.88-1.7-.64-4.07-1.28-7.11-1.92-1.24-.28-2.45-.61-3.63-.99-1.18-.38-2.23-.88-3.15-1.5-.92-.62-1.66-1.4-2.22-2.34-.56-.94-.84-2.09-.84-3.45,0-2,.39-3.64,1.17-4.92.78-1.28,1.81-2.29,3.09-3.03,1.28-.74,2.72-1.26,4.32-1.56,1.6-.3,3.24-.45,4.92-.45s3.31.16,4.89.48c1.58.32,2.99.86,4.23,1.62,1.24.76,2.27,1.77,3.09,3.03.82,1.26,1.31,2.85,1.47,4.77h-8.1c-.12-1.64-.74-2.75-1.86-3.33-1.12-.58-2.44-.87-3.96-.87-.48,0-1,.03-1.56.09-.56.06-1.07.19-1.53.39-.46.2-.85.49-1.17.87-.32.38-.48.89-.48,1.53,0,.76.28,1.38.84,1.86.56.48,1.29.87,2.19,1.17.9.3,1.93.57,3.09.81,1.16.24,2.34.5,3.54.78,1.24.28,2.45.62,3.63,1.02,1.18.4,2.23.93,3.15,1.59.92.66,1.66,1.48,2.22,2.46.56.98.84,2.19.84,3.63,0,2.04-.41,3.75-1.23,5.13-.82,1.38-1.89,2.49-3.21,3.33s-2.83,1.43-4.53,1.77-3.43.51-5.19.51-3.56-.18-5.28-.54c-1.72-.36-3.25-.96-4.59-1.8-1.34-.84-2.44-1.95-3.3-3.33-.86-1.38-1.33-3.11-1.41-5.19h8.1c0,.92.19,1.71.57,2.37Z"/><line class="cls-10" x1="1.19" y1="72" x2="2057.44" y2="72"/><text class="cls-17" transform="translate(559.13 289.96)"><tspan x="0" y="0">Suburbs of Hi-Fi</tspan></text><text class="cls-16" transform="translate(215.53 412.02)"><tspan x="0" y="0">Number th</tspan><tspan class="cls-22" x="290.38" y="0">r</tspan><tspan x="311.77" y="0">ee boxes f</tspan><tspan class="cls-22" x="594.66" y="0">r</tspan><tspan class="cls-23" x="616.05" y="0">om 1 to 3 in the o</tspan><tspan class="cls-22" x="1091.14" y="0">r</tspan><tspan x="1112.53" y="0">der of your choice.</tspan></text><text class="cls-7" transform="translate(457.07 1184.02)"><tspan x="0" y="0">Don</tspan><tspan class="cls-20" x="90.67" y="0">’</tspan><tspan class="cls-24" x="103.15" y="0">t sha</tspan><tspan class="cls-21" x="211.63" y="0">r</tspan><tspan x="227.66" y="0">e your choices with anyone in the world.</tspan></text><line class="cls-10" x1="2.83" y1="569.03" x2="1030.95" y2="569.03"/><line class="cls-10" y1="1070.71" x2="1028.13" y2="1070.71"/><line class="cls-10" x1="516.89" y1="568.67" x2="516.89" y2="1069.96"/><line class="cls-10" x1="1030.5" y1="569.03" x2="2058.63" y2="569.03"/><line class="cls-10" x1="1027.68" y1="1070.71" x2="2055.8" y2="1070.71"/><line class="cls-10" x1="1544.56" y1="568.67" x2="1544.56" y2="1069.96"/><line class="cls-10" x1="1030.95" y1="569.03" x2="1030.95" y2="1072.54"/><text class="cls-19" transform="translate(.28 651.13)"><tspan class="cls-14" x="0" y="0">A</tspan><tspan class="cls-12" x="24.66" y="0">	</tspan><tspan class="cls-15" x="36" y="0">	</tspan><tspan class="cls-6" x="72" y="0">HYDE </tspan><tspan class="cls-1" x="180" y="0">P</tspan><tspan class="cls-6" x="201.35" y="0">ARK </tspan><tspan class="cls-1" x="285.37" y="0">P</tspan><tspan class="cls-6" x="306.72" y="0">A</tspan><tspan class="cls-9" x="330.73" y="0">R</tspan><tspan class="cls-6" x="355.43" y="0">TY</tspan></text><text class="cls-19" transform="translate(532.15 651.13)"><tspan class="cls-14" x="0" y="0">B</tspan><tspan class="cls-11" x="25.34" y="0">	</tspan><tspan class="cls-15" x="36" y="0">	</tspan><tspan class="cls-6" x="72" y="0">B</tspan><tspan class="cls-5" x="97.34" y="0">L</tspan><tspan class="cls-6" x="114.01" y="0">YTHE(dot)WORLD</tspan></text><text class="cls-19" transform="translate(1052.4 651.13)"><tspan class="cls-14" x="0" y="0">C</tspan><tspan class="cls-13" x="26.68" y="0">	</tspan><tspan class="cls-15" x="36" y="0">	</tspan><tspan class="cls-1" x="72" y="0">Y</tspan><tspan class="cls-6" x="92.66" y="0">ASSI-FI </tspan><tspan class="cls-1" x="228.71" y="0">P</tspan><tspan class="cls-6" x="250.05" y="0">A</tspan><tspan class="cls-9" x="274.07" y="0">R</tspan><tspan class="cls-6" x="298.76" y="0">TY</tspan></text><text class="cls-19" transform="translate(1571.23 651.13)"><tspan class="cls-14" x="0" y="0">D</tspan><tspan class="cls-13" x="26.68" y="0">	</tspan><tspan class="cls-15" x="36" y="0">	</tspan><tspan class="cls-6" x="72" y="0">CLA</tspan><tspan class="cls-2" x="142.67" y="0">A</tspan><tspan class="cls-6" x="163.37" y="0">T </tspan><tspan class="cls-1" x="194.72" y="0">P</tspan><tspan class="cls-6" x="216.07" y="0">A</tspan><tspan class="cls-4" x="240.08" y="0">R</tspan><tspan class="cls-6" x="264.78" y="0">TY</tspan></text><path class="cls-18" d="m140.47,705.26v56.65h-56.65v-56.65h56.65m10-10h-76.65v76.65h76.65v-76.65h0Z"/><path class="cls-18" d="m174.52,703.29h4.5v21.82h13.07v3.89h-17.57v-25.7Z"/><path class="cls-18" d="m210.19,724.86c0,.5.07.86.2,1.08s.39.32.77.32h.43c.17,0,.36-.02.58-.07v2.84c-.14.05-.33.1-.56.16-.23.06-.46.11-.7.16s-.48.08-.72.11c-.24.02-.44.04-.61.04-.84,0-1.54-.17-2.09-.5-.55-.34-.91-.92-1.08-1.76-.82.79-1.82,1.37-3.01,1.73s-2.33.54-3.44.54c-.84,0-1.64-.11-2.41-.34-.77-.23-1.45-.56-2.03-1.01-.59-.44-1.06-1.01-1.4-1.69-.35-.68-.52-1.48-.52-2.39,0-1.15.21-2.09.63-2.81.42-.72.97-1.28,1.66-1.69.68-.41,1.45-.7,2.3-.88.85-.18,1.71-.32,2.57-.41.74-.14,1.45-.25,2.12-.31.67-.06,1.27-.16,1.78-.31.52-.14.92-.37,1.22-.67.3-.3.45-.75.45-1.35,0-.53-.13-.96-.38-1.3-.25-.34-.56-.59-.94-.77-.37-.18-.79-.3-1.24-.36-.46-.06-.89-.09-1.3-.09-1.15,0-2.1.24-2.84.72-.74.48-1.16,1.22-1.26,2.23h-4.1c.07-1.2.36-2.2.86-2.99.5-.79,1.15-1.43,1.93-1.91.78-.48,1.66-.82,2.65-1.01.98-.19,1.99-.29,3.02-.29.91,0,1.81.1,2.7.29.89.19,1.69.5,2.39.94.71.43,1.28.99,1.71,1.67.43.68.65,1.52.65,2.5v9.58Zm-4.1-5.18c-.62.41-1.39.65-2.3.74s-1.82.21-2.74.38c-.43.07-.85.17-1.26.31-.41.13-.77.31-1.08.54-.31.23-.56.53-.74.9-.18.37-.27.82-.27,1.35,0,.46.13.84.4,1.15s.58.56.95.74c.37.18.78.31,1.22.38.44.07.85.11,1.21.11.46,0,.95-.06,1.48-.18.53-.12,1.03-.32,1.49-.61.47-.29.86-.65,1.17-1.1s.47-.99.47-1.64v-3.06Z"/><path class="cls-18" d="m212.75,710.39h3.1v-5.58h4.1v5.58h3.71v3.06h-3.71v9.94c0,.43.02.8.05,1.12s.12.58.25.79c.13.22.33.38.59.49.26.11.62.16,1.08.16.29,0,.58,0,.86-.02.29-.01.58-.05.86-.13v3.17c-.46.05-.9.1-1.33.14-.43.05-.88.07-1.33.07-1.08,0-1.95-.1-2.61-.31-.66-.2-1.18-.5-1.55-.9-.37-.4-.62-.89-.76-1.49-.13-.6-.21-1.28-.23-2.05v-10.98h-3.1v-3.06Z"/><path class="cls-18" d="m239.17,716.62c-.17-1.15-.63-2.02-1.39-2.61-.76-.59-1.71-.88-2.86-.88-.53,0-1.09.09-1.69.27-.6.18-1.15.52-1.66,1.01-.5.49-.92,1.18-1.26,2.05-.34.88-.5,2.02-.5,3.44,0,.77.09,1.54.27,2.3.18.77.47,1.45.86,2.05s.91,1.09,1.53,1.46,1.38.56,2.27.56c1.2,0,2.19-.37,2.97-1.12.78-.74,1.27-1.79,1.46-3.13h4.1c-.38,2.42-1.3,4.28-2.75,5.56-1.45,1.28-3.38,1.93-5.78,1.93-1.46,0-2.75-.25-3.87-.74-1.12-.49-2.06-1.16-2.83-2.02-.77-.85-1.35-1.87-1.75-3.04s-.59-2.45-.59-3.82.19-2.7.58-3.92c.38-1.22.96-2.29,1.73-3.19.77-.9,1.72-1.61,2.86-2.12,1.14-.52,2.48-.77,4.01-.77,1.08,0,2.11.14,3.08.41.97.28,1.84.69,2.59,1.24.76.55,1.37,1.25,1.85,2.09.48.84.77,1.84.86,2.99h-4.1Z"/><path class="cls-18" d="m246.62,703.29h4.1v9.54h.07c.5-.84,1.25-1.54,2.25-2.11,1-.56,2.11-.85,3.33-.85,2.04,0,3.65.53,4.82,1.58,1.18,1.06,1.76,2.64,1.76,4.75v12.78h-4.1v-11.7c-.05-1.46-.36-2.53-.94-3.19-.58-.66-1.48-.99-2.7-.99-.7,0-1.32.13-1.87.38-.55.25-1.02.6-1.4,1.04s-.68.97-.9,1.57c-.22.6-.32,1.24-.32,1.91v10.98h-4.1v-25.7Z"/><path class="cls-18" d="m267.39,703.29h4.1v3.89h-4.1v-3.89Zm0,7.09h4.1v18.61h-4.1v-18.61Z"/><path class="cls-18" d="m279.17,720.75c0,.72.1,1.42.31,2.09.2.67.51,1.26.92,1.76.41.5.92.91,1.55,1.21.62.3,1.37.45,2.23.45,1.2,0,2.17-.26,2.9-.77.73-.52,1.28-1.29,1.64-2.32h3.89c-.22,1.01-.59,1.91-1.12,2.7s-1.16,1.46-1.91,2c-.74.54-1.58.95-2.5,1.22-.92.28-1.89.41-2.9.41-1.46,0-2.76-.24-3.89-.72-1.13-.48-2.08-1.15-2.86-2.02-.78-.86-1.37-1.9-1.76-3.1s-.59-2.52-.59-3.96c0-1.32.21-2.57.63-3.76.42-1.19,1.02-2.23,1.8-3.13.78-.9,1.72-1.61,2.83-2.14,1.1-.53,2.35-.79,3.74-.79,1.46,0,2.78.31,3.94.92,1.16.61,2.13,1.42,2.9,2.43.77,1.01,1.33,2.17,1.67,3.47.35,1.31.44,2.66.27,4.05h-13.68Zm9.58-2.7c-.05-.65-.19-1.27-.41-1.87-.23-.6-.54-1.12-.94-1.57s-.88-.8-1.44-1.08c-.56-.28-1.19-.41-1.89-.41s-1.37.13-1.96.38c-.59.25-1.09.6-1.51,1.04-.42.44-.76.97-1.01,1.57-.25.6-.39,1.25-.41,1.94h9.58Z"/><path class="cls-18" d="m191.87,743.47c-.19-.74-.46-1.43-.79-2.05-.34-.62-.77-1.16-1.3-1.62-.53-.46-1.15-.81-1.85-1.06-.71-.25-1.53-.38-2.47-.38-1.37,0-2.55.28-3.55.83-1,.55-1.81,1.29-2.43,2.21-.62.92-1.09,1.97-1.39,3.15-.3,1.18-.45,2.38-.45,3.6s.15,2.42.45,3.6c.3,1.18.76,2.23,1.39,3.15.62.92,1.43,1.66,2.43,2.21,1,.55,2.18.83,3.55.83,1.01,0,1.9-.17,2.66-.52.77-.35,1.43-.83,1.98-1.44.55-.61.98-1.33,1.3-2.14.31-.82.52-1.69.61-2.63h4.39c-.1,1.54-.43,2.94-.99,4.21-.56,1.27-1.33,2.37-2.29,3.29-.96.92-2.09,1.64-3.38,2.14-1.3.5-2.72.76-4.28.76-1.92,0-3.64-.35-5.17-1.06-1.52-.71-2.81-1.67-3.87-2.9-1.06-1.22-1.87-2.65-2.43-4.28s-.85-3.37-.85-5.22.28-3.55.85-5.18c.56-1.63,1.37-3.06,2.43-4.28,1.06-1.22,2.35-2.2,3.87-2.92,1.52-.72,3.25-1.08,5.17-1.08,1.44,0,2.8.2,4.07.59,1.27.4,2.39.97,3.37,1.73.97.76,1.76,1.67,2.36,2.75.6,1.08.97,2.32,1.12,3.71h-4.5Z"/><path class="cls-18" d="m207.38,735.29h4.79l9.9,25.7h-4.82l-2.41-6.8h-10.26l-2.41,6.8h-4.64l9.86-25.7Zm-1.58,15.48h7.85l-3.85-11.05h-.11l-3.89,11.05Z"/><path class="cls-18" d="m224.52,735.29h4.5v21.82h13.07v3.89h-17.57v-25.7Z"/><path class="cls-18" d="m245.18,735.29h10.66c1.97,0,3.67.34,5.11,1.01s2.62,1.59,3.53,2.75c.91,1.16,1.59,2.53,2.03,4.09.44,1.56.67,3.23.67,5s-.22,3.44-.67,5c-.44,1.56-1.12,2.92-2.03,4.09-.91,1.16-2.09,2.08-3.53,2.75s-3.14,1.01-5.11,1.01h-10.66v-25.7Zm4.5,22.03h4.43c1.75,0,3.19-.23,4.3-.7,1.12-.47,1.99-1.12,2.63-1.94.64-.83,1.07-1.8,1.3-2.92.23-1.12.34-2.32.34-3.62s-.11-2.5-.34-3.62c-.23-1.12-.66-2.09-1.3-2.92-.64-.83-1.51-1.48-2.63-1.94-1.12-.47-2.55-.7-4.3-.7h-4.43v18.36Z"/><path class="cls-18" d="m271.17,735.29h18.5v3.89h-14v6.73h12.96v3.67h-12.96v7.52h14.26v3.89h-18.76v-25.7Z"/><path class="cls-18" d="m293.85,735.29h12.28c2.83,0,4.96.61,6.37,1.84s2.12,2.93,2.12,5.11c0,1.22-.18,2.24-.54,3.04-.36.8-.78,1.45-1.26,1.94-.48.49-.95.85-1.42,1.06-.47.22-.81.36-1.03.43v.07c.38.05.8.17,1.24.36.44.19.86.5,1.24.92.38.42.7.97.95,1.64.25.67.38,1.51.38,2.52,0,1.51.11,2.89.34,4.12.23,1.24.58,2.12,1.06,2.65h-4.82c-.34-.55-.53-1.16-.59-1.84-.06-.67-.09-1.32-.09-1.94,0-1.18-.07-2.19-.22-3.04-.14-.85-.41-1.56-.79-2.12-.38-.56-.91-.98-1.57-1.24-.66-.26-1.51-.4-2.54-.4h-6.62v10.58h-4.5v-25.7Zm4.5,11.7h7.38c1.44,0,2.53-.34,3.28-1.03.74-.68,1.12-1.71,1.12-3.08,0-.82-.12-1.48-.36-2-.24-.52-.57-.92-.99-1.21-.42-.29-.9-.48-1.44-.58-.54-.09-1.1-.14-1.67-.14h-7.31v8.03Z"/><path class="cls-18" d="m140.47,806.29v56.65h-56.65v-56.65h56.65m10-10h-76.65v76.65h76.65v-76.65h0Z"/><path class="cls-18" d="m174.52,804.33h10.66c1.97,0,3.67.34,5.11,1.01s2.62,1.59,3.53,2.75c.91,1.16,1.59,2.53,2.03,4.09.44,1.56.67,3.23.67,5s-.22,3.44-.67,5c-.44,1.56-1.12,2.92-2.03,4.09-.91,1.17-2.09,2.08-3.53,2.75s-3.14,1.01-5.11,1.01h-10.66v-25.7Zm4.5,22.03h4.43c1.75,0,3.19-.23,4.3-.7,1.12-.47,1.99-1.12,2.63-1.94.64-.83,1.07-1.8,1.3-2.92.23-1.12.34-2.32.34-3.62s-.11-2.5-.34-3.62c-.23-1.12-.66-2.09-1.3-2.92-.64-.83-1.51-1.48-2.63-1.94-1.12-.47-2.55-.7-4.3-.7h-4.43v18.36Z"/><path class="cls-18" d="m215.52,825.89c0,.5.07.86.2,1.08s.39.32.77.32h.43c.17,0,.36-.02.58-.07v2.84c-.14.05-.33.1-.56.16-.23.06-.46.11-.7.16s-.48.08-.72.11c-.24.02-.44.04-.61.04-.84,0-1.54-.17-2.09-.5-.55-.34-.91-.92-1.08-1.76-.82.79-1.82,1.37-3.01,1.73s-2.33.54-3.44.54c-.84,0-1.64-.11-2.41-.34-.77-.23-1.45-.56-2.03-1.01-.59-.44-1.06-1.01-1.4-1.69-.35-.68-.52-1.48-.52-2.39,0-1.15.21-2.09.63-2.81.42-.72.97-1.28,1.66-1.69.68-.41,1.45-.7,2.3-.88.85-.18,1.71-.32,2.57-.41.74-.14,1.45-.25,2.12-.31.67-.06,1.27-.16,1.78-.31.52-.14.92-.37,1.22-.67.3-.3.45-.75.45-1.35,0-.53-.13-.96-.38-1.3-.25-.34-.56-.59-.94-.77-.37-.18-.79-.3-1.24-.36-.46-.06-.89-.09-1.3-.09-1.15,0-2.1.24-2.84.72-.74.48-1.16,1.22-1.26,2.23h-4.1c.07-1.2.36-2.2.86-2.99.5-.79,1.15-1.43,1.93-1.91.78-.48,1.66-.82,2.65-1.01.98-.19,1.99-.29,3.02-.29.91,0,1.81.1,2.7.29.89.19,1.69.5,2.39.94.71.43,1.28.99,1.71,1.67.43.68.65,1.52.65,2.5v9.58Zm-4.1-5.18c-.62.41-1.39.65-2.3.74s-1.82.21-2.74.38c-.43.07-.85.17-1.26.31-.41.13-.77.31-1.08.54-.31.23-.56.53-.74.9-.18.37-.27.82-.27,1.35,0,.46.13.84.4,1.15s.58.56.95.74c.37.18.78.31,1.22.38.44.07.85.11,1.21.11.46,0,.95-.06,1.48-.18.53-.12,1.03-.32,1.49-.61.47-.29.86-.65,1.17-1.1s.47-.99.47-1.64v-3.06Z"/><path class="cls-18" d="m219.95,811.42h3.89v2.74l.07.07c.62-1.03,1.44-1.84,2.45-2.43,1.01-.59,2.12-.88,3.35-.88,2.04,0,3.65.53,4.82,1.58,1.18,1.06,1.76,2.64,1.76,4.75v12.78h-4.1v-11.7c-.05-1.46-.36-2.53-.94-3.19-.58-.66-1.48-.99-2.7-.99-.7,0-1.32.13-1.87.38-.55.25-1.02.6-1.4,1.04s-.68.97-.9,1.57c-.22.6-.32,1.24-.32,1.91v10.98h-4.1v-18.61Z"/><path class="cls-18" d="m196.94,862.03h-2.88l-.68-3.02c-1.2,1.37-2.4,2.32-3.6,2.84-1.2.53-2.58.79-4.14.79-1.92,0-3.64-.35-5.17-1.06-1.52-.71-2.81-1.67-3.87-2.9-1.06-1.22-1.87-2.65-2.43-4.28-.56-1.63-.85-3.37-.85-5.22s.28-3.55.85-5.18c.56-1.63,1.37-3.06,2.43-4.28,1.06-1.22,2.35-2.2,3.87-2.92,1.52-.72,3.25-1.08,5.17-1.08,1.39,0,2.72.19,3.98.56,1.26.37,2.38.92,3.37,1.66.98.73,1.8,1.65,2.45,2.75.65,1.1,1.06,2.38,1.22,3.82h-4.39c-.12-.84-.38-1.58-.77-2.21s-.89-1.17-1.49-1.6c-.6-.43-1.27-.76-2.02-.97-.74-.22-1.52-.32-2.34-.32-1.37,0-2.55.28-3.55.83-1,.55-1.81,1.29-2.43,2.21-.62.92-1.09,1.97-1.39,3.15-.3,1.18-.45,2.38-.45,3.6s.15,2.42.45,3.6c.3,1.18.76,2.23,1.39,3.15s1.43,1.66,2.43,2.21c1,.55,2.18.83,3.55.83,1.15.02,2.17-.13,3.06-.45.89-.32,1.64-.79,2.25-1.4.61-.61,1.07-1.36,1.39-2.25.31-.89.48-1.87.5-2.95h-6.84v-3.42h10.94v13.54Z"/><path class="cls-18" d="m212.78,835.71c1.92,0,3.64.36,5.17,1.08,1.52.72,2.81,1.69,3.87,2.92s1.87,2.65,2.43,4.28c.56,1.63.85,3.36.85,5.18s-.28,3.59-.85,5.22c-.56,1.63-1.37,3.06-2.43,4.28-1.06,1.22-2.35,2.19-3.87,2.9-1.52.71-3.25,1.06-5.17,1.06s-3.64-.35-5.17-1.06c-1.52-.71-2.81-1.67-3.87-2.9-1.06-1.22-1.87-2.65-2.43-4.28s-.85-3.37-.85-5.22.28-3.55.85-5.18c.56-1.63,1.37-3.06,2.43-4.28,1.06-1.22,2.35-2.2,3.87-2.92,1.52-.72,3.25-1.08,5.17-1.08Zm0,3.67c-1.37,0-2.55.28-3.55.83-1,.55-1.81,1.29-2.43,2.21-.62.92-1.09,1.97-1.39,3.15-.3,1.18-.45,2.38-.45,3.6s.15,2.42.45,3.6c.3,1.18.76,2.23,1.39,3.15.62.92,1.43,1.66,2.43,2.21,1,.55,2.18.83,3.55.83s2.55-.28,3.55-.83c1-.55,1.81-1.29,2.43-2.21s1.09-1.97,1.39-3.15c.3-1.18.45-2.38.45-3.6s-.15-2.42-.45-3.6c-.3-1.18-.76-2.23-1.39-3.15-.62-.92-1.43-1.66-2.43-2.21-1-.55-2.18-.83-3.55-.83Z"/><path class="cls-18" d="m229.2,836.33h12.28c2.83,0,4.96.61,6.37,1.84s2.12,2.93,2.12,5.11c0,1.22-.18,2.24-.54,3.04-.36.8-.78,1.45-1.26,1.94-.48.49-.95.85-1.42,1.06-.47.22-.81.36-1.03.43v.07c.38.05.8.17,1.24.36.44.19.86.5,1.24.92.38.42.7.97.95,1.64.25.67.38,1.51.38,2.52,0,1.51.11,2.89.34,4.12.23,1.24.58,2.12,1.06,2.65h-4.82c-.34-.55-.53-1.16-.59-1.84-.06-.67-.09-1.32-.09-1.94,0-1.18-.07-2.19-.22-3.04-.14-.85-.41-1.56-.79-2.12-.38-.56-.91-.98-1.57-1.24-.66-.26-1.51-.4-2.54-.4h-6.62v10.58h-4.5v-25.7Zm4.5,11.7h7.38c1.44,0,2.53-.34,3.28-1.03.74-.68,1.12-1.71,1.12-3.08,0-.82-.12-1.48-.36-2-.24-.52-.57-.92-.99-1.21-.42-.29-.9-.48-1.44-.58-.54-.09-1.1-.14-1.67-.14h-7.31v8.03Z"/><path class="cls-18" d="m253.79,836.33h19.55v3.42l-14.98,18.4h15.34v3.89h-21.06v-3.67l14.98-18.14h-13.82v-3.89Z"/><path class="cls-18" d="m284.1,836.33h4.79l9.9,25.7h-4.82l-2.41-6.8h-10.26l-2.41,6.8h-4.64l9.86-25.7Zm-1.58,15.48h7.85l-3.85-11.05h-.11l-3.89,11.05Z"/><path class="cls-18" d="m300.48,836.33h19.55v3.42l-14.98,18.4h15.34v3.89h-21.06v-3.67l14.98-18.14h-13.82v-3.89Z"/><path class="cls-18" d="m330.79,836.33h4.79l9.9,25.7h-4.82l-2.41-6.8h-10.26l-2.41,6.8h-4.64l9.86-25.7Zm-1.58,15.48h7.85l-3.85-11.05h-.11l-3.89,11.05Z"/><path class="cls-18" d="m668.86,705.26v56.65h-56.65v-56.65h56.65m10-10h-76.65v76.65h76.65v-76.65h0Z"/><path class="cls-18" d="m702.9,703.29h12.49c2.3,0,4.15.53,5.54,1.58,1.39,1.06,2.09,2.65,2.09,4.79,0,1.3-.32,2.41-.95,3.33s-1.54,1.64-2.72,2.14v.07c1.58.34,2.78,1.09,3.6,2.25.82,1.16,1.22,2.62,1.22,4.37,0,1.01-.18,1.95-.54,2.83-.36.88-.92,1.63-1.69,2.27-.77.64-1.75,1.14-2.95,1.51-1.2.37-2.63.56-4.28.56h-11.81v-25.7Zm4.5,10.76h7.34c1.08,0,1.98-.31,2.7-.92.72-.61,1.08-1.49,1.08-2.65,0-1.3-.32-2.21-.97-2.74-.65-.53-1.58-.79-2.81-.79h-7.34v7.09Zm0,11.27h7.96c1.37,0,2.43-.35,3.19-1.06.76-.71,1.13-1.71,1.13-3.01s-.38-2.25-1.13-2.93c-.76-.68-1.82-1.03-3.19-1.03h-7.96v8.03Z"/><path class="cls-18" d="m730.87,720.75c0,.72.1,1.42.31,2.09.2.67.51,1.26.92,1.76.41.5.92.91,1.55,1.21.62.3,1.37.45,2.23.45,1.2,0,2.17-.26,2.9-.77.73-.52,1.28-1.29,1.64-2.32h3.89c-.22,1.01-.59,1.91-1.12,2.7s-1.16,1.46-1.91,2c-.74.54-1.58.95-2.5,1.22-.92.28-1.89.41-2.9.41-1.46,0-2.76-.24-3.89-.72-1.13-.48-2.08-1.15-2.86-2.02-.78-.86-1.37-1.9-1.76-3.1s-.59-2.52-.59-3.96c0-1.32.21-2.57.63-3.76.42-1.19,1.02-2.23,1.8-3.13.78-.9,1.72-1.61,2.83-2.14,1.1-.53,2.35-.79,3.74-.79,1.46,0,2.78.31,3.94.92,1.16.61,2.13,1.42,2.9,2.43.77,1.01,1.33,2.17,1.67,3.47.35,1.31.44,2.66.27,4.05h-13.68Zm9.58-2.7c-.05-.65-.19-1.27-.41-1.87-.23-.6-.54-1.12-.94-1.57s-.88-.8-1.44-1.08c-.56-.28-1.19-.41-1.89-.41s-1.37.13-1.96.38c-.59.25-1.09.6-1.51,1.04-.42.44-.76.97-1.01,1.57-.25.6-.39,1.25-.41,1.94h9.58Z"/><path class="cls-18" d="m747.69,710.39h3.89v2.74l.07.07c.62-1.03,1.44-1.84,2.45-2.43,1.01-.59,2.12-.88,3.35-.88,2.04,0,3.65.53,4.82,1.58,1.18,1.06,1.76,2.64,1.76,4.75v12.78h-4.1v-11.7c-.05-1.46-.36-2.53-.94-3.19-.58-.66-1.48-.99-2.7-.99-.7,0-1.32.13-1.87.38-.55.25-1.02.6-1.4,1.04s-.68.97-.9,1.57c-.22.6-.32,1.24-.32,1.91v10.98h-4.1v-18.61Z"/><path class="cls-18" d="m702.9,735.29h12.49c2.3,0,4.15.53,5.54,1.58,1.39,1.06,2.09,2.65,2.09,4.79,0,1.3-.32,2.41-.95,3.33s-1.54,1.64-2.72,2.14v.07c1.58.34,2.78,1.09,3.6,2.25.82,1.16,1.22,2.62,1.22,4.37,0,1.01-.18,1.95-.54,2.83-.36.88-.92,1.63-1.69,2.27-.77.64-1.75,1.14-2.95,1.51-1.2.37-2.63.56-4.28.56h-11.81v-25.7Zm4.5,10.76h7.34c1.08,0,1.98-.31,2.7-.92.72-.61,1.08-1.49,1.08-2.65,0-1.3-.32-2.21-.97-2.74-.65-.53-1.58-.79-2.81-.79h-7.34v7.09Zm0,11.27h7.96c1.37,0,2.43-.35,3.19-1.06.76-.71,1.13-1.71,1.13-3.01s-.38-2.25-1.13-2.93c-.76-.68-1.82-1.03-3.19-1.03h-7.96v8.03Z"/><path class="cls-18" d="m728.14,735.29h4.5v10.22h11.7v-10.22h4.5v25.7h-4.5v-11.59h-11.7v11.59h-4.5v-25.7Z"/><path class="cls-18" d="m753.95,735.29h4.5v14.98c0,.86.04,1.74.13,2.63.08.89.32,1.69.72,2.39s1,1.29,1.8,1.75c.8.46,1.94.68,3.4.68s2.6-.23,3.4-.68c.8-.46,1.4-1.04,1.8-1.75.4-.71.64-1.51.72-2.39.08-.89.13-1.76.13-2.63v-14.98h4.5v16.45c0,1.66-.25,3.1-.76,4.32-.5,1.22-1.22,2.25-2.14,3.08-.92.83-2.03,1.45-3.33,1.85s-2.74.61-4.32.61-3.02-.2-4.32-.61c-1.3-.41-2.41-1.03-3.33-1.85-.92-.83-1.64-1.85-2.14-3.08-.5-1.22-.76-2.66-.76-4.32v-16.45Z"/><path class="cls-18" d="m780.23,735.29h4.5v21.82h13.07v3.89h-17.57v-25.7Z"/><path class="cls-18" d="m800.89,735.29h4.5v21.82h13.07v3.89h-17.57v-25.7Z"/><path class="cls-18" d="m828.43,735.29h4.79l9.9,25.7h-4.82l-2.41-6.8h-10.26l-2.41,6.8h-4.64l9.86-25.7Zm-1.58,15.48h7.85l-3.85-11.05h-.11l-3.89,11.05Z"/><path class="cls-18" d="m845.57,735.29h12.28c2.83,0,4.96.61,6.37,1.84s2.12,2.93,2.12,5.11c0,1.22-.18,2.24-.54,3.04-.36.8-.78,1.45-1.26,1.94-.48.49-.95.85-1.42,1.06-.47.22-.81.36-1.03.43v.07c.38.05.8.17,1.24.36.44.19.86.5,1.24.92.38.42.7.97.95,1.64.25.67.38,1.51.38,2.52,0,1.51.11,2.89.34,4.12.23,1.24.58,2.12,1.06,2.65h-4.82c-.34-.55-.53-1.16-.59-1.84-.06-.67-.09-1.32-.09-1.94,0-1.18-.07-2.19-.22-3.04-.14-.85-.41-1.56-.79-2.12-.38-.56-.91-.98-1.57-1.24-.66-.26-1.51-.4-2.54-.4h-6.62v10.58h-4.5v-25.7Zm4.5,11.7h7.38c1.44,0,2.53-.34,3.28-1.03.74-.68,1.12-1.71,1.12-3.08,0-.82-.12-1.48-.36-2-.24-.52-.57-.92-.99-1.21-.42-.29-.9-.48-1.44-.58-.54-.09-1.1-.14-1.67-.14h-7.31v8.03Z"/><path class="cls-18" d="m668.86,806.29v56.65h-56.65v-56.65h56.65m10-10h-76.65v76.65h76.65v-76.65h0Z"/><text class="cls-3" transform="translate(700.17 830.03)"><tspan x="0" y="0">5’1”</tspan><tspan x="0" y="32">ISAAC</tspan></text><path class="cls-18" d="m1193.76,705.26v56.65h-56.65v-56.65h56.65m10-10h-76.65v76.65h76.65v-76.65h0Z"/><path class="cls-18" d="m1233.2,703.29v10.66l10.04-10.66h7.06l-10.04,10.15,11.02,15.55h-7.09l-7.74-11.56-3.24,3.28v8.28h-5.65v-25.7h5.65Z"/><path class="cls-18" d="m1253.33,703.29h4.1v25.7h-4.1v-25.7Z"/><path class="cls-18" d="m1277.48,724.86c0,.5.07.86.2,1.08s.39.32.77.32h.43c.17,0,.36-.02.58-.07v2.84c-.14.05-.33.1-.56.16-.23.06-.46.11-.7.16-.24.05-.48.08-.72.11-.24.02-.44.04-.61.04-.84,0-1.54-.17-2.09-.5s-.91-.92-1.08-1.76c-.82.79-1.82,1.37-3.01,1.73-1.19.36-2.33.54-3.44.54-.84,0-1.64-.11-2.41-.34-.77-.23-1.45-.56-2.03-1.01-.59-.44-1.06-1.01-1.4-1.69-.35-.68-.52-1.48-.52-2.39,0-1.15.21-2.09.63-2.81s.97-1.28,1.66-1.69c.68-.41,1.45-.7,2.3-.88.85-.18,1.71-.32,2.57-.41.74-.14,1.45-.25,2.12-.31.67-.06,1.27-.16,1.78-.31.52-.14.92-.37,1.22-.67.3-.3.45-.75.45-1.35,0-.53-.13-.96-.38-1.3-.25-.34-.56-.59-.94-.77-.37-.18-.79-.3-1.24-.36-.46-.06-.89-.09-1.3-.09-1.15,0-2.1.24-2.84.72-.74.48-1.16,1.22-1.26,2.23h-4.1c.07-1.2.36-2.2.86-2.99s1.15-1.43,1.93-1.91c.78-.48,1.66-.82,2.65-1.01.98-.19,1.99-.29,3.02-.29.91,0,1.81.1,2.7.29.89.19,1.69.5,2.39.94.71.43,1.28.99,1.71,1.67.43.68.65,1.52.65,2.5v9.58Zm-4.1-5.18c-.62.41-1.39.65-2.3.74s-1.82.21-2.74.38c-.43.07-.85.17-1.26.31-.41.13-.77.31-1.08.54-.31.23-.56.53-.74.9s-.27.82-.27,1.35c0,.46.13.84.4,1.15.26.31.58.56.95.74.37.18.78.31,1.22.38.44.07.85.11,1.21.11.46,0,.95-.06,1.48-.18.53-.12,1.03-.32,1.49-.61.47-.29.86-.65,1.17-1.1.31-.44.47-.99.47-1.64v-3.06Z"/><path class="cls-18" d="m1297.5,724.86c0,.5.07.86.2,1.08s.39.32.77.32h.43c.17,0,.36-.02.58-.07v2.84c-.14.05-.33.1-.56.16-.23.06-.46.11-.7.16-.24.05-.48.08-.72.11-.24.02-.44.04-.61.04-.84,0-1.54-.17-2.09-.5-.55-.34-.91-.92-1.08-1.76-.82.79-1.82,1.37-3.01,1.73-1.19.36-2.33.54-3.44.54-.84,0-1.64-.11-2.41-.34-.77-.23-1.45-.56-2.03-1.01-.59-.44-1.06-1.01-1.4-1.69-.35-.68-.52-1.48-.52-2.39,0-1.15.21-2.09.63-2.81.42-.72.97-1.28,1.66-1.69.68-.41,1.45-.7,2.3-.88.85-.18,1.71-.32,2.57-.41.74-.14,1.45-.25,2.12-.31.67-.06,1.27-.16,1.78-.31.52-.14.92-.37,1.22-.67s.45-.75.45-1.35c0-.53-.13-.96-.38-1.3-.25-.34-.56-.59-.94-.77-.37-.18-.79-.3-1.24-.36-.46-.06-.89-.09-1.3-.09-1.15,0-2.1.24-2.84.72-.74.48-1.17,1.22-1.26,2.23h-4.1c.07-1.2.36-2.2.86-2.99.5-.79,1.15-1.43,1.93-1.91.78-.48,1.66-.82,2.65-1.01.98-.19,1.99-.29,3.02-.29.91,0,1.81.1,2.7.29.89.19,1.69.5,2.39.94.71.43,1.28.99,1.71,1.67.43.68.65,1.52.65,2.5v9.58Zm-4.1-5.18c-.62.41-1.39.65-2.3.74s-1.82.21-2.74.38c-.43.07-.85.17-1.26.31s-.77.31-1.08.54c-.31.23-.56.53-.74.9-.18.37-.27.82-.27,1.35,0,.46.13.84.4,1.15.26.31.58.56.95.74.37.18.78.31,1.22.38.44.07.85.11,1.21.11.46,0,.95-.06,1.48-.18.53-.12,1.03-.32,1.49-.61s.86-.65,1.17-1.1c.31-.44.47-.99.47-1.64v-3.06Z"/><path class="cls-18" d="m1300.06,710.39h3.1v-5.58h4.1v5.58h3.71v3.06h-3.71v9.94c0,.43.02.8.05,1.12s.12.58.25.79c.13.22.33.38.59.49.26.11.62.16,1.08.16.29,0,.58,0,.86-.02.29-.01.58-.05.86-.13v3.17c-.46.05-.9.1-1.33.14-.43.05-.88.07-1.33.07-1.08,0-1.95-.1-2.61-.31-.66-.2-1.18-.5-1.55-.9-.37-.4-.62-.89-.76-1.49-.13-.6-.21-1.28-.23-2.05v-10.98h-3.1v-3.06Z"/><path class="cls-18" d="m1225.36,735.29h20.81v3.89h-8.17v21.82h-4.5v-21.82h-8.14v-3.89Z"/><path class="cls-18" d="m1249.15,735.29h12.28c2.83,0,4.96.61,6.37,1.84s2.12,2.93,2.12,5.11c0,1.22-.18,2.24-.54,3.04-.36.8-.78,1.45-1.26,1.94-.48.49-.95.85-1.42,1.06-.47.22-.81.36-1.03.43v.07c.38.05.8.17,1.24.36.44.19.86.5,1.24.92.38.42.7.97.95,1.64.25.67.38,1.51.38,2.52,0,1.51.11,2.89.34,4.12.23,1.24.58,2.12,1.06,2.65h-4.82c-.34-.55-.53-1.16-.59-1.84s-.09-1.32-.09-1.94c0-1.18-.07-2.19-.22-3.04-.14-.85-.41-1.56-.79-2.12-.38-.56-.91-.98-1.57-1.24-.66-.26-1.51-.4-2.54-.4h-6.62v10.58h-4.5v-25.7Zm4.5,11.7h7.38c1.44,0,2.53-.34,3.28-1.03.74-.68,1.12-1.71,1.12-3.08,0-.82-.12-1.48-.36-2-.24-.52-.57-.92-.99-1.21-.42-.29-.9-.48-1.44-.58-.54-.09-1.1-.14-1.67-.14h-7.31v8.03Z"/><path class="cls-18" d="m1274.49,735.29h4.5v25.7h-4.5v-25.7Z"/><path class="cls-18" d="m1298.36,752.72c0,1.13-.1,2.22-.29,3.28-.19,1.06-.58,2-1.17,2.84-.59.84-1.44,1.51-2.56,2.02-1.12.5-2.6.76-4.45.76-1.37,0-2.53-.21-3.49-.63-.96-.42-1.75-1-2.38-1.73-.62-.73-1.08-1.6-1.37-2.61-.29-1.01-.43-2.1-.43-3.28v-1.37h4.5v1.33c0,1.46.25,2.6.74,3.4.49.8,1.42,1.21,2.79,1.21.72,0,1.31-.11,1.78-.32.47-.22.84-.53,1.12-.95.28-.42.46-.94.56-1.57.1-.62.14-1.33.14-2.12v-17.68h4.5v17.42Z"/><path class="cls-18" d="m1314.78,734.68c1.92,0,3.64.36,5.17,1.08,1.52.72,2.81,1.69,3.87,2.92,1.06,1.22,1.87,2.65,2.43,4.28.56,1.63.85,3.36.85,5.18s-.28,3.59-.85,5.22c-.56,1.63-1.37,3.06-2.43,4.28-1.06,1.22-2.35,2.19-3.87,2.9-1.52.71-3.25,1.06-5.17,1.06s-3.64-.35-5.17-1.06c-1.52-.71-2.81-1.67-3.87-2.9-1.06-1.22-1.87-2.65-2.43-4.28-.56-1.63-.85-3.37-.85-5.22s.28-3.55.85-5.18c.56-1.63,1.37-3.06,2.43-4.28,1.06-1.22,2.35-2.2,3.87-2.92,1.52-.72,3.25-1.08,5.17-1.08Zm0,3.67c-1.37,0-2.55.28-3.55.83-1,.55-1.81,1.29-2.43,2.21-.62.92-1.09,1.97-1.39,3.15-.3,1.18-.45,2.38-.45,3.6s.15,2.42.45,3.6c.3,1.18.76,2.23,1.39,3.15s1.43,1.66,2.43,2.21,2.18.83,3.55.83,2.55-.28,3.55-.83c1-.55,1.81-1.29,2.43-2.21s1.09-1.97,1.39-3.15.45-2.38.45-3.6-.15-2.42-.45-3.6c-.3-1.18-.76-2.23-1.39-3.15-.62-.92-1.43-1.66-2.43-2.21-1-.55-2.18-.83-3.55-.83Z"/><path class="cls-18" d="m1193.76,806.29v56.65h-56.65v-56.65h56.65m10-10h-76.65v76.65h76.65v-76.65h0Z"/><text class="cls-19" transform="translate(1225.07 830.03)"><tspan class="cls-14" x="0" y="0">K</tspan><tspan class="cls-8" x="25.99" y="0">rusty</tspan><tspan class="cls-8"><tspan x="0" y="32">LO</tspan></tspan></text><path class="cls-18" d="m1193.76,908.48v56.65h-56.65v-56.65h56.65m10-10h-76.65v76.65h76.65v-76.65h0Z"/><text class="cls-19" transform="translate(1225.07 932.22)"><tspan class="cls-14" x="0" y="0">K</tspan><tspan class="cls-8" x="25.99" y="0">onor</tspan><tspan class="cls-8"><tspan x="0" y="32">DOYLE</tspan></tspan></text><path class="cls-18" d="m1711.69,705.26v56.65h-56.65v-56.65h56.65m10-10h-76.65v76.65h76.65v-76.65h0Z"/><path class="cls-18" d="m1745.74,703.29h4.5v11.7l11.45-11.7h5.54l-10.26,10.26,10.98,15.44h-5.62l-8.42-12.28-3.67,3.64v8.64h-4.5v-25.7Z"/><path class="cls-18" d="m1773.03,720.75c0,.72.1,1.42.31,2.09.2.67.51,1.26.92,1.76.41.5.92.91,1.55,1.21.62.3,1.37.45,2.23.45,1.2,0,2.17-.26,2.9-.77.73-.52,1.28-1.29,1.64-2.32h3.89c-.22,1.01-.59,1.91-1.12,2.7-.53.79-1.16,1.46-1.91,2-.74.54-1.58.95-2.5,1.22s-1.89.41-2.9.41c-1.46,0-2.76-.24-3.89-.72-1.13-.48-2.08-1.15-2.86-2.02-.78-.86-1.37-1.9-1.76-3.1-.4-1.2-.59-2.52-.59-3.96,0-1.32.21-2.57.63-3.76.42-1.19,1.02-2.23,1.8-3.13.78-.9,1.72-1.61,2.83-2.14,1.1-.53,2.35-.79,3.74-.79,1.46,0,2.78.31,3.94.92,1.16.61,2.13,1.42,2.9,2.43.77,1.01,1.33,2.17,1.67,3.47.35,1.31.44,2.66.27,4.05h-13.68Zm9.58-2.7c-.05-.65-.19-1.27-.41-1.87-.23-.6-.54-1.12-.94-1.57-.4-.44-.88-.8-1.44-1.08-.56-.28-1.19-.41-1.89-.41s-1.37.13-1.96.38c-.59.25-1.09.6-1.51,1.04-.42.44-.76.97-1.01,1.57-.25.6-.39,1.25-.41,1.94h9.58Z"/><path class="cls-18" d="m1788,710.39h4.46l4.72,14.29h.07l4.54-14.29h4.25l-6.66,18.61h-4.61l-6.77-18.61Z"/><path class="cls-18" d="m1808.63,703.29h4.1v3.89h-4.1v-3.89Zm0,7.09h4.1v18.61h-4.1v-18.61Z"/><path class="cls-18" d="m1817.2,710.39h3.89v2.74l.07.07c.62-1.03,1.44-1.84,2.45-2.43,1.01-.59,2.12-.88,3.35-.88,2.04,0,3.65.53,4.82,1.58,1.18,1.06,1.76,2.64,1.76,4.75v12.78h-4.1v-11.7c-.05-1.46-.36-2.53-.94-3.19-.58-.66-1.48-.99-2.7-.99-.7,0-1.32.13-1.87.38-.55.25-1.02.6-1.4,1.04s-.68.97-.9,1.57c-.22.6-.32,1.24-.32,1.91v10.98h-4.1v-18.61Z"/><path class="cls-18" d="m1848.45,703.29h17.75v3.89h-13.25v6.73h11.63v3.67h-11.63v11.41h-4.5v-25.7Z"/><path class="cls-18" d="m1869.22,710.39h3.85v3.6h.07c.12-.5.35-1,.7-1.48.35-.48.77-.92,1.26-1.31.49-.4,1.04-.71,1.64-.95.6-.24,1.21-.36,1.84-.36.48,0,.81.01.99.04.18.02.37.05.56.07v3.96c-.29-.05-.58-.09-.88-.13-.3-.04-.59-.05-.88-.05-.7,0-1.35.14-1.96.41-.61.28-1.15.68-1.6,1.22-.46.54-.82,1.21-1.08,2-.26.79-.4,1.7-.4,2.74v8.86h-4.1v-18.61Z"/><path class="cls-18" d="m1889.77,729.5c-1.49,0-2.81-.25-3.98-.74-1.16-.49-2.15-1.17-2.95-2.03-.8-.86-1.42-1.9-1.84-3.1s-.63-2.52-.63-3.96.21-2.72.63-3.92,1.03-2.23,1.84-3.1c.8-.86,1.79-1.54,2.95-2.03,1.16-.49,2.49-.74,3.98-.74s2.81.25,3.98.74c1.16.49,2.15,1.17,2.95,2.03.8.86,1.42,1.9,1.84,3.1.42,1.2.63,2.51.63,3.92s-.21,2.76-.63,3.96c-.42,1.2-1.03,2.23-1.84,3.1-.8.86-1.79,1.54-2.95,2.03-1.16.49-2.49.74-3.98.74Zm0-3.24c.91,0,1.7-.19,2.38-.58.67-.38,1.22-.89,1.66-1.51s.75-1.33.95-2.11c.2-.78.31-1.58.31-2.39s-.1-1.58-.31-2.38-.52-1.49-.95-2.11c-.43-.61-.98-1.11-1.66-1.49s-1.46-.58-2.38-.58-1.7.19-2.38.58-1.22.88-1.66,1.49c-.43.61-.75,1.31-.95,2.11-.2.79-.31,1.58-.31,2.38s.1,1.61.31,2.39c.2.78.52,1.48.95,2.11.43.62.98,1.13,1.66,1.51.67.38,1.46.58,2.38.58Z"/><path class="cls-18" d="m1902.59,710.39h3.89v2.59h.11c.31-.46.65-.88,1.01-1.26.36-.38.76-.71,1.21-.97s.95-.47,1.53-.63c.58-.16,1.24-.23,1.98-.23,1.13,0,2.18.25,3.15.76.97.5,1.66,1.28,2.07,2.34.7-.96,1.5-1.72,2.41-2.27.91-.55,2.05-.83,3.42-.83,1.97,0,3.5.48,4.59,1.44,1.09.96,1.64,2.57,1.64,4.82v12.85h-4.1v-10.87c0-.74-.02-1.42-.07-2.03-.05-.61-.19-1.14-.41-1.58-.23-.44-.57-.79-1.03-1.03-.46-.24-1.08-.36-1.87-.36-1.39,0-2.4.43-3.02,1.3-.62.86-.94,2.09-.94,3.67v10.91h-4.1v-11.95c0-1.3-.23-2.27-.7-2.93-.47-.66-1.33-.99-2.57-.99-.53,0-1.04.11-1.53.32-.49.22-.92.53-1.3.94s-.67.91-.9,1.51c-.23.6-.34,1.28-.34,2.05v11.05h-4.1v-18.61Z"/><path class="cls-18" d="m1763.09,743.47c-.19-.74-.46-1.43-.79-2.05-.34-.62-.77-1.16-1.3-1.62-.53-.46-1.15-.81-1.85-1.06s-1.53-.38-2.47-.38c-1.37,0-2.55.28-3.55.83-1,.55-1.81,1.29-2.43,2.21-.62.92-1.09,1.97-1.39,3.15-.3,1.18-.45,2.38-.45,3.6s.15,2.42.45,3.6.76,2.23,1.39,3.15c.62.92,1.43,1.66,2.43,2.21,1,.55,2.18.83,3.55.83,1.01,0,1.9-.17,2.66-.52.77-.35,1.43-.83,1.98-1.44.55-.61.98-1.33,1.3-2.14.31-.82.52-1.69.61-2.63h4.39c-.1,1.54-.43,2.94-.99,4.21-.56,1.27-1.33,2.37-2.29,3.29-.96.92-2.09,1.64-3.38,2.14-1.3.5-2.72.76-4.28.76-1.92,0-3.64-.35-5.17-1.06-1.52-.71-2.81-1.67-3.87-2.9-1.06-1.22-1.87-2.65-2.43-4.28-.56-1.63-.85-3.37-.85-5.22s.28-3.55.85-5.18c.56-1.63,1.37-3.06,2.43-4.28,1.06-1.22,2.35-2.2,3.87-2.92,1.52-.72,3.25-1.08,5.17-1.08,1.44,0,2.8.2,4.07.59,1.27.4,2.39.97,3.37,1.73.97.76,1.76,1.67,2.36,2.75.6,1.08.97,2.32,1.12,3.71h-4.5Z"/><path class="cls-18" d="m1771.62,735.29h4.5v10.22h11.7v-10.22h4.5v25.7h-4.5v-11.59h-11.7v11.59h-4.5v-25.7Z"/><path class="cls-18" d="m1797.72,735.29h4.5v25.7h-4.5v-25.7Z"/><path class="cls-18" d="m1825.08,743.47c-.19-.74-.46-1.43-.79-2.05s-.77-1.16-1.3-1.62-1.15-.81-1.85-1.06c-.71-.25-1.53-.38-2.47-.38-1.37,0-2.55.28-3.55.83-1,.55-1.81,1.29-2.43,2.21-.62.92-1.09,1.97-1.39,3.15-.3,1.18-.45,2.38-.45,3.6s.15,2.42.45,3.6c.3,1.18.76,2.23,1.39,3.15s1.43,1.66,2.43,2.21,2.18.83,3.55.83c1.01,0,1.9-.17,2.66-.52.77-.35,1.43-.83,1.98-1.44.55-.61.98-1.33,1.3-2.14.31-.82.52-1.69.61-2.63h4.39c-.1,1.54-.43,2.94-.99,4.21-.56,1.27-1.33,2.37-2.29,3.29-.96.92-2.09,1.64-3.38,2.14-1.3.5-2.72.76-4.28.76-1.92,0-3.64-.35-5.17-1.06-1.52-.71-2.81-1.67-3.87-2.9-1.06-1.22-1.87-2.65-2.43-4.28-.56-1.63-.85-3.37-.85-5.22s.28-3.55.85-5.18c.56-1.63,1.37-3.06,2.43-4.28,1.06-1.22,2.35-2.2,3.87-2.92,1.52-.72,3.25-1.08,5.17-1.08,1.44,0,2.79.2,4.07.59,1.27.4,2.39.97,3.37,1.73s1.76,1.67,2.36,2.75c.6,1.08.97,2.32,1.12,3.71h-4.5Z"/><path class="cls-18" d="m1833.72,735.29h4.5v11.7l11.45-11.7h5.54l-10.26,10.26,10.98,15.44h-5.62l-8.42-12.28-3.67,3.64v8.64h-4.5v-25.7Z"/><path class="cls-18" d="m1858.38,735.29h18.5v3.89h-14v6.73h12.96v3.67h-12.96v7.52h14.26v3.89h-18.76v-25.7Z"/><path class="cls-18" d="m1880.88,735.29h4.75l11.74,18.94h.07v-18.94h4.28v25.7h-4.75l-11.7-18.9h-.11v18.9h-4.28v-25.7Z"/><path class="cls-18" d="m1914.61,735.29h20.81v3.89h-8.17v21.82h-4.5v-21.82h-8.14v-3.89Z"/><path class="cls-18" d="m1938.41,735.29h12.28c2.83,0,4.96.61,6.37,1.84s2.12,2.93,2.12,5.11c0,1.22-.18,2.24-.54,3.04-.36.8-.78,1.45-1.26,1.94-.48.49-.95.85-1.42,1.06-.47.22-.81.36-1.03.43v.07c.38.05.8.17,1.24.36.44.19.86.5,1.24.92.38.42.7.97.95,1.64.25.67.38,1.51.38,2.52,0,1.51.11,2.89.34,4.12.23,1.24.58,2.12,1.06,2.65h-4.82c-.34-.55-.53-1.16-.59-1.84s-.09-1.32-.09-1.94c0-1.18-.07-2.19-.22-3.04-.14-.85-.41-1.56-.79-2.12-.38-.56-.91-.98-1.57-1.24-.66-.26-1.51-.4-2.54-.4h-6.62v10.58h-4.5v-25.7Zm4.5,11.7h7.38c1.44,0,2.53-.34,3.28-1.03.74-.68,1.12-1.71,1.12-3.08,0-.82-.12-1.48-.36-2-.24-.52-.57-.92-.99-1.21-.42-.29-.9-.48-1.44-.58-.54-.09-1.1-.14-1.67-.14h-7.31v8.03Z"/><path class="cls-18" d="m1963.75,735.29h18.5v3.89h-14v6.73h12.96v3.67h-12.96v7.52h14.26v3.89h-18.76v-25.7Z"/><path class="cls-18" d="m1993.31,735.29h4.79l9.9,25.7h-4.82l-2.41-6.8h-10.26l-2.41,6.8h-4.64l9.86-25.7Zm-1.58,15.48h7.85l-3.85-11.05h-.11l-3.89,11.05Z"/><path class="cls-18" d="m2004.68,735.29h20.81v3.89h-8.17v21.82h-4.5v-21.82h-8.14v-3.89Z"/><path class="cls-18" d="m1711.69,806.29v56.65h-56.65v-56.65h56.65m10-10h-76.65v76.65h76.65v-76.65h0Z"/><path class="cls-18" d="m1744.98,804.33h19.55v3.42l-14.98,18.4h15.34v3.89h-21.06v-3.67l14.98-18.14h-13.82v-3.89Z"/><path class="cls-18" d="m1783.43,825.89c0,.5.07.86.2,1.08s.39.32.77.32h.43c.17,0,.36-.02.58-.07v2.84c-.14.05-.33.1-.56.16-.23.06-.46.11-.7.16-.24.05-.48.08-.72.11-.24.02-.44.04-.61.04-.84,0-1.54-.17-2.09-.5-.55-.34-.91-.92-1.08-1.76-.82.79-1.82,1.37-3.01,1.73-1.19.36-2.33.54-3.44.54-.84,0-1.64-.11-2.41-.34-.77-.23-1.45-.56-2.03-1.01-.59-.44-1.06-1.01-1.4-1.69-.35-.68-.52-1.48-.52-2.39,0-1.15.21-2.09.63-2.81.42-.72.97-1.28,1.66-1.69.68-.41,1.45-.7,2.3-.88.85-.18,1.71-.32,2.57-.41.74-.14,1.45-.25,2.12-.31.67-.06,1.27-.16,1.78-.31.52-.14.92-.37,1.22-.67s.45-.75.45-1.35c0-.53-.13-.96-.38-1.3-.25-.34-.56-.59-.94-.77-.37-.18-.79-.3-1.24-.36-.46-.06-.89-.09-1.3-.09-1.15,0-2.1.24-2.84.72-.74.48-1.17,1.22-1.26,2.23h-4.1c.07-1.2.36-2.2.86-2.99.5-.79,1.15-1.43,1.93-1.91.78-.48,1.66-.82,2.65-1.01s1.99-.29,3.02-.29c.91,0,1.81.1,2.7.29.89.19,1.69.5,2.39.94.71.43,1.28.99,1.71,1.67.43.68.65,1.52.65,2.5v9.58Zm-4.1-5.18c-.62.41-1.39.65-2.3.74s-1.82.21-2.74.38c-.43.07-.85.17-1.26.31s-.77.31-1.08.54c-.31.23-.56.53-.74.9-.18.37-.27.82-.27,1.35,0,.46.13.84.4,1.15.26.31.58.56.95.74.37.18.78.31,1.22.38.44.07.85.11,1.21.11.46,0,.95-.06,1.48-.18.53-.12,1.03-.32,1.49-.61s.86-.65,1.17-1.1c.31-.44.47-.99.47-1.64v-3.06Z"/><path class="cls-18" d="m1800.42,817.65c-.17-1.15-.63-2.02-1.39-2.61-.76-.59-1.71-.88-2.86-.88-.53,0-1.09.09-1.69.27-.6.18-1.15.52-1.66,1.01-.5.49-.92,1.18-1.26,2.05s-.5,2.02-.5,3.44c0,.77.09,1.54.27,2.3.18.77.47,1.45.86,2.05.4.6.91,1.09,1.53,1.46s1.38.56,2.27.56c1.2,0,2.19-.37,2.97-1.12.78-.74,1.27-1.79,1.46-3.13h4.1c-.38,2.42-1.3,4.28-2.75,5.56s-3.38,1.93-5.78,1.93c-1.46,0-2.75-.25-3.87-.74-1.12-.49-2.06-1.16-2.83-2.02-.77-.85-1.35-1.87-1.75-3.04-.4-1.18-.59-2.45-.59-3.82s.19-2.7.58-3.92.96-2.29,1.73-3.19c.77-.9,1.72-1.61,2.86-2.12,1.14-.52,2.48-.77,4.01-.77,1.08,0,2.11.14,3.08.41.97.28,1.84.69,2.59,1.24s1.37,1.25,1.85,2.09.77,1.84.86,2.99h-4.1Z"/><path class="cls-18" d="m1807.87,804.33h4.1v9.54h.07c.5-.84,1.25-1.54,2.25-2.11,1-.56,2.11-.85,3.33-.85,2.04,0,3.65.53,4.82,1.58,1.18,1.06,1.76,2.64,1.76,4.75v12.78h-4.1v-11.7c-.05-1.46-.36-2.53-.94-3.19-.58-.66-1.48-.99-2.7-.99-.7,0-1.32.13-1.87.38-.55.25-1.02.6-1.4,1.04s-.68.97-.9,1.57c-.22.6-.32,1.24-.32,1.91v10.98h-4.1v-25.7Z"/><path class="cls-18" d="m1748.69,853.46c0,.98.17,1.82.5,2.52s.8,1.27,1.4,1.71c.6.44,1.29.77,2.07.97.78.2,1.62.31,2.54.31.98,0,1.82-.11,2.52-.34.7-.23,1.26-.52,1.69-.88.43-.36.74-.77.94-1.24.19-.47.29-.94.29-1.42,0-.98-.22-1.71-.67-2.18s-.93-.8-1.46-.99c-.91-.34-1.97-.65-3.19-.95-1.21-.3-2.71-.69-4.48-1.17-1.1-.29-2.02-.67-2.75-1.13-.73-.47-1.31-.99-1.75-1.57-.43-.58-.74-1.19-.92-1.84-.18-.65-.27-1.31-.27-1.98,0-1.3.27-2.42.81-3.37s1.25-1.73,2.14-2.36c.89-.62,1.9-1.08,3.02-1.39,1.13-.3,2.27-.45,3.42-.45,1.34,0,2.61.17,3.8.52,1.19.35,2.23.87,3.13,1.57.9.7,1.61,1.55,2.14,2.57.53,1.02.79,2.2.79,3.55h-4.5c-.12-1.66-.68-2.83-1.69-3.51s-2.29-1.03-3.85-1.03c-.53,0-1.07.05-1.62.16-.55.11-1.06.29-1.51.54-.46.25-.83.59-1.13,1.03-.3.43-.45.97-.45,1.62,0,.91.28,1.63.85,2.14.56.52,1.3.91,2.21,1.17.1.02.47.13,1.13.31.66.18,1.4.38,2.21.59.82.22,1.61.43,2.39.63.78.2,1.34.35,1.67.45.84.26,1.57.62,2.2,1.08.62.46,1.15.98,1.57,1.57.42.59.73,1.22.94,1.89.2.67.31,1.34.31,2.02,0,1.44-.29,2.67-.88,3.69-.59,1.02-1.36,1.85-2.32,2.5-.96.65-2.05,1.12-3.28,1.42-1.22.3-2.47.45-3.74.45-1.46,0-2.84-.18-4.14-.54-1.3-.36-2.42-.91-3.38-1.66-.96-.74-1.73-1.7-2.3-2.86-.58-1.16-.88-2.54-.9-4.12h4.5Z"/><path class="cls-18" d="m1775.94,836.33h4.79l9.9,25.7h-4.82l-2.41-6.8h-10.26l-2.41,6.8h-4.64l9.86-25.7Zm-1.58,15.48h7.85l-3.85-11.05h-.11l-3.89,11.05Z"/><path class="cls-18" d="m1793.08,836.33h12.28c2.83,0,4.96.61,6.37,1.84s2.12,2.93,2.12,5.11c0,1.22-.18,2.24-.54,3.04-.36.8-.78,1.45-1.26,1.94s-.95.85-1.42,1.06-.81.36-1.03.43v.07c.38.05.8.17,1.24.36s.86.5,1.24.92.7.97.95,1.64.38,1.51.38,2.52c0,1.51.11,2.89.34,4.12.23,1.24.58,2.12,1.06,2.65h-4.82c-.34-.55-.53-1.16-.59-1.84-.06-.67-.09-1.32-.09-1.94,0-1.18-.07-2.19-.22-3.04-.14-.85-.41-1.56-.79-2.12-.38-.56-.91-.98-1.57-1.24-.66-.26-1.51-.4-2.54-.4h-6.62v10.58h-4.5v-25.7Zm4.5,11.7h7.38c1.44,0,2.53-.34,3.28-1.03.74-.68,1.12-1.71,1.12-3.08,0-.82-.12-1.48-.36-2-.24-.52-.57-.92-.99-1.21s-.9-.48-1.44-.58c-.54-.09-1.1-.14-1.67-.14h-7.31v8.03Z"/><path class="cls-18" d="m1829.37,835.71c1.92,0,3.64.36,5.17,1.08,1.52.72,2.81,1.69,3.87,2.92,1.06,1.22,1.87,2.65,2.43,4.28.56,1.63.85,3.36.85,5.18s-.28,3.59-.85,5.22-1.37,3.06-2.43,4.28c-1.06,1.22-2.35,2.19-3.87,2.9-1.52.71-3.25,1.06-5.17,1.06s-3.64-.35-5.17-1.06c-1.52-.71-2.81-1.67-3.87-2.9-1.06-1.22-1.87-2.65-2.43-4.28-.56-1.63-.85-3.37-.85-5.22s.28-3.55.85-5.18c.56-1.63,1.37-3.06,2.43-4.28,1.06-1.22,2.35-2.2,3.87-2.92,1.52-.72,3.25-1.08,5.17-1.08Zm0,3.67c-1.37,0-2.55.28-3.55.83-1,.55-1.81,1.29-2.43,2.21-.62.92-1.09,1.97-1.39,3.15-.3,1.18-.45,2.38-.45,3.6s.15,2.42.45,3.6.76,2.23,1.39,3.15c.62.92,1.43,1.66,2.43,2.21,1,.55,2.18.83,3.55.83s2.55-.28,3.55-.83,1.81-1.29,2.43-2.21,1.09-1.97,1.39-3.15c.3-1.18.45-2.38.45-3.6s-.15-2.42-.45-3.6c-.3-1.18-.76-2.23-1.39-3.15-.62-.92-1.43-1.66-2.43-2.21-1-.55-2.18-.83-3.55-.83Z"/><path class="cls-18" d="m1845.6,836.33h4.75l11.74,18.94h.07v-18.94h4.28v25.7h-4.75l-11.7-18.9h-.11v18.9h-4.28v-25.7Z"/><path class="cls-18" d="m1871.81,844.39c.86-.12,1.45-.49,1.75-1.1.3-.61.45-1.31.45-2.11h-2.2v-4.86h4.5v4.86c0,1.39-.4,2.57-1.21,3.55-.8.97-1.9,1.55-3.29,1.75v-2.09Z"/><path class="cls-18" d="m1884.73,853.46c0,.98.17,1.82.5,2.52.34.7.8,1.27,1.4,1.71.6.44,1.29.77,2.07.97.78.2,1.63.31,2.54.31.98,0,1.82-.11,2.52-.34.7-.23,1.26-.52,1.69-.88.43-.36.74-.77.94-1.24.19-.47.29-.94.29-1.42,0-.98-.22-1.71-.67-2.18-.44-.47-.93-.8-1.46-.99-.91-.34-1.97-.65-3.19-.95-1.21-.3-2.71-.69-4.48-1.17-1.1-.29-2.02-.67-2.75-1.13-.73-.47-1.31-.99-1.75-1.57-.43-.58-.74-1.19-.92-1.84-.18-.65-.27-1.31-.27-1.98,0-1.3.27-2.42.81-3.37.54-.95,1.25-1.73,2.14-2.36.89-.62,1.9-1.08,3.02-1.39,1.13-.3,2.27-.45,3.42-.45,1.34,0,2.61.17,3.8.52,1.19.35,2.23.87,3.13,1.57.9.7,1.61,1.55,2.14,2.57.53,1.02.79,2.2.79,3.55h-4.5c-.12-1.66-.68-2.83-1.69-3.51s-2.29-1.03-3.85-1.03c-.53,0-1.07.05-1.62.16-.55.11-1.06.29-1.51.54s-.83.59-1.13,1.03c-.3.43-.45.97-.45,1.62,0,.91.28,1.63.85,2.14.56.52,1.3.91,2.21,1.17.09.02.47.13,1.13.31.66.18,1.4.38,2.21.59.82.22,1.61.43,2.39.63.78.2,1.34.35,1.67.45.84.26,1.57.62,2.2,1.08s1.15.98,1.57,1.57c.42.59.73,1.22.94,1.89s.31,1.34.31,2.02c0,1.44-.29,2.67-.88,3.69s-1.36,1.85-2.32,2.5c-.96.65-2.05,1.12-3.28,1.42s-2.47.45-3.74.45c-1.46,0-2.84-.18-4.14-.54-1.3-.36-2.42-.91-3.38-1.66-.96-.74-1.73-1.7-2.3-2.86-.58-1.16-.88-2.54-.9-4.12h4.5Z"/><path class="cls-18" d="m1937.54,862.03h-2.88l-.68-3.02c-1.2,1.37-2.4,2.32-3.6,2.84-1.2.53-2.58.79-4.14.79-1.92,0-3.64-.35-5.17-1.06-1.52-.71-2.81-1.67-3.87-2.9-1.06-1.22-1.87-2.65-2.43-4.28-.56-1.63-.85-3.37-.85-5.22s.28-3.55.85-5.18c.56-1.63,1.37-3.06,2.43-4.28,1.06-1.22,2.35-2.2,3.87-2.92,1.52-.72,3.25-1.08,5.17-1.08,1.39,0,2.72.19,3.98.56,1.26.37,2.38.92,3.37,1.66.98.73,1.8,1.65,2.45,2.75.65,1.1,1.06,2.38,1.22,3.82h-4.39c-.12-.84-.38-1.58-.77-2.21-.4-.64-.89-1.17-1.49-1.6-.6-.43-1.27-.76-2.02-.97s-1.52-.32-2.34-.32c-1.37,0-2.55.28-3.55.83-1,.55-1.81,1.29-2.43,2.21-.62.92-1.09,1.97-1.39,3.15-.3,1.18-.45,2.38-.45,3.6s.15,2.42.45,3.6.76,2.23,1.39,3.15,1.43,1.66,2.43,2.21c1,.55,2.18.83,3.55.83,1.15.02,2.17-.13,3.06-.45s1.64-.79,2.25-1.4c.61-.61,1.07-1.36,1.39-2.25.31-.89.48-1.87.5-2.95h-6.84v-3.42h10.94v13.54Z"/><path class="cls-18" d="m1942.44,836.33h4.5v21.82h13.07v3.89h-17.57v-25.7Z"/><path class="cls-18" d="m1969.98,836.33h4.79l9.9,25.7h-4.82l-2.41-6.8h-10.26l-2.41,6.8h-4.64l9.86-25.7Zm-1.58,15.48h7.85l-3.85-11.05h-.11l-3.89,11.05Z"/><path class="cls-18" d="m1990.07,853.46c0,.98.17,1.82.5,2.52.34.7.8,1.27,1.4,1.71.6.44,1.29.77,2.07.97.78.2,1.63.31,2.54.31.98,0,1.82-.11,2.52-.34.7-.23,1.26-.52,1.69-.88.43-.36.74-.77.94-1.24.19-.47.29-.94.29-1.42,0-.98-.22-1.71-.67-2.18-.44-.47-.93-.8-1.46-.99-.91-.34-1.97-.65-3.19-.95-1.21-.3-2.71-.69-4.48-1.17-1.1-.29-2.02-.67-2.75-1.13-.73-.47-1.31-.99-1.75-1.57-.43-.58-.74-1.19-.92-1.84-.18-.65-.27-1.31-.27-1.98,0-1.3.27-2.42.81-3.37.54-.95,1.25-1.73,2.14-2.36.89-.62,1.9-1.08,3.02-1.39,1.13-.3,2.27-.45,3.42-.45,1.34,0,2.61.17,3.8.52,1.19.35,2.23.87,3.13,1.57.9.7,1.61,1.55,2.14,2.57.53,1.02.79,2.2.79,3.55h-4.5c-.12-1.66-.68-2.83-1.69-3.51s-2.29-1.03-3.85-1.03c-.53,0-1.07.05-1.62.16-.55.11-1.06.29-1.51.54s-.83.59-1.13,1.03c-.3.43-.45.97-.45,1.62,0,.91.28,1.63.85,2.14.56.52,1.3.91,2.21,1.17.09.02.47.13,1.13.31.66.18,1.4.38,2.21.59.82.22,1.61.43,2.39.63.78.2,1.34.35,1.67.45.84.26,1.57.62,2.2,1.08s1.15.98,1.57,1.57c.42.59.73,1.22.94,1.89s.31,1.34.31,2.02c0,1.44-.29,2.67-.88,3.69s-1.36,1.85-2.32,2.5c-.96.65-2.05,1.12-3.28,1.42s-2.47.45-3.74.45c-1.46,0-2.84-.18-4.14-.54-1.3-.36-2.42-.91-3.38-1.66-.96-.74-1.73-1.7-2.3-2.86-.58-1.16-.88-2.54-.9-4.12h4.5Z"/><path class="cls-18" d="m2013.4,853.46c0,.98.17,1.82.5,2.52s.8,1.27,1.4,1.71c.6.44,1.29.77,2.07.97.78.2,1.62.31,2.54.31.98,0,1.82-.11,2.52-.34.7-.23,1.26-.52,1.69-.88.43-.36.74-.77.94-1.24.19-.47.29-.94.29-1.42,0-.98-.22-1.71-.67-2.18s-.93-.8-1.46-.99c-.91-.34-1.97-.65-3.19-.95-1.21-.3-2.71-.69-4.48-1.17-1.1-.29-2.02-.67-2.75-1.13-.73-.47-1.31-.99-1.75-1.57-.43-.58-.74-1.19-.92-1.84-.18-.65-.27-1.31-.27-1.98,0-1.3.27-2.42.81-3.37s1.25-1.73,2.14-2.36c.89-.62,1.9-1.08,3.02-1.39,1.13-.3,2.27-.45,3.42-.45,1.34,0,2.61.17,3.8.52,1.19.35,2.23.87,3.13,1.57.9.7,1.61,1.55,2.14,2.57.53,1.02.79,2.2.79,3.55h-4.5c-.12-1.66-.68-2.83-1.69-3.51s-2.29-1.03-3.85-1.03c-.53,0-1.07.05-1.62.16-.55.11-1.06.29-1.51.54-.46.25-.83.59-1.13,1.03-.3.43-.45.97-.45,1.62,0,.91.28,1.63.85,2.14.56.52,1.3.91,2.21,1.17.1.02.47.13,1.13.31.66.18,1.4.38,2.21.59.82.22,1.61.43,2.39.63.78.2,1.34.35,1.67.45.84.26,1.57.62,2.2,1.08.62.46,1.15.98,1.57,1.57.42.59.73,1.22.94,1.89.2.67.31,1.34.31,2.02,0,1.44-.29,2.67-.88,3.69-.59,1.02-1.36,1.85-2.32,2.5-.96.65-2.05,1.12-3.28,1.42-1.22.3-2.47.45-3.74.45-1.46,0-2.84-.18-4.14-.54-1.3-.36-2.42-.91-3.38-1.66-.96-.74-1.73-1.7-2.3-2.86-.58-1.16-.88-2.54-.9-4.12h4.5Z"/><path class="cls-18" d="m2033.77,836.33h18.5v3.89h-14v6.73h12.96v3.67h-12.96v7.52h14.26v3.89h-18.76v-25.7Z"/><path class="cls-18" d="m2059.4,853.46c0,.98.17,1.82.5,2.52.34.7.8,1.27,1.4,1.71.6.44,1.29.77,2.07.97.78.2,1.63.31,2.54.31.98,0,1.82-.11,2.52-.34.7-.23,1.26-.52,1.69-.88.43-.36.74-.77.94-1.24.19-.47.29-.94.29-1.42,0-.98-.22-1.71-.67-2.18-.44-.47-.93-.8-1.46-.99-.91-.34-1.97-.65-3.19-.95-1.21-.3-2.71-.69-4.48-1.17-1.1-.29-2.02-.67-2.75-1.13-.73-.47-1.31-.99-1.75-1.57-.43-.58-.74-1.19-.92-1.84-.18-.65-.27-1.31-.27-1.98,0-1.3.27-2.42.81-3.37.54-.95,1.25-1.73,2.14-2.36.89-.62,1.9-1.08,3.02-1.39,1.13-.3,2.27-.45,3.42-.45,1.34,0,2.61.17,3.8.52,1.19.35,2.23.87,3.13,1.57.9.7,1.61,1.55,2.14,2.57.53,1.02.79,2.2.79,3.55h-4.5c-.12-1.66-.68-2.83-1.69-3.51s-2.29-1.03-3.85-1.03c-.53,0-1.07.05-1.62.16-.55.11-1.06.29-1.51.54s-.83.59-1.13,1.03c-.3.43-.45.97-.45,1.62,0,.91.28,1.63.85,2.14.56.52,1.3.91,2.21,1.17.09.02.47.13,1.13.31.66.18,1.4.38,2.21.59.82.22,1.61.43,2.39.63.78.2,1.34.35,1.67.45.84.26,1.57.62,2.2,1.08s1.15.98,1.57,1.57c.42.59.73,1.22.94,1.89s.31,1.34.31,2.02c0,1.44-.29,2.67-.88,3.69s-1.36,1.85-2.32,2.5c-.96.65-2.05,1.12-3.28,1.42s-2.47.45-3.74.45c-1.46,0-2.84-.18-4.14-.54-1.3-.36-2.42-.91-3.38-1.66-.96-.74-1.73-1.7-2.3-2.86-.58-1.16-.88-2.54-.9-4.12h4.5Z"/><path class="cls-18" d="m1711.69,908.48v56.65h-56.65v-56.65h56.65m10-10h-76.65v76.65h76.65v-76.65h0Z"/><path class="cls-18" d="m1762.55,922.18c-.1.29-.17.58-.23.86-.06.29-.09.55-.09.79s.05.44.16.59.28.23.52.23c.55,0,1.11-.2,1.67-.59.56-.4,1.07-.94,1.51-1.64.44-.7.8-1.52,1.08-2.47.28-.95.41-1.97.41-3.08,0-1.34-.25-2.55-.76-3.62-.5-1.07-1.19-1.97-2.07-2.72s-1.9-1.31-3.06-1.71c-1.17-.4-2.41-.59-3.73-.59-1.54,0-2.93.28-4.19.85-1.26.56-2.35,1.33-3.26,2.3s-1.62,2.11-2.12,3.42c-.5,1.31-.76,2.72-.76,4.23,0,1.75.27,3.34.81,4.75s1.28,2.62,2.23,3.6c.95.98,2.08,1.75,3.38,2.29,1.31.54,2.72.81,4.23.81s3.08-.31,4.5-.94,2.62-1.5,3.6-2.63h2.52c-1.15,1.87-2.68,3.32-4.57,4.36-1.9,1.03-3.96,1.55-6.19,1.55-1.85,0-3.59-.34-5.22-1.03-1.63-.68-3.05-1.64-4.27-2.86-1.21-1.22-2.17-2.69-2.86-4.39s-1.04-3.59-1.04-5.65c0-1.82.35-3.52,1.06-5.09.71-1.57,1.66-2.95,2.86-4.12s2.6-2.1,4.19-2.77c1.6-.67,3.29-1.01,5.09-1.01,1.61,0,3.14.26,4.59.77,1.45.52,2.73,1.24,3.83,2.18s1.99,2.05,2.65,3.35.99,2.71.99,4.25c0,1.8-.31,3.37-.92,4.72-.61,1.34-1.36,2.46-2.23,3.35s-1.81,1.55-2.79,2c-.98.44-1.84.67-2.56.67-.55,0-1.03-.17-1.44-.52-.41-.35-.64-.87-.68-1.57h-.07c-.48.55-1.08,1.03-1.8,1.44-.72.41-1.46.61-2.23.61s-1.44-.15-2.09-.45c-.65-.3-1.21-.71-1.67-1.22-.47-.52-.83-1.12-1.1-1.8-.26-.68-.4-1.41-.4-2.18,0-1.15.19-2.28.58-3.38.38-1.1.92-2.1,1.6-2.99.68-.89,1.51-1.6,2.48-2.14s2.05-.81,3.22-.81c.84,0,1.61.2,2.3.61.7.41,1.27,1.07,1.73,1.98l.65-2.05h2.52l-2.59,9.47Zm-6.55,2.27c.72,0,1.38-.21,1.98-.63s1.12-.95,1.55-1.58c.43-.64.77-1.33,1.03-2.09s.38-1.46.38-2.11c0-.43-.08-.84-.23-1.22s-.36-.72-.61-1.01-.55-.52-.9-.68c-.35-.17-.71-.25-1.1-.25-.74,0-1.42.2-2.03.61s-1.13.92-1.57,1.53c-.43.61-.77,1.29-1.01,2.03s-.36,1.45-.36,2.12c0,.96.26,1.75.77,2.36.52.61,1.22.92,2.11.92Z"/><path class="cls-18" d="m1777.06,926.25c.12,1.2.58,2.04,1.37,2.52s1.74.72,2.84.72c.38,0,.82-.03,1.31-.09.49-.06.95-.17,1.39-.34.43-.17.79-.41,1.06-.74s.4-.75.38-1.28c-.02-.53-.22-.96-.58-1.3-.36-.34-.82-.61-1.39-.81s-1.21-.38-1.93-.52c-.72-.14-1.45-.3-2.2-.47-.77-.17-1.51-.37-2.21-.61-.71-.24-1.34-.56-1.91-.97-.56-.41-1.01-.93-1.35-1.57-.34-.63-.5-1.42-.5-2.36,0-1.01.25-1.85.74-2.54.49-.68,1.12-1.24,1.87-1.66.76-.42,1.6-.71,2.52-.88s1.81-.25,2.65-.25c.96,0,1.88.1,2.75.31.88.2,1.67.54,2.38.99.71.46,1.3,1.05,1.76,1.78s.76,1.61.88,2.65h-4.28c-.19-.98-.64-1.64-1.35-1.98s-1.52-.5-2.43-.5c-.29,0-.63.02-1.03.07-.4.05-.77.14-1.12.27s-.64.32-.88.58c-.24.25-.36.58-.36.99,0,.5.17.91.52,1.22.35.31.8.57,1.37.77.56.21,1.21.38,1.93.52s1.46.3,2.23.47c.74.17,1.48.37,2.2.61.72.24,1.36.56,1.93.97.56.41,1.02.92,1.37,1.55.35.62.52,1.39.52,2.3,0,1.1-.25,2.04-.76,2.81-.5.77-1.16,1.39-1.96,1.87-.8.48-1.7.83-2.68,1.04s-1.96.32-2.92.32c-1.18,0-2.26-.13-3.26-.4s-1.86-.67-2.59-1.21c-.73-.54-1.31-1.21-1.73-2.02-.42-.8-.64-1.76-.67-2.86h4.1Z"/><path class="cls-18" d="m1808.23,928.08c0,.5.07.86.2,1.08s.39.32.77.32h.43c.17,0,.36-.02.58-.07v2.84c-.14.05-.33.1-.56.16-.23.06-.46.11-.7.16-.24.05-.48.08-.72.11-.24.02-.44.04-.61.04-.84,0-1.54-.17-2.09-.5-.55-.34-.91-.92-1.08-1.76-.82.79-1.82,1.37-3.01,1.73-1.19.36-2.33.54-3.44.54-.84,0-1.64-.11-2.41-.34-.77-.23-1.45-.56-2.03-1.01-.59-.44-1.06-1.01-1.4-1.69-.35-.68-.52-1.48-.52-2.39,0-1.15.21-2.09.63-2.81.42-.72.97-1.28,1.66-1.69.68-.41,1.45-.7,2.3-.88.85-.18,1.71-.32,2.57-.41.74-.14,1.45-.25,2.12-.31.67-.06,1.27-.16,1.78-.31.52-.14.92-.37,1.22-.67s.45-.75.45-1.35c0-.53-.13-.96-.38-1.3-.25-.34-.56-.59-.94-.77-.37-.18-.79-.3-1.24-.36-.46-.06-.89-.09-1.3-.09-1.15,0-2.1.24-2.84.72-.74.48-1.17,1.22-1.26,2.23h-4.1c.07-1.2.36-2.2.86-2.99.5-.79,1.15-1.43,1.93-1.91.78-.48,1.66-.82,2.65-1.01s1.99-.29,3.02-.29c.91,0,1.81.1,2.7.29.89.19,1.69.5,2.39.94.71.43,1.28.99,1.71,1.67.43.68.65,1.52.65,2.5v9.58Zm-4.1-5.18c-.62.41-1.39.65-2.3.74s-1.82.21-2.74.38c-.43.07-.85.17-1.26.31s-.77.31-1.08.54c-.31.23-.56.53-.74.9-.18.37-.27.82-.27,1.35,0,.46.13.84.4,1.15.26.31.58.56.95.74.37.18.78.31,1.22.38.44.07.85.11,1.21.11.46,0,.95-.06,1.48-.18.53-.12,1.03-.32,1.49-.61s.86-.65,1.17-1.1c.31-.44.47-.99.47-1.64v-3.06Z"/><path class="cls-18" d="m1812.66,913.61h3.89v2.74l.07.07c.62-1.03,1.44-1.84,2.45-2.43,1.01-.59,2.12-.88,3.35-.88,2.04,0,3.65.53,4.82,1.58,1.18,1.06,1.76,2.64,1.76,4.75v12.78h-4.1v-11.7c-.05-1.46-.36-2.53-.94-3.19-.58-.66-1.48-.99-2.7-.99-.7,0-1.32.13-1.87.38-.55.25-1.02.6-1.4,1.04s-.68.97-.9,1.57c-.22.6-.32,1.24-.32,1.91v10.98h-4.1v-18.61Z"/><path class="cls-18" d="m1833.43,906.52h4.1v3.89h-4.1v-3.89Zm0,7.09h4.1v18.61h-4.1v-18.61Z"/><path class="cls-18" d="m1850.53,932.73c-1.49,0-2.81-.25-3.98-.74-1.16-.49-2.15-1.17-2.95-2.03-.8-.86-1.42-1.9-1.84-3.1s-.63-2.52-.63-3.96.21-2.72.63-3.92,1.03-2.23,1.84-3.1c.8-.86,1.79-1.54,2.95-2.03s2.49-.74,3.98-.74,2.81.25,3.98.74,2.15,1.17,2.95,2.03c.8.86,1.42,1.9,1.84,3.1.42,1.2.63,2.51.63,3.92s-.21,2.76-.63,3.96c-.42,1.2-1.03,2.23-1.84,3.1-.8.86-1.79,1.54-2.95,2.03-1.16.49-2.49.74-3.98.74Zm0-3.24c.91,0,1.7-.19,2.38-.58.67-.38,1.22-.89,1.66-1.51s.75-1.33.95-2.11c.2-.78.31-1.58.31-2.39s-.1-1.58-.31-2.38-.52-1.49-.95-2.11c-.43-.61-.98-1.11-1.66-1.49s-1.46-.58-2.38-.58-1.7.19-2.38.58-1.22.88-1.66,1.49c-.43.61-.75,1.31-.95,2.11-.2.79-.31,1.58-.31,2.38s.1,1.61.31,2.39c.2.78.52,1.48.95,2.11.43.62.98,1.13,1.66,1.51.67.38,1.46.58,2.38.58Z"/><path class="cls-18" d="m1745.74,938.52h17.75v3.89h-13.25v6.73h11.63v3.67h-11.63v11.41h-4.5v-25.7Z"/><path class="cls-18" d="m1771.98,938.52h4.79l9.9,25.7h-4.82l-2.41-6.8h-10.26l-2.41,6.8h-4.64l9.86-25.7Zm-1.58,15.48h7.85l-3.85-11.05h-.11l-3.89,11.05Z"/><path class="cls-18" d="m1788.94,938.52h4.75l11.74,18.94h.07v-18.94h4.28v25.7h-4.75l-11.7-18.9h-.11v18.9h-4.28v-25.7Z"/><path class="cls-18" d="m1815.11,938.52h11.34c1.82,0,3.31.26,4.46.79,1.15.53,2.04,1.19,2.66,1.98.62.79,1.05,1.66,1.28,2.59.23.94.34,1.8.34,2.59s-.11,1.65-.34,2.57-.65,1.78-1.28,2.57c-.62.79-1.51,1.45-2.66,1.96-1.15.52-2.64.77-4.46.77h-6.84v9.86h-4.5v-25.7Zm4.5,12.17h6.59c.5,0,1.02-.07,1.55-.22.53-.14,1.01-.38,1.46-.7.44-.32.8-.76,1.08-1.3.28-.54.41-1.22.41-2.03s-.12-1.54-.36-2.09c-.24-.55-.56-.99-.97-1.31-.41-.32-.88-.54-1.4-.67-.53-.12-1.09-.18-1.69-.18h-6.66v8.5Z"/><path class="cls-18" d="m1843.33,938.52h4.79l9.9,25.7h-4.82l-2.41-6.8h-10.26l-2.41,6.8h-4.64l9.86-25.7Zm-1.58,15.48h7.85l-3.85-11.05h-.11l-3.89,11.05Z"/><path class="cls-18" d="m1882.9,964.22h-2.88l-.68-3.02c-1.2,1.37-2.4,2.32-3.6,2.84-1.2.53-2.58.79-4.14.79-1.92,0-3.64-.35-5.17-1.06-1.52-.71-2.81-1.67-3.87-2.9-1.06-1.22-1.87-2.65-2.43-4.28-.56-1.63-.85-3.37-.85-5.22s.28-3.55.85-5.18c.56-1.63,1.37-3.06,2.43-4.28,1.06-1.22,2.35-2.2,3.87-2.92,1.52-.72,3.25-1.08,5.17-1.08,1.39,0,2.72.19,3.98.56,1.26.37,2.38.92,3.37,1.66.98.73,1.8,1.65,2.45,2.75.65,1.1,1.06,2.38,1.22,3.82h-4.39c-.12-.84-.38-1.58-.77-2.21-.4-.64-.89-1.17-1.49-1.6-.6-.43-1.27-.76-2.02-.97s-1.52-.32-2.34-.32c-1.37,0-2.55.28-3.55.83-1,.55-1.81,1.29-2.43,2.21-.62.92-1.09,1.97-1.39,3.15-.3,1.18-.45,2.38-.45,3.6s.15,2.42.45,3.6.76,2.23,1.39,3.15,1.43,1.66,2.43,2.21c1,.55,2.18.83,3.55.83,1.15.02,2.17-.13,3.06-.45s1.64-.79,2.25-1.4c.61-.61,1.07-1.36,1.39-2.25.31-.89.48-1.87.5-2.95h-6.84v-3.42h10.94v13.54Z"/><path class="cls-18" d="m1887.79,938.52h18.5v3.89h-14v6.73h12.96v3.67h-12.96v7.52h14.26v3.89h-18.76v-25.7Z"/><text/></g></svg>