<?xml version="1.0" encoding="UTF-8"?><svg id="Layer_2" xmlns="http://www.w3.org/2000/svg" viewBox="0 0 12.21 31.86"><defs><style>.cls-1{fill:#30161b;}</style></defs><g id="Layer_1-2"><path class="cls-1" d="m7.94,25.52c-.58,2.46.13,4.63,2.8,5.43-.54,1.05-2.65,1.17-4.49.44-.37-.53-.81-1.29-.55-1.91.88-1.51.33-2.98.05-4.43-.93-.73-1.63,0-2.19.37-1.42.91-1.52,2.53-1.34,4.11-1.38.55-1.47-2.04-2.23-2.83.08-.46.16-.91.26-1.48.96-.35,1.98-.72,2.89-1.06.8-3.13.06-5.92-.34-8.79-.28-.03-.49-.04-.82-.07,1.04-3.11.12-14.23,2.34-15.12,2.34-.99,3.77,2.54,2.83,4.29-.1,0-.2,0-.29.01,1.43,2.55.98,5.66,2.37,8.1,2,3.39,2.73,7.39,2.99,11.19-1.4.57-2.75,1.13-4.27,1.75Z"/></g></svg>