<?xml version="1.0" encoding="UTF-8"?><svg id="Layer_2" xmlns="http://www.w3.org/2000/svg" viewBox="0 0 11.14 33.27"><defs><style>.cls-1{fill:#30161b;}</style></defs><g id="Layer_1-2"><path class="cls-1" d="m1.75,12.72c-.38-.02-.69-.03-1.09-.05-1.59-1.55.15-3.83.49-5.6.37-1.66,1.15-1.34,2.59-1.35.23-.65.58-1.12,1.13-1.5-.89-2.08.33-5.78,2.9-3.5.24.29.5.78.41,1.08-.38,1.35.28,2.52.47,3.87,1.2.12,1.29,1.11,1.52,2.02.16,1.09,1.59,2.46.66,3.37-.61.64-1.21.28-1.87-.19-.23,2.11,1.25,4.14.42,6.17-1.71,4.39-1.25,9.42-2.18,13.99.34.48.62.87.86,1.22-.69.86-1.54,1.16-2.48.97-.33-4.29.54-8.75-.04-13.12-1.7,2.1.7,13.21-2.15,13.01-1.22-.12-1.08-1.37-.6-2.2.91-4.69-.86-9.58-.41-14.37-.07,0-.15,0-.22,0-.09.41-.19.82-.28,1.23-.1-.01-.21-.03-.31-.04-.07-1.65-.16-3.29.18-5Z"/></g></svg>