<?xml version="1.0" encoding="UTF-8"?><svg id="Layer_2" xmlns="http://www.w3.org/2000/svg" viewBox="0 0 651.44 174.29"><defs><style>.cls-1{fill:#c2db70;}</style></defs><g id="Layer_1-2"><path class="cls-1" d="m341.06,18.27c0-4.44,0-8.88,0-13.32,0-3.01,1.48-4.33,4.47-4.52,3.74-.24,6.33,1.39,8.29,4.39,2.17,3.33,4.38,6.63,6.57,9.94.11.16.23.36.39.45.77.42,1.6,1.21,2.31,1.12,1.13-.15,1.44-1.33,1.49-2.44.12-2.98.23-5.95.39-8.93.02-.45.21-.97.49-1.33,1.14-1.46,2.72-1.89,4.48-1.66,2.22.29,4.3.92,4.88,3.47.24,1.08.3,2.21.31,3.32.04,3.56,0,7.12.02,10.68.01,1.23.14,2.46.26,3.69.04.38.19.79.4,1.11.66,1.06,1.33,1.21,2.05.21,1.04-1.45,1.93-3.02,2.71-4.63,1.97-4.04,3.84-8.12,5.75-12.19.81-1.74,2.4-2.3,4.08-2.36,1.72-.06,3.5.06,5.18.43,1.52.34,2.63,1.52,3.23,2.99,1.33,3.2,2.6,6.42,3.86,9.64,1.18,3,2.28,6.03,3.49,9.01.29.72.82,1.38,1.36,1.94.74.78,1.65.58,1.91-.44.35-1.38.66-2.8.7-4.22.1-3.36.02-6.72.06-10.08.01-.91.12-1.83.32-2.72.41-1.8,1.54-2.9,3.43-2.94,3.29-.07,6.53.41,9.18,2.56.79.64,1.37,1.69,1.75,2.66,1.02,2.58,1.89,5.22,2.82,7.84.6,1.69,1.08,3.42,1.83,5.04.3.65,1.1,1.29,1.79,1.48,1.03.28,1.84-.52,2.24-1.4,1.01-2.21,1.88-4.48,2.82-6.72.34-.8.64-1.64,1.09-2.38,1.56-2.58,3.51-3.21,6.81-2.27,1.03.29,2.14.43,3.09.9,1.33.66,2.66,1.42,3.76,2.4,1.31,1.16,2.54,1.87,4.39,1.37,3.35-.9,6.13.55,8.51,2.68,1.13,1.01,2.29,1.44,3.58,1.1,4.51-1.2,8.89,2.16,10.68,5.64,1.51,2.94,2.99,5.89,4.65,8.75.91,1.57,2.08,3,3.26,4.39.72.86,1.66.66,2.04-.41.35-1,.53-2.07.66-3.13.16-1.3.03-2.65.3-3.92.5-2.4,2.27-3.71,5.14-2.67,2.98,1.08,4.4,3.21,4.46,6.38.02,1.13.32,2.28.63,3.38.35,1.23,1.09,1.56,2.29,1.08.73-.29,1.44-.68,2.1-1.13,3.03-2.09,6.34-2.43,9.83-1.61,5.56,1.31,9.96,4.45,13.61,8.77,2.16,2.56,3.99,5.3,4.71,8.62.22,1.03.32,2.2.05,3.2-.48,1.77-.15,3.31.42,4.98.59,1.74.98,3.61,1.09,5.45.17,2.95.08,5.92.02,8.88-.02.94-.2,1.9-.47,2.81-.48,1.62-2.09,2.31-3.62,1.58-.86-.41-1.74-.86-2.44-1.48-1.64-1.46-3.61-2.02-5.67-2.31-2.55-.35-4.89-1.26-7-2.64-2.32-1.52-4.64-3.1-6.63-5.01-1.64-1.56-2.79-3.63-4.17-5.47-.57-.76-1.11-1.56-1.78-2.22-.9-.87-1.78-.71-2.51.31-.14.19-.26.4-.39.6-2,3.18-4.03,3.03-7,1.55-2.46-1.23-4.02-3.28-5.27-5.67-2.03-3.89-4.16-7.73-6.26-11.58-.19-.34-.45-.65-.73-.94-1.36-1.4-2.61-1.09-3.04.86-.26,1.19-.23,2.45-.37,3.67-.13,1.18-.16,2.4-.49,3.53-.66,2.3-2.4,3.14-4.65,2.32-1.82-.67-3.42-1.65-4.6-3.28-.65-.9-1.62-1.34-2.74-.9-3.66,1.42-6.65.03-9.27-2.37-1.2-1.09-2.33-1.39-3.88-1.05-1.76.38-3.52.35-5.25-.47-2.22-1.06-3.07-2.84-3.23-5.15-.11-1.58-.22-3.17-.5-4.73-.11-.61-.58-1.4-1.11-1.64-.87-.4-1.48.38-1.9,1.07-.71,1.15-1.34,2.35-2.02,3.53-.93,1.62-1.98,3.12-4.08,3.25-2.56.17-4.54-.95-5.79-3.1-.95-1.64-1.53-3.48-2.37-5.19-.41-.83-.96-1.63-1.59-2.31-.68-.74-1.32-.6-1.75.36-.39.89-.6,1.86-.94,2.77-.34.92-.63,1.89-1.15,2.7-1.1,1.72-2.96,1.32-4.49,1.11-3.18-.44-6.31-1.18-9.46-1.83-2.21-.46-3.59-1.95-4.6-3.86-.41-.77-.83-1.54-1.27-2.31-.83-1.47-2.04-2.48-3.71-2.75-2.18-.34-4.37-.67-6.57-.78-1.74-.09-3.05,1.01-3.83,2.45-1.71,3.15-4.45,3.72-7.64,3.35-2.6-.3-5.19-.74-7.8-.91-3.58-.24-5.88-2.19-7.72-5.07-2.09-3.29-4.33-6.49-6.52-9.72-.19-.28-.47-.53-.75-.73-1.74-1.25-3.07-.78-3.33,1.35-.3,2.48-.56,5-.45,7.49.13,3.01-1.98,5.06-4.66,4.99-3.11-.08-5.03-1.99-5.03-5.15,0-4.52,0-9.04,0-13.56Zm168.48,38.77c.22,5.19,1.85,9.3,5.69,12.3,1.28,1,2.61,2.06,4.39,1.91.44-.04,1.07-.3,1.22-.63.16-.35-.01-1.02-.28-1.36-.62-.78-1.41-1.42-2.08-2.15-1.95-2.11-2.12-6.32,1.95-7.34,1.73-.43,2.26-1.42,1.63-3.12-1.03-2.79-3.06-4.7-5.79-5.69-2.94-1.08-5.31.22-6.23,3.24-.32,1.05-.39,2.18-.5,2.86Z"/><path class="cls-1" d="m161.47,42.92c.11,1.95.21,3.9.34,5.84.02.31.08.66.25.9.31.43.68,1.06,1.08,1.11.39.05,1.05-.45,1.25-.87.95-2.01,1.89-4.03,2.65-6.12,1.43-3.92,2.76-7.88,4.09-11.84.63-1.88,1.42-3.62,2.92-4.99,1.93-1.76,4.31-2.48,6.8-2.44,2.45.04,3.56,1.98,4.47,3.96,1.6,3.48,3.17,6.98,4.82,10.43.75,1.57,1.77,3.15,3.7,3.18,1.38.02,2.85-.39,4.12-.98,2.12-.97,3.79-.56,5.22,1.12,2.63,3.09,6.73,2.44,9.26.46.71-.55,1.33-1.75,1.29-2.61-.06-1.13-1.09-1.94-2.38-1.94-2.34,0-4.71-.18-7,.16-3.54.52-7.72-1.24-9.28-4.48-.89-1.85-.86-3.9-.63-5.94.51-4.56,3.45-7.44,6.88-9.96,3.16-2.32,6.83-3.47,10.64-3.94,3.87-.48,7.56.16,10.58,2.97.41.38.85.73,1.3,1.05.94.66,1.96.59,2.82-.22,1.64-1.55,3.25-3.13,4.88-4.68,4.17-3.94,9.1-5.98,14.87-6.22,4.72-.19,8.54,1.45,11.75,4.83,1.92,2.02,3.39,1.76,5.25-.39,1.71-1.98,3.69-3.71,5.49-5.61,2.65-2.78,6.16-3.44,9.69-4.04,3.87-.66,7.61-.14,11.18,1.5.9.42,1.74.98,2.64,1.4,1.86.88,2.99.66,4.11-1.03,1.48-2.22,3.56-3.03,6.11-3.07,7.54-.14,15.08-.33,22.62-.46,1.9-.03,3.72,1.3,4.03,2.78.54,2.57-.11,4.7-1.99,5.44-1.33.53-2.84.75-4.29.84-3.53.2-4.61,2.31-4.69,5.43-.14,5.76-.04,11.52-.05,17.28,0,2.02-.48,3.84-2.57,4.7-2.56,1.05-5.29.69-6.74-1.1-.66-.81-1.05-1.96-1.21-3.01-.2-1.39-.05-2.83-.05-4.25,0-3.84.04-7.68-.02-11.52-.02-1.38-.22-2.77-.44-4.14-.25-1.5-1.21-2.38-2.69-2.66-1.71-.32-3.39-.42-5.02.4-.8.4-1.24,1.01-1.19,1.9.07,1.39.06,2.8.29,4.16,1.62,9.8-3.92,19.04-13.34,22.21-5.13,1.73-10.33,2.19-15.44.16-1.99-.79-3.71-2.26-5.55-3.43-.13-.08-.22-.23-.34-.33-1.93-1.67-3.65-2.23-5.49.29-1.83,2.51-3.82,4.89-6.51,6.57-3.48,2.18-7.24,3.37-11.34,3.66-4.03.29-7.65-.64-11.08-2.81-2.26-1.43-3.94-1.53-6.32,1.7-3.27,4.43-7.81,6.95-13.06,8.28-1.99.5-4.03.88-6.07,1.15-1,.13-2.05-.15-3.09-.18-2-.06-3.77.44-5.42,1.73-1.86,1.45-3.98,2.44-6.49,2.38-1.13-.03-2-.42-2.81-1.1-.18-.15-.37-.32-.51-.51-2.08-2.81-4.76-3.04-7.76-1.79-1.29.53-2.6,1.02-3.82,1.68-1.8.98-2.61,2.81-3.23,4.6-1.1,3.19-3.22,5.17-6.36,6.28-2.67.94-5.26,2.09-7.91,3.07-1.07.39-2.32.87-3.3,0-.87-.77-1.48-1.83-2.16-2.8-.27-.38-.33-.9-.6-1.28-.69-.99-1.3-1.04-1.89,0-.87,1.56-1.63,3.19-2.29,4.85-.94,2.36-2.15,4.43-4.57,5.56-2.31,1.08-4.29.6-5.74-1.49-.61-.88-1.14-1.83-1.74-2.72-.45-.67-1-1.49-1.88-1.12-.52.22-1.03.99-1.14,1.59-.3,1.67-.44,3.38-.56,5.08-.25,3.57-2.4,5.59-5.64,6.41-2.19.55-4.26-1.65-3.9-3.91.08-.51.16-1.02.16-1.54,0-7.92,0-15.84,0-23.76,0-.9-.05-1.8,0-2.7.12-2.08,1.41-3.47,3.06-4.43,1.74-1.02,3.6-1.9,5.49-2.63,2.64-1.01,4.36-.27,5.6,2.26.88,1.79,1.63,3.64,2.5,5.43.36.75.84,1.45,1.34,2.11.69.91,1.81.99,2.56.13.48-.55.88-1.25,1.1-1.94,1.29-4.1,2.59-8.19,3.74-12.33.89-3.19,3.09-5.02,5.95-6.21,1.49-.62,3.05-1.29,4.63-1.47,2.54-.29,3.69.86,3.87,3.41.15,2.19.21,4.38.31,6.56-.05,0-.09,0-.14,0Zm73.21-14.55c.17.78.38,2.24.83,3.63.8,2.48,3.28,4.19,5.82,4.22,3.67.03,6.38-1.66,8.12-4.78,1.44-2.59,3.29-4.44,6.32-4.94.69-.11,1.35-.49,1.97-.84,1.78-1.02,2.35-3.51,1.2-5.09-.64-.88-1.56-1.22-2.62-1.13-2.7.24-5.14-.36-7.25-2.13-2.98-2.5-6.67-1.96-9.48.07-3.49,2.53-4.72,6.16-4.91,10.99Zm35.86-6.6c0,.24,0,.48,0,.72.02,3.72,1.81,6.9,4.68,7.94,3.61,1.3,6.86.56,9.7-2.03,3.19-2.91,3.73-6.71,3.2-10.65-.23-1.69-1.01-3.5-2.07-4.84-3.36-4.23-9.9-2.9-12.87.76-1.92,2.37-2.69,5.1-2.64,8.11Zm-54.3,5.11c.04-.16.08-.32.13-.48-.99-.88-1.93-1.84-2.99-2.62-1.85-1.36-4.27-1.3-6.1.08-.87.66-1.5,1.56-1.23,2.66.28,1.11,1.26,1.56,2.34,1.74,2.2.36,4.33.07,6.41-.68.5-.18.97-.47,1.45-.71Zm4.49,1.88c1.57-.02,2.39-.66,2.48-1.53.09-.9-.21-1.61-1.17-1.76-1.35-.2-2.62.1-3.66,1.02-.18.16-.18.92-.03,1.01.89.55,1.85.99,2.38,1.26Z"/><path class="cls-1" d="m.03,157.19c0-4.08-.08-8.16.02-12.24.08-3.2,1.17-5.98,3.85-8,1.99-1.5,3.76-1.19,4.55,1.13.93,2.73,2.4,3.77,5.34,1.45,2.75-2.16,4.19-4.87,4.23-8.36.02-1.99.14-3.98.2-5.97.05-1.6.69-3.02,1.78-4.07,1.3-1.25,2.7-2.58,4.31-3.27,2.04-.87,3.26-2.39,4.29-4.1,1.36-2.28,3.37-3.89,5.26-5.63,1.87-1.72,3.69-3.54,5.76-4.98,2.46-1.71,4.75-3.78,7.78-4.51,1.29-.31,2.6-.6,3.92-.69,1.7-.12,2.44-1.17,2.91-2.58.19-.56.34-1.15.45-1.73.46-2.41,2.19-3.85,4.08-5.05,2.38-1.5,4.46-.43,4.86,2.34.09.59.16,1.19.31,1.76.52,1.97,1.82,2.57,3.73,1.87,2.04-.75,3.76-1.96,5.11-3.62.55-.68.99-1.6,1.09-2.46.23-1.93.34-3.9.27-5.84-.21-5.65,4.05-8.73,8.66-9.29.92-.11,2.03-.92,2.55-1.73,2.06-3.15,5.23-4.85,8.27-6.72,3.9-2.4,7.85-4.7,11.77-7.07,1.33-.8,3.28-.96,4.18-.16,1.21,1.07,1.33,2.51.97,3.97-.38,1.57-1.26,2.83-2.64,3.71-3.2,2.03-6.41,4.03-9.56,6.13-.69.46-1.26,1.22-1.66,1.96-.48.89.27,2.05,1.25,1.86,1.22-.24,2.39-.8,3.56-1.28.99-.41,1.92-.99,2.93-1.33,2.41-.81,4.5,1.14,4.06,3.66-.32,1.84-1.46,3.09-2.91,4.07-2.12,1.42-4.28,2.78-6.47,4.07-2.89,1.7-4.27,4.1-4.07,7.51.12,2.02-.02,4.07-.23,6.09-.3,2.99-2.33,4.7-4.86,5.86-.88.4-1.9.57-2.88.7-1.7.22-2.69,1.35-3.73,2.53-1.12,1.27-2.27,2.59-3.66,3.52-3.49,2.34-5.58-.04-5.52-2.84.02-.98-.19-1.98-.41-2.94-.51-2.25-2.12-2.98-4.11-1.78-1.8,1.08-3.72,2.1-4.71,4.1-.46.94-.93,1.97-1,2.99-.21,2.7-.13,5.42-.3,8.13-.13,2.13-.58,4.29-2.45,5.58-1.2.83-2.65,1.39-4.08,1.77-1.15.3-2.4-1.31-2.58-2.94-.14-1.3-.21-2.63-.52-3.89-.17-.71-.65-1.61-1.22-1.85-.45-.19-1.44.34-1.91.82-2.63,2.67-5.15,5.45-7.76,8.14-1.3,1.34-2.66,2.66-4.11,3.84-1.17.95-1.58,2.19-1.72,3.54-.19,1.9-.18,3.82-.27,5.73-.16,3.7-1.49,6.61-5.21,8.03-2.57.98-4.65,2.47-5.86,5.12-.74,1.62-2.07,2.89-3.81,3.58-2.34.93-4.17-.47-3.95-3.01.12-1.42-.96-3.69-2.01-3.77-.88-.07-1.96.11-2.67.59-2.36,1.58-4.21,3.65-4.83,6.54-.13.63.03,1.32.03,1.98,0,2.24.14,4.49-.04,6.72-.28,3.57-1.56,6.66-4.81,8.64-1.39.85-2.71.53-3.24-1.02-.33-.96-.54-2.02-.56-3.03-.06-4.08-.03-8.16-.03-12.24Zm43.47-44.07c-.03-.78-.77-1.34-1.56-1.16-1.39.31-3.3,2.42-3.44,3.81-.1.99.67,1.76,1.58,1.58,1.49-.29,3.47-2.74,3.41-4.22Z"/><path class="cls-1" d="m545.78,77.37c0-4.48-.02-8.96.02-13.44,0-.74.12-1.52.36-2.22.49-1.45,2-2.2,3.52-1.54,2.07.89,4.09,1.95,6.02,3.12,3.03,1.84,6.01,3.76,8.93,5.77,3.14,2.16,5.43,5.1,7.23,8.45.77,1.43,1.58,2.85,2.52,4.17.67.92,1.73,1.21,2.88.9,5.73-1.57,10.35.7,14.63,4.19,3.89,3.17,6.82,7.11,9.27,11.44.68,1.21,1.46,2.36,2.24,3.51.71,1.03,1.74,1.22,2.86.84,3.94-1.34,8.48,1.56,8.62,5.77.22,6.66.32,13.34.24,20.01-.05,3.79,1.23,6.7,4.23,8.98,1.77,1.35,3.36,2.93,5.12,4.29.67.52,1.42,1.18,2.49.74,1.07-.43,2.08-2.02,2.09-3.55.01-4.48-.03-8.96.05-13.44.02-.87.37-1.78.77-2.57.46-.89,1.37-1.1,2.29-.75,2.91,1.12,4.61,3.31,5.28,6.3.22.96.26,1.97.27,2.96.02,5.88.09,11.76-.01,17.64-.07,3.62,1.1,6.52,3.74,9.05,2.94,2.81,5.72,5.79,8.38,8.87,1.38,1.59,2.02,3.63,1.34,5.81-.48,1.54-1.75,2.13-3.07,1.2-1.71-1.2-3.32-2.59-4.82-4.06-4.18-4.08-8.19-8.33-12.43-12.34-4.25-4.02-8.69-7.84-13.08-11.71-2.86-2.53-5.8-4.98-8.68-7.49-2.23-1.94-2.92-4.54-3.05-7.38-.05-1.03-.1-2.07-.32-3.07-.35-1.56-1.45-2.12-2.98-1.61-1.9.63-3.83.95-5.82.78-2.3-.19-4.27-1.27-6.13-2.48-6.86-4.48-11.97-10.48-15.11-18.04-1.04-2.52-1.84-5.17-2.46-7.83-.77-3.32-1.49-4.17-4.82-4.56-2.58-.3-4.92-1.25-7.17-2.49-.69-.38-1.44-.68-2.19-.88-1.68-.47-2.56,0-3.13,1.63-.26.74-.37,1.54-.54,2.32-.64,2.85-2.66,3.85-5.17,2.41-2.74-1.57-4.57-3.7-4.42-7.2.17-4.15.04-8.32.04-12.48h0Zm36.72,21.75c.33,1.75.55,3.52,1.02,5.23,1.13,4.12,3.36,7.54,6.8,10.12,2.48,1.86,5.35,1.02,6.02-1.8.24-.99.39-2.06.3-3.07-.39-4.4-1.6-8.55-4.39-12.05-1.35-1.7-2.82-3.39-5.06-4.05-1.16-.34-2.13-.19-3.07.69-1.46,1.38-1.41,3.11-1.62,4.92Zm-18.71-19.02c-.02-2.1-2.45-4.82-4.96-5.55-1.22-.36-2.57.38-2.65,1.64-.06.87.06,1.88.47,2.62,1,1.83,2.7,2.85,4.73,3.28,1.37.29,2.42-.59,2.41-1.99Z"/></g></svg>