<?xml version="1.0" encoding="UTF-8"?><svg id="Layer_2" xmlns="http://www.w3.org/2000/svg" viewBox="0 0 270.01 135.4"><defs><style>.cls-1{fill:#c2db70;}</style></defs><g id="Layer_1-2"><path class="cls-1" d="m104.68,37.07c-.18.5-.39.99-.54,1.5-1.12,3.79-1.97,7.69-3.39,11.36-2.78,7.19-8.1,11.64-15.68,13.25-4.42.94-8.85,1.81-13.29,2.66-.81.16-1.68.17-2.51.12-2.86-.17-4.52-3.02-2.91-5.49,2.06-3.16,2.59-6.45,2.37-10.13-.36-5.98-.37-11.98-.57-17.97-.08-2.23-.29-4.46-.45-6.69,0-.08,0-.16-.02-.24-.09-.96-.37-2.08-1.33-2.17-.62-.05-1.52.77-1.93,1.43-.71,1.14-1.25,2.43-1.66,3.71-1.87,5.86-3.83,11.7-5.45,17.64-1.1,4.05-.68,8.27,0,12.37.22,1.31,1.21,2.59,2.11,3.66,2.33,2.77,1.24,5.48-1.24,6.81-.84.45-1.77.74-2.68,1.02-2.72.81-5.45,1.58-8.18,2.36-.23.07-.47.11-.71.14-1.56.14-3.13.1-4.11-1.34-.95-1.38-.61-2.88.17-4.2,1.18-1.99,2.12-4.03,2.09-6.4-.05-4.28-.06-8.55-2.49-12.38-1.33-2.09-2.45-4.3-3.68-6.46-.3-.52-.6-1.04-.96-1.52-.71-.95-1.37-2.24-2.79-1.84-1.39.4-1.82,1.77-1.9,3.07-.11,1.83-.08,3.68-.02,5.52.11,3.31.28,6.62.44,9.93.14,2.95.3,5.9.48,8.85.09,1.5.75,2.75,1.73,3.87,2.26,2.56,1.96,5.49-1.08,6.96-3.26,1.58-6.74,2.68-10.13,3.98-.22.08-.47.1-.71.13-3.33.33-4.78-1.55-3.48-4.63.84-1.99,1.84-3.92,1.75-6.17-.05-1.15-.01-2.32-.21-3.45-.26-1.53-1.43-2.2-2.86-1.62-2.77,1.13-5.34,3.31-5.22,6.99.09,2.74.4,5.27,2.24,7.51,1.29,1.57.7,3.92-1.17,5.4-1.25.99-2.62,1.83-3.88,2.8-.37.28-.58.77-.86,1.16.42.14.85.42,1.27.41,3.35-.04,5.46,1.72,6.81,4.59,1.89,4.01,3.75,8.04,5.63,12.05.17.36.29.79.57,1.05.5.47,1.12,1.16,1.66,1.13.52-.02,1.24-.74,1.47-1.31.74-1.85,1.35-3.76,1.9-5.68,1.41-4.92,2.79-9.85,4.12-14.79.95-3.55,3.04-5.9,6.66-6.82,2.36-.59,4.71-1.24,7.07-1.84.38-.1.79-.11,1.19-.09,4.18.19,4.5,3.84,3.08,6.16-.15.24-.27.51-.47.69-2.77,2.58-2.82,5.94-2.64,9.35.12,2.47.33,4.94.42,7.41.2,4.91.32,9.82.53,14.73.08,1.95.24,3.91.49,5.84.12.91.22,2.11,1.41,2.25,1.17.13,1.76-.9,2.12-1.82.56-1.45,1.05-2.95,1.37-4.46,2.77-12.9,5.49-25.81,8.26-38.71.28-1.32.68-2.64,1.26-3.86.72-1.53,1.94-2.53,3.8-2.42,1.82.11,2.96,1.24,3.61,2.77.8,1.87,1.45,3.81,2.03,5.77,3.4,11.46,6.75,22.94,10.15,34.4.56,1.87,1.28,3.7,1.97,5.53.15.4.43.77.73,1.09.81.87,1.72.69,2.09-.46.21-.63.31-1.33.3-2-.06-6.12-.13-12.23-.26-18.35-.11-5.11-.29-10.22-.47-15.33-.04-1.24-.14-2.47-.29-3.7-.19-1.55-.85-2.89-2-4-.58-.55-1.1-1.16-1.58-1.8-1.49-1.99-1.14-4.96,1-6.23,1.47-.87,3.21-1.41,4.9-1.77,5.13-1.1,10.3-1.75,15.58-1.72,6.47.04,11.58,2.55,15.49,7.67,3.73,4.87,5.59,10.49,6.46,16.45.54,3.71.68,7.47,1,11.21.18,2.03,1.04,2.85,3.09,2.87,2.76.02,5.52.02,8.28,0,1.85-.01,3.55.44,5.14,1.39,1.53.91,2.28.59,2.57-1.19.22-1.34.33-2.7.35-4.05.05-4.2.03-8.4.04-12.6,0-2.63-.02-5.26.01-7.89.03-2.35-.89-4.26-2.53-5.88-1.06-1.04-1.8-2.22-1.82-3.78-.03-2.23,1.08-3.91,3.25-4.42,1.27-.3,2.61-.4,3.92-.37,2.51.06,5.03.22,7.53.43,1.67.14,3.35.31,4.97.72,3.73.96,4.87,5.04,2.02,7.62-2.56,2.32-3.54,5.01-3.49,8.4.07,4.91-.12,9.83-.2,14.75-.08,5.2-.17,10.39-.24,15.59-.03,2.15-.03,4.3,0,6.45.02,1.87.57,3.6,2.46,4.29,2,.73,3.86.08,5.45-1.28,1.6-1.37,2.54-3.16,3.24-5.1.47-1.32.92-2.64,1.47-3.93.7-1.65,1.95-2.58,3.79-2.64,2.35-.08,3.14-.8,3.29-3.16.21-3.31.35-6.62.47-9.93.17-4.51.36-9.02.41-13.53.03-2.78-.32-5.48-2.53-7.62-.74-.71-1.22-1.79-1.55-2.79-.7-2.11.75-4.66,3-4.88,2.19-.21,4.48-.11,6.65.27,9.02,1.57,18.02,3.22,27,5,4.33.86,8.5,2.25,12.19,4.82,2.83,1.97,4.7,4.64,5.98,7.78.27.67.52,1.35.87,1.97.73,1.28,1.29,1.34,2.3.28.93-.99,1.72-2.12,2.74-3.01,3.85-3.36,8.04-3.7,12.33-.91,2.15,1.4,4.22,2.83,6.69,3.68,1.55.54,2.63,1.88,2.77,3.51.21,2.53.28,5.1.06,7.62-.17,2.06-1.53,3.12-3.58,3.46-1.74.29-1.95.7-.9,2.15,1.66,2.3,3.64,4.4,5.03,6.84,4,7.02,2.63,16.54-5.4,20.87-4.36,2.36-8.73,1.96-13.16.09-1.35-.57-2.91-.81-4.39-.89-1.81-.1-3.22-.63-4.31-2.13-1.37-1.88-2.01-1.98-3.8-.5-3.54,2.92-7.63,4.05-12.14,4.04-22.68,0-45.36,0-68.04-.01-.95,0-1.93-.06-2.86-.25-3.44-.71-4.84-4.24-2.85-7.14.45-.66,1-1.24,1.52-1.85.97-1.14,1.58-2.41,1.42-3.94-.12-1.17-.86-1.62-1.9-1.14-1.82.84-3.7,1.21-5.7,1.15-1.96-.06-3.94.14-5.87-.06-1.76-.18-3.53-.6-5.19-1.2-1.86-.67-2.4-.65-3.49,1.03-1.46,2.24-2.77,4.59-4.39,6.71-2.81,3.66-6.63,5.71-11.23,6.19-2.58.27-5.18.48-7.77.5-8.8.06-17.6.03-26.4,0-.95,0-1.93-.09-2.85-.31-2.79-.68-4.07-3.34-2.91-5.97.37-.84.86-1.63,1.21-2.48.62-1.5.69-3.02-.1-4.51-.75-1.41-1.91-2.1-3.51-2.08-.6,0-1.2-.02-1.8.03-3.6.33-5.16,3.6-3.15,6.62.42.63.9,1.23,1.3,1.87,1.8,2.89.38,6.11-2.98,6.58-1.97.28-3.97.43-5.97.45-5.52.06-11.04.06-16.56.02-2-.01-3.95-.33-5.15-2.22-.76-1.18-.74-2.42-.04-3.63.26-.45.54-.92.92-1.25,2.47-2.14,2.62-4.98,2.42-7.92-.13-1.87-.23-3.75-.51-5.6-.11-.76-.54-1.96-1.02-2.07-1.05-.23-1.31.97-1.57,1.76-1.54,4.71-2.98,9.46-4.57,14.15-.51,1.49-1.19,3.01-2.17,4.21-1.56,1.92-4.3,1.82-5.64-.27-1.43-2.24-2.49-4.71-3.68-7.1-1.33-2.68-2.59-5.39-3.97-8.05-.23-.45-.89-.69-1.35-1.02-.31.53-.79,1.02-.89,1.59-.43,2.54-.63,5.13.41,7.56.54,1.25,1.48,2.35,2.35,3.43,2.31,2.87,1.31,5.95-2.35,6.42-2.54.33-5.2.31-7.75-.02-3.2-.41-4.33-3.54-2.26-6.02,1.9-2.28,2.7-4.79,2.62-7.74-.16-5.35-.18-10.71-.28-16.06-.03-1.83-.72-3.43-1.94-4.79-2.04-2.28-1.91-4.28.76-6.84.17-.17.38-.3.55-.46,1.07-1.02,1.03-1.5-.2-2.27-2.17-1.36-2.68-2.59-1.58-4.94,1.21-2.58,1.57-5.23,1.49-8.04-.1-3.48,0-6.96-.06-10.44-.04-1.96-.28-3.87-1.31-5.65-1.49-2.59-1.18-4.92,1.13-7.17,2.6-2.53,5.4-4.85,8.15-7.23.38-.33.89-.54,1.38-.69,2.31-.67,3.63.4,3.35,2.76-.09.78-.47,1.52-.64,2.3-.35,1.62-.9,3.26-.9,4.89,0,1.99,1.2,2.52,3.03,1.76,5.76-2.39,5.86-8.17,3.3-12.07-1.99-3.03-2-5.14.75-7.5,2.57-2.21,5.37-4.15,8.19-6.03,3.82-2.55,7.73-4.97,11.65-7.37,1.32-.81,2.75-1.48,4.2-2.04,1.4-.54,2.87-.78,4.19.35,1.43,1.23,1.2,2.78.84,4.32-.52,2.21-.44,4.32.95,6.18.51.68,1.56,1.68,2.01,1.52.79-.28,1.55-1.24,1.9-2.08.57-1.39.82-2.91,1.19-4.39.39-1.57-.01-2.98-.84-4.34-1.87-3.08-1.34-5.7,1.74-7.57,1.83-1.11,3.85-1.95,5.84-2.78,4.5-1.88,9.01-3.75,13.57-5.47,3.33-1.25,6.78-2.16,10.39-2.2,5.93-.07,10.07,2.92,13.04,7.76,2.36,3.83,3.48,8.13,4.52,12.46.13.52.52.98.8,1.47.22-.51.51-1,.66-1.53.13-.45.13-.95.13-1.43.01-3.31,0-6.63.02-9.94.02-1.91-.64-3.49-1.95-4.87-.6-.63-1.19-1.34-1.54-2.12-1.22-2.66.45-5.47,3.7-6.08,3.1-.58,6.23-1.08,9.36-1.38,4.13-.4,8.28-.62,12.43-.8,1.92-.08,3.88.3,5.01,2.02.71,1.08,1.21,2.47,1.3,3.76.17,2.66.16,5.35-.08,8-.18,2-1.69,2.94-3.68,2.73-1.33-.14-1.91-1.17-2.51-2.17-.8-1.32-1.48-2.74-2.43-3.94-1.18-1.5-2.89-1.59-4.61-1.08-1.61.48-2.08,1.81-2.09,3.29-.03,2.43.06,4.86.1,7.29,0,.2.03.42.13.58.36.58.68,1.48,1.18,1.61.47.12,1.2-.51,1.72-.93.76-.63,1.36-1.47,2.17-2.03,1.29-.89,2.78-.58,3.48.79.53,1.04.95,2.26.96,3.4.06,3.87-.05,7.75-.18,11.62-.02.66-.39,1.41-.8,1.95-1.14,1.5-2.76,1.61-4.17.37-.66-.58-1.23-1.26-1.89-1.85-.82-.74-1.42-.69-1.94.26-.31.57-.49,1.29-.48,1.94.02,2.96.13,5.91.2,8.87.04,1.6.58,2.93,2.13,3.58,1.71.72,3.2.12,4.56-.96,1.8-1.44,2.31-3.59,3.08-5.59.32-.82.57-1.66.91-2.48.69-1.66,2.05-2.57,3.49-2.38,1.41.18,2.66,1.48,2.84,3.16.18,1.58.25,3.19.25,4.78,0,2.12-.14,4.23-.2,6.35-.1,3.79-2.03,5.85-5.84,6.06-4.94.28-9.89.48-14.84.74-2.67.14-5.34.42-8.01.42-1.1,0-2.36-.32-3.25-.92-1.71-1.15-1.93-3.82-.69-5.6.46-.66,1.09-1.23,1.39-1.95.52-1.27,1.13-2.61,1.19-3.94.11-2.79-.07-5.59-.22-8.38-.04-.78-.38-1.55-.58-2.33-.19,0-.38.01-.58.02Zm-2.67,70.75c.17,0,.34,0,.51,0,0,3.51-.04,7.03.02,10.54.02,1.19.16,2.41.52,3.54.82,2.57,3.4,3.13,5.44,1.36,1.84-1.6,2.72-3.72,3.37-5.96,1.33-4.61,1.57-9.38,1.61-14.12.04-3.98-.29-7.98-.73-11.94-.4-3.62-1.27-7.17-3.16-10.36-.96-1.61-2.23-2.92-4.02-3.63-2.14-.85-3.78.15-3.78,2.42.01,4.31.17,8.62.2,12.94.04,5.07,0,10.14,0,15.22Zm-21.89-86.08c.09,1.26.24,2.57.28,3.88.19,6.58.32,13.17.53,19.75.07,2.15.15,4.32.55,6.42.53,2.72,2.52,3.18,4.56,1.27,1.97-1.85,2.73-4.29,3.24-6.81,1.07-5.28,1.12-10.63.7-15.97-.26-3.35-.72-6.68-2.12-9.79-.8-1.78-1.88-3.37-3.88-4.01-1.74-.56-3.27.29-3.62,2.1-.19,1.01-.17,2.06-.24,3.16Zm121.99,67.48c0-1.51.03-2.63,0-3.75-.05-1.31-.39-2.52-1.37-3.48-1.59-1.55-3.61-1.16-4.42.91-.24.62-.39,1.31-.43,1.98-.19,2.91-.38,5.82-.47,8.73-.2,6.35-.35,12.7-.52,19.05,0,.36-.06.72-.06,1.08-.05,2.68-.12,5.35-.12,8.03,0,.54.2,1.11.43,1.61.47,1.03,1.21,1.81,2.43,1.86,1.29.06,2.14-.72,2.59-1.79.39-.94.65-1.99.73-3.01.23-3.06.37-6.14.48-9.21.27-7.46.51-14.93.75-22Zm48.95,34.33c-.06-1.27-.72-2.55-1.8-3.55-1.49-1.38-3.09-2.64-4.65-3.95-1.55-1.3-3.32-2.42-4.62-3.94-2.54-2.97-4.36-6.39-5.24-10.26-.1-.43-.26-.84-.42-1.25-.43-1.08-1.02-1.32-1.91-.57-.97.82-1.83,1.77-2.67,2.74-1.26,1.45-1.22,2.26-.11,3.85,1.24,1.76,2.42,3.56,3.63,5.34.92,1.34,2,2.32,3.81,2.28,1.82-.04,3.1.86,3.73,2.64.67,1.92,1.27,3.88,2.09,5.74.84,1.9,2.09,3.52,4.22,4.15,2.07.61,3.92-.8,3.94-3.21Zm-36.57-4.59c.1,1.05.09,2.63.43,4.12.3,1.35,1.67,1.93,2.7,1.24.62-.41,1.22-1.1,1.47-1.8.45-1.26.75-2.61.91-3.95.29-2.35.18-4.71-.58-6.98-.5-1.5-1.75-2.51-2.81-2.4-1.01.11-1.66,1.16-1.77,2.92-.13,2.11-.22,4.22-.35,6.84Zm34.2-25.63c-1.74,0-2.44.83-2.41,2.16.05,2.37,4.45,7.3,6.8,7.61.68.09,1.18-.13.96-.91-.73-2.62-1.58-5.22-3.34-7.36-.61-.74-1.58-1.19-2.01-1.5Zm-33.16.39c.05.42.14,1.01.19,1.61.08.89.34,1.78,1.29,1.94,1.03.17,1.58-.71,1.89-1.54,1.01-2.73,1.01-5.49-.21-8.15-.23-.5-1.03-1.1-1.49-1.05-.44.05-1.04.87-1.12,1.41-.28,1.85-.37,3.73-.54,5.78Z"/><path class="cls-1" d="m160.04,43.48c.11,1.59.19,3.19.33,4.78.13,1.49.87,2.71,1.8,3.85.53.64,1.02,1.35,1.38,2.09,1.1,2.24.07,4.67-2.34,5.33-1.17.32-2.45.46-3.66.41-3.15-.15-6.3-.37-9.43-.71-4.08-.45-5.56-3.84-3.24-7.23.67-.98,1.6-1.88,1.97-2.96.48-1.41.72-2.96.74-4.46.14-9.27.2-18.55.26-27.82,0-1.55-.02-3.13-.29-4.66-.19-1.05-.77-2.06-1.28-3.02-.29-.55-.8-.99-1.21-1.48-1.1-1.3-1.67-2.81-1.09-4.45.6-1.7,2.01-2.64,3.77-2.7,2.55-.09,5.12-.18,7.64.07,3.33.33,6.68.75,9.93,1.53,7.1,1.7,11.01,6.54,12.51,13.51.37,1.72.58,3.47.93,5.19.09.41.47.77.71,1.15.33-.31.81-.55.96-.93.87-2.19,1.65-4.41,2.49-6.61.64-1.67,1.11-3.47,2.06-4.95,1.71-2.68,4.78-2.46,6.36.32.45.79.79,1.68.98,2.56,1.52,6.95,2.99,13.92,4.49,20.87,1.26,5.82,2.52,11.65,3.8,17.46.19.85.45,1.72.85,2.49.27.5.85.84,1.3,1.25.31-.52.77-1,.91-1.56.22-.92.28-1.9.33-2.85.18-3.03.36-6.06.47-9.09.13-3.39.2-6.79.27-10.19.04-1.83,0-3.66.01-5.49,0-1.75-.71-3.21-1.62-4.68-.69-1.12-1.28-2.43-1.44-3.71-.21-1.75,1.27-3.18,3.05-3.08,1.41.08,2.92.25,4.18.83,5.08,2.34,10.21,4.61,15.04,7.39,2.3,1.33,4.07,3.65,5.87,5.72,1.16,1.34,1.9,3.04,2.88,4.56.95,1.47,1.32,1.5,2.53.29,1.65-1.66,2.99-1.99,5.18-.82,2.18,1.16,4.25,2.55,6.28,3.96,1.47,1.03,2.89,2.16,4.14,3.44.78.8,1.36,1.89,1.73,2.95.45,1.29.35,2.6-.91,3.57-1.89,1.46-2.26,3.48-2.03,5.7.14,1.3,1.14,2.01,2.39,1.58,1.3-.44,2.2-1.33,2.35-2.75.08-.71.02-1.44-.08-2.15-.29-2.13,1.04-3.33,3.11-2.69.87.27,1.8.61,2.47,1.18,2.15,1.83,4.2,3.78,6.26,5.71.37.35.62.84.85,1.3,1.29,2.46.19,4.39-2.58,4.59-.8.06-1.59.17-2.38.24-1.93.17-3.17,1.73-2.65,3.6.56,2,1.27,3.96,2.03,5.89,1.55,3.94,3.11,7.89,4.81,11.76.75,1.71,1.93,3.22,2.79,4.88.48.93.86,1.98.98,3.02.15,1.29-.67,2.16-1.95,2.24-.86.06-1.84.11-2.6-.22-3.5-1.54-6.98-3.16-10.39-4.89-.92-.47-1.68-1.35-2.35-2.17-.87-1.06-1.79-1.75-3.26-1.57-2.26.27-4.31-.5-6.38-1.32-4.53-1.79-9.09-3.55-13.69-5.15-3.26-1.13-5.32-3.35-6.51-6.42-.91-2.33-1.54-4.78-2.32-7.16-.62-1.9-1.22-3.8-1.94-5.66-.18-.45-.82-.72-1.25-1.07-.28.44-.71.85-.82,1.33-.62,2.83-.19,5.4,1.7,7.77,2.39,2.99.76,5.4-1.36,6.15-.99.35-2.24.31-3.3.1-3.01-.62-5.98-1.46-8.98-2.14-4.17-.95-8.36-1.82-12.54-2.75-1.72-.38-3.44-.74-4.72-2.13-1.23-1.34-1.35-2.85-.79-4.46.3-.86.78-1.66,1.16-2.5.81-1.79.51-3.57-.68-4.91-1.46-1.66-3.31-1.86-5.26-1.41-1.36.32-2.07,1.95-1.61,3.56.31,1.06.82,2.07,1.3,3.08,1.43,3.01.06,5.7-3.23,6.07-2.41.27-4.81-.08-7.03-1.11-2.34-1.08-3.17-3.54-2.03-5.85.49-1,1.1-1.95,1.77-2.84,1.59-2.13,2.43-4.58,3.11-7.09,1.08-3.97,2.1-7.96,3.15-11.94.04-.15.12-.32.09-.47-.1-.48-.24-.95-.36-1.42-.47.14-1.01.17-1.39.43-1.34.93-2.51,2.19-3.97,2.85-1.75.79-3.71,1.09-5.59,1.58-.26.07-.56.01-.84.02-3.65.06-4.59.88-4.96,4.5-.1.99-.02,2-.02,3h-.12Zm77.88,1.01s-.03,0-.05,0c0-.88.03-1.76,0-2.64-.1-2.07-.78-3.92-2.29-5.38-.74-.71-1.31-.52-1.51.47-.14.7-.26,1.42-.26,2.14-.01,3.45-.97,6.57-3.34,9.13-1.4,1.52-1.53,3.18-.89,5.01,1.14,3.24,2.29,6.48,3.51,9.7.33.89.81,1.76,1.38,2.51.8,1.07,1.8.87,2.22-.4.24-.71.4-1.48.44-2.23.29-6.1.54-12.21.8-18.32Zm-72.74-25.41c-.37-1.78-.62-3.65-1.21-5.4-.22-.67-1.24-1.07-1.89-1.59-.41.63-1.13,1.24-1.18,1.89-.2,3.15-.26,6.3-.29,9.46-.01.98.26,2.03,1.46,2.17,1.19.15,1.86-.72,2.12-1.73.4-1.53.65-3.1.99-4.8Zm51.73,16.09c.08,1.24.09,2.24.22,3.22.12.93.57,1.71,1.59,1.86,1.09.16,1.81-.56,2.09-1.45.89-2.79.86-5.58-.68-8.17-.29-.49-1.22-1.13-1.51-.99-.57.27-1.15.99-1.29,1.63-.3,1.35-.32,2.76-.43,3.91Zm36.24,39.72c-.65-1.66-1.22-3.27-1.93-4.81-.19-.41-.82-.61-1.24-.9-.27.44-.72.86-.78,1.33-.25,1.93.61,3.57,1.64,5.1.26.39,1.03.86,1.3.74.43-.2.64-.87,1.01-1.46Z"/></g></svg>